<?xml version="1.0" standalone="no"?>
<!DOCTYPE svg PUBLIC "-//W3C//DTD SVG 20010904//EN"
 "http://www.w3.org/TR/2001/REC-SVG-20010904/DTD/svg10.dtd">
<svg version="1.0" xmlns="http://www.w3.org/2000/svg"
 width="640.000000pt" height="640.000000pt" viewBox="0 0 640.000000 640.000000"
 preserveAspectRatio="xMidYMid meet">
<metadata>
Created by potrace 1.14, written by Peter Selinger 2001-2017
</metadata>
<g transform="translate(0.000000,640.000000) scale(0.100000,-0.100000)"
fill="#ffffff" stroke="none">
<path d="M3130 5840 c0 -16 7 -20 30 -20 l30 0 0 -85 c0 -84 0 -85 25 -85 25
0 25 1 25 85 l0 85 35 0 c28 0 35 4 35 20 0 19 -7 20 -90 20 -83 0 -90 -1 -90
-20z"/>
<path d="M2871 5843 l-43 -4 6 -72 c13 -137 16 -148 40 -145 17 2 20 9 18 36
-3 28 0 32 20 32 35 0 85 35 92 65 8 33 -14 72 -50 85 -14 6 -28 9 -32 8 -4
-1 -27 -3 -51 -5z m83 -58 c10 -28 -5 -45 -40 -45 -31 0 -34 3 -34 30 0 27 3
30 34 30 21 0 36 -6 40 -15z"/>
<path d="M3450 5833 c0 -10 -5 -56 -10 -102 -5 -47 -9 -86 -7 -87 1 -1 12 -4
24 -8 23 -7 22 -9 39 152 6 62 6 62 -20 62 -18 0 -26 -5 -26 -17z"/>
<path d="M3660 5826 c0 -2 -9 -47 -20 -101 -11 -53 -17 -101 -14 -106 3 -5 13
-9 23 -9 15 0 21 13 31 67 l13 68 19 -45 c11 -24 21 -47 24 -49 3 -3 18 10 34
29 16 19 31 32 34 29 3 -2 1 -22 -4 -44 -16 -68 -13 -87 12 -83 19 3 25 14 40
88 22 110 22 117 -4 124 -17 4 -32 -4 -60 -31 l-37 -36 -15 38 c-9 21 -16 41
-16 45 0 4 -10 10 -22 14 -27 7 -38 7 -38 2z"/>
<path d="M2532 5775 c-68 -30 -79 -130 -21 -179 47 -40 110 -37 155 8 91 91
-14 226 -134 171z m101 -53 c40 -35 4 -117 -50 -110 -39 5 -69 51 -57 85 17
49 65 60 107 25z"/>
<path d="M4001 5644 c-17 -53 -31 -101 -31 -105 0 -5 10 -9 23 -9 20 0 27 12
55 97 32 97 31 112 -5 113 -6 0 -26 -43 -42 -96z"/>
<path d="M4220 5651 c0 -13 15 -25 48 -38 l47 -20 -81 -41 c-118 -60 -118 -66
5 -116 50 -20 67 -23 73 -14 13 21 10 25 -44 48 l-53 22 80 41 c73 36 94 51
95 68 0 7 -141 69 -157 69 -7 0 -13 -8 -13 -19z"/>
<path d="M2025 5585 c-29 -28 -31 -51 -9 -84 14 -20 23 -22 73 -19 50 3 56 1
56 -17 0 -16 -8 -21 -42 -23 -38 -3 -43 -6 -43 -28 0 -19 5 -24 25 -24 38 0
92 25 104 48 31 57 -1 92 -82 92 -44 0 -57 3 -57 15 0 8 12 17 28 21 47 10 52
13 52 29 0 26 -76 20 -105 -10z"/>
<path d="M4515 5439 c-101 -76 -102 -76 -88 -90 9 -9 19 -9 42 1 27 11 34 9
66 -10 30 -18 35 -27 31 -46 -5 -17 -1 -26 15 -34 11 -7 22 -10 24 -8 1 2 9
53 18 113 13 100 13 111 -1 123 -9 6 -18 12 -21 12 -3 0 -42 -28 -86 -61z m67
-40 c-3 -21 -9 -29 -19 -25 -8 3 -17 6 -19 6 -12 0 -2 30 14 39 26 16 29 14
24 -20z"/>
<path d="M1793 5465 c-39 -16 -58 -53 -49 -90 9 -34 43 -46 95 -33 28 7 46 7
52 1 16 -16 -18 -43 -52 -43 -24 0 -29 -4 -29 -25 0 -28 20 -32 64 -15 62 23
83 77 47 121 -18 22 -21 22 -71 11 -39 -9 -57 -9 -64 -2 -14 15 19 40 51 40
18 0 23 6 23 25 0 29 -18 32 -67 10z"/>
<path d="M4803 5334 c-3 -9 3 -21 16 -31 27 -18 24 -27 -30 -98 -34 -46 -39
-58 -29 -70 7 -8 16 -15 19 -15 4 0 29 29 55 65 26 36 50 65 54 65 3 0 13 -7
23 -16 20 -18 49 -13 49 8 -1 14 -123 108 -140 108 -6 0 -13 -7 -17 -16z"/>
<path d="M1530 5285 c-30 -25 -56 -48 -58 -53 -1 -5 26 -45 61 -90 l64 -82 62
47 c33 26 61 53 61 59 0 27 -24 25 -66 -6 -67 -48 -93 -18 -28 34 32 25 34 30
21 43 -13 14 -19 13 -50 -11 -18 -14 -39 -26 -45 -26 -25 0 -16 28 20 60 29
25 38 40 33 53 -4 9 -10 17 -14 17 -3 -1 -31 -21 -61 -45z"/>
<path fill="#DB1961" d="M3304 5260 c-31 -12 -74 -68 -74 -95 0 -19 -6 -25 -32 -29 -56 -9
-270 -28 -272 -24 -1 2 -9 19 -18 39 -17 37 -66 69 -107 69 -69 0 -131 -63
-131 -131 0 -36 -2 -37 -62 -60 -34 -12 -129 -51 -212 -85 l-150 -62 -18 28
c-22 38 -67 60 -118 60 -88 0 -148 -107 -105 -190 l17 -32 -34 -37 c-19 -20
-115 -124 -214 -231 -484 -528 -464 -507 -504 -514 -112 -18 -147 -172 -52
-231 31 -20 31 -21 31 -100 0 -44 -4 -172 -9 -285 -5 -113 -10 -253 -11 -313
l-1 -107 -43 -19 c-50 -22 -75 -55 -82 -108 -6 -47 26 -100 77 -125 39 -20 43
-30 190 -383 43 -104 98 -237 123 -295 l46 -105 -24 -20 c-48 -42 -61 -106
-31 -163 29 -57 113 -80 175 -48 28 15 32 12 385 -221 l357 -236 -6 -37 c-8
-50 15 -104 57 -130 72 -46 179 -3 194 77 l6 34 52 -6 c28 -3 170 -17 316 -30
546 -50 520 -47 520 -67 0 -76 98 -136 171 -105 58 24 74 51 75 125 l1 66 219
98 c120 55 260 116 309 138 50 21 123 54 164 73 l74 35 31 -19 c68 -42 155
-16 187 56 23 53 18 85 -22 137 l-29 36 91 189 c50 103 121 249 157 323 36 74
89 186 118 249 46 95 57 112 71 105 37 -16 91 -16 122 1 39 20 71 70 71 110 0
68 -65 135 -132 135 -25 0 -27 3 -32 63 -8 86 -29 638 -25 640 2 1 22 11 44
22 50 25 80 80 71 130 -14 74 -90 124 -158 104 -17 -5 -32 -8 -33 -6 -1 1 -38
72 -82 157 -95 182 -161 309 -250 478 -63 119 -64 124 -55 168 13 60 0 106
-39 138 -36 31 -100 35 -151 10 l-33 -15 -390 166 c-215 91 -438 186 -496 211
-96 41 -106 47 -102 69 7 33 -25 94 -61 116 -32 20 -86 24 -122 9z m-84 -149
c-15 -9 -242 -51 -273 -51 -10 0 -17 8 -17 19 0 17 10 20 78 26 42 3 86 7 97
9 46 7 129 5 115 -3z m610 -161 c601 -255 641 -273 634 -289 -15 -35 -15 -90
0 -123 19 -40 48 -60 100 -67 39 -6 40 -7 62 -76 12 -38 64 -199 115 -358 72
-222 90 -290 81 -299 -18 -18 -93 60 -147 152 -53 90 -88 126 -192 194 -71 46
-78 54 -80 86 -13 184 -124 357 -277 429 -37 18 -102 39 -143 46 -41 7 -78 17
-82 22 -4 4 -25 32 -46 62 -44 62 -116 121 -194 161 -31 16 -65 39 -75 52 -11
12 -42 46 -69 75 -70 74 -60 92 30 53 37 -16 165 -70 283 -120z m-569 109 c16
-17 29 -33 29 -36 0 -12 -96 -123 -106 -123 -6 0 -37 9 -70 21 -82 28 -172 22
-282 -21 -111 -43 -167 -84 -225 -161 -26 -35 -52 -70 -58 -76 -22 -28 -68
-13 -188 63 -113 72 -120 78 -114 103 3 14 7 28 9 30 1 2 103 32 226 67 222
63 223 63 265 47 59 -22 108 -11 149 34 31 34 40 37 156 58 170 31 175 31 209
-6z m316 -135 c-3 -4 -20 -1 -38 5 -52 18 -133 13 -215 -14 -75 -25 -114 -31
-114 -19 0 4 21 33 48 65 46 58 48 59 98 59 37 0 59 6 75 20 l24 19 64 -65
c35 -35 61 -67 58 -70z m-887 96 c9 -17 4 -21 -57 -39 -38 -10 -117 -33 -176
-51 -60 -17 -111 -29 -113 -27 -3 2 50 27 118 55 68 28 139 57 158 65 47 21
58 20 70 -3z m-342 -300 c56 -36 102 -67 102 -70 0 -3 -21 -12 -47 -18 -104
-28 -212 -113 -277 -219 -43 -70 -63 -130 -72 -218 -4 -35 -9 -67 -13 -72 -3
-6 -30 -22 -59 -36 -29 -15 -71 -41 -94 -59 -28 -23 -42 -29 -45 -20 -3 7 -16
26 -29 41 -13 16 -24 32 -24 37 0 4 25 62 55 128 30 67 92 207 139 311 84 189
84 190 114 187 40 -4 95 20 118 52 11 14 21 24 25 23 3 -1 51 -31 107 -67z
m-295 -1 c-1 -12 -103 -245 -236 -539 l-43 -94 -52 3 c-46 2 -54 -1 -89 -33
-36 -33 -38 -37 -38 -98 l0 -63 -95 10 c-72 8 -104 17 -132 35 -21 14 -38 28
-38 31 0 17 701 770 713 766 7 -2 11 -10 10 -18z m2776 -499 c61 -118 141
-274 178 -346 l67 -131 -26 -28 -26 -28 -12 23 c-17 32 -87 61 -132 53 -21 -3
-38 -3 -38 1 0 4 -30 98 -66 209 -87 268 -154 480 -154 492 0 6 12 17 28 26
27 15 27 15 48 -20 12 -20 72 -133 133 -251z m-3301 -330 c49 -6 96 -19 117
-31 19 -12 35 -23 35 -25 0 -2 -8 -25 -19 -51 -10 -26 -37 -102 -61 -168 -23
-66 -61 -154 -85 -195 -51 -91 -73 -151 -81 -228 -7 -68 -75 -273 -89 -269 -9
3 -42 527 -44 708 l-1 75 39 17 c54 24 75 60 74 125 0 60 -8 57 115 42z m206
-105 c-7 -25 -16 -79 -20 -120 l-7 -75 -63 -45 c-64 -44 -75 -43 -54 7 5 13
27 73 49 133 22 61 42 118 46 127 6 15 41 28 57 21 3 -2 0 -23 -8 -48z m3047
-49 c15 -17 15 -23 2 -53 -8 -21 -11 -47 -7 -70 6 -31 4 -35 -12 -31 -16 3
-20 16 -25 80 -4 42 -10 89 -13 105 l-7 27 23 -19 c13 -11 30 -28 39 -39z
m-3475 -444 c12 -253 14 -366 6 -374 -6 -6 -23 -7 -41 -3 -29 6 -31 10 -31 48
0 110 22 724 27 737 13 35 22 -63 39 -408z m3804 223 c16 -4 32 -10 34 -13 2
-4 9 -153 16 -332 7 -179 13 -335 14 -347 0 -12 -3 -23 -8 -23 -10 -1 -53 142
-152 502 l-57 208 34 38 34 38 28 -32 c15 -18 41 -35 57 -39z m-165 -17 c10
-25 44 -148 41 -148 -1 0 -17 21 -33 48 -17 26 -43 58 -57 71 -14 14 -26 28
-26 33 0 13 70 9 75 -4z m-2665 -76 c75 -37 109 -139 71 -214 l-21 -42 23 -26
c48 -52 62 -142 33 -199 -22 -41 -80 -88 -123 -100 -41 -12 -251 -15 -277 -5
-14 5 -16 41 -16 298 0 161 3 296 7 299 3 4 65 7 137 7 105 0 138 -4 166 -18z
m798 -11 c103 -53 162 -151 162 -271 0 -126 -63 -223 -179 -278 -146 -68 -327
2 -397 152 -34 72 -33 181 0 251 37 78 97 133 175 162 55 20 185 12 239 -16z
m532 -226 l0 -255 131 0 130 0 -3 -47 -3 -48 -169 -3 c-129 -2 -171 1 -178 10
-9 15 -11 582 -1 591 3 4 26 7 50 7 l43 0 0 -255z m868 213 l-3 -43 -77 -3
-78 -3 -2 -257 -3 -257 -33 -3 c-62 -6 -62 -5 -62 269 l0 248 -77 3 c-77 3
-78 3 -81 31 -7 58 -10 57 213 57 l206 0 -3 -42z m611 -408 l59 -205 -24 -28
c-29 -34 -40 -87 -26 -126 l10 -29 -202 -136 c-112 -75 -207 -136 -213 -136
-6 0 -16 6 -22 14 -9 10 -6 25 13 62 33 66 56 160 56 226 l0 55 55 38 c70 48
153 138 176 191 30 67 49 154 50 229 0 38 2 66 5 60 2 -5 30 -102 63 -215z
m-3643 23 c9 -32 26 -78 40 -102 29 -53 29 -51 1 -51 -13 0 -34 11 -47 25 -13
14 -28 25 -34 25 -34 1 -36 16 -10 94 14 42 28 75 31 73 2 -3 11 -31 19 -64z
m115 -207 c22 -24 63 -60 92 -79 l53 -36 12 -102 c23 -192 114 -320 295 -414
32 -17 37 -24 37 -55 0 -19 7 -64 14 -100 8 -36 13 -66 11 -68 -1 -2 -49 52
-106 120 -57 68 -130 155 -163 194 -34 39 -113 133 -176 209 -63 76 -130 155
-149 177 -33 38 -33 38 -17 72 9 19 16 55 16 80 0 40 3 46 21 46 13 0 37 -18
60 -44z m-94 -158 c17 -18 93 -108 169 -199 77 -91 209 -248 294 -350 85 -101
170 -205 188 -230 l33 -46 -22 -37 c-21 -36 -24 -38 -63 -32 -23 3 -108 8
-189 12 -125 5 -149 9 -154 23 -24 77 -47 100 -111 110 -31 5 -37 11 -48 46
-24 77 -184 690 -184 707 0 15 15 23 46 27 5 0 24 -14 41 -31z m-123 13 c16
-6 31 -52 78 -227 66 -247 138 -526 138 -533 0 -21 -31 45 -108 229 -50 118
-120 285 -155 370 -57 135 -63 156 -49 162 22 9 72 8 96 -1z m3755 -157 c-36
-77 -171 -357 -304 -632 l-88 -182 -36 3 -36 4 -6 74 c-3 41 -9 138 -13 215
l-8 141 35 22 c41 25 62 69 60 126 l-2 40 207 137 c118 79 210 134 215 129 5
-5 -5 -38 -24 -77z m-619 -333 c0 -5 -17 -23 -37 -41 -38 -31 -38 -31 -41 -9
-3 15 4 30 18 41 23 19 60 24 60 9z m36 -26 c16 -8 41 -15 55 -15 l26 0 7
-137 c3 -76 9 -174 12 -218 l6 -80 -31 -18 c-34 -20 -51 -46 -60 -91 -6 -28
-11 -30 -261 -103 -140 -40 -317 -91 -392 -112 l-138 -38 -16 25 c-16 25 -16
25 105 146 117 117 124 122 186 138 194 51 320 177 371 370 13 47 28 74 58
106 22 23 41 42 42 42 1 0 15 -7 30 -15z m-2478 -401 c62 -6 72 -9 72 -26 0
-10 9 -36 20 -57 23 -45 75 -74 126 -69 l35 3 79 -170 c73 -157 78 -171 63
-187 -9 -10 -20 -18 -24 -18 -4 0 -122 76 -261 168 -139 93 -293 195 -342 228
-50 32 -94 62 -99 65 -5 4 -4 22 4 44 l14 37 120 -6 c66 -4 153 -9 193 -12z
m416 -106 c80 -22 82 -24 171 -114 102 -103 152 -136 245 -160 79 -20 231 -15
303 11 46 16 51 16 125 -3 42 -11 96 -23 119 -27 48 -8 66 -24 61 -57 -3 -26
43 -19 -533 -78 -269 -27 -291 -28 -300 -13 -35 58 -100 89 -156 73 -34 -10
-21 -32 -139 228 l-47 103 26 29 c14 16 30 29 35 30 5 0 45 -10 90 -22z m1470
-22 c-3 -8 -17 -22 -31 -31 -24 -16 -24 -16 -14 4 6 11 19 25 29 30 22 13 22
13 16 -3z m614 -101 c10 -21 9 -26 -7 -35 -18 -9 -304 -137 -629 -281 l-133
-59 -22 20 c-12 12 -32 23 -44 26 -29 8 -29 9 2 46 14 16 25 40 25 53 0 14 8
28 18 34 9 5 91 30 182 55 91 25 255 73 365 106 110 32 207 59 216 59 9 1 21
-10 27 -24z m-808 -89 c0 -2 -8 -10 -17 -17 -16 -13 -17 -12 -4 4 13 16 21 21
21 13z m-216 -206 c15 -16 41 -32 57 -35 l30 -7 -31 -34 c-16 -19 -30 -41 -30
-49 0 -18 16 -18 -170 0 -85 8 -278 26 -429 40 -239 22 -321 33 -270 36 8 0
176 18 374 38 455 48 433 48 469 11z"/>
<path d="M2070 3274 l0 -76 81 4 c70 3 83 6 100 27 27 34 24 75 -7 100 -22 17
-41 21 -100 21 l-74 0 0 -76z"/>
<path d="M2070 3020 l0 -90 85 0 c96 0 125 12 145 60 10 24 10 36 0 60 -19 45
-56 60 -150 60 l-80 0 0 -90z"/>
<path d="M2872 3337 c-80 -30 -142 -114 -142 -195 0 -144 155 -252 283 -199
145 61 182 237 72 343 -60 58 -140 77 -213 51z"/>
<path d="M5001 5071 c-67 -74 -70 -79 -53 -94 17 -15 22 -11 87 60 39 42 71
79 73 82 1 3 -7 12 -17 18 -17 11 -27 4 -90 -66z"/>
<path d="M1320 5105 c-11 -14 -7 -23 31 -61 l44 -46 -60 8 c-89 12 -106 11
-118 -7 -8 -13 1 -27 45 -70 96 -93 96 -93 113 -79 14 12 11 18 -26 56 -24 24
-40 46 -37 49 3 4 39 2 79 -4 61 -8 77 -8 89 4 13 13 5 24 -60 90 -41 41 -77
75 -81 75 -4 0 -12 -7 -19 -15z"/>
<path d="M5158 4954 c-30 -16 -58 -61 -58 -94 0 -55 65 -120 120 -120 14 0 40
9 58 20 53 33 68 101 33 154 -36 54 -98 71 -153 40z m104 -51 c40 -36 8 -113
-47 -113 -31 0 -65 33 -65 62 0 30 38 68 68 68 14 0 34 -7 44 -17z"/>
<path d="M1080 4844 c-15 -17 -20 -12 84 -98 61 -51 70 -56 83 -43 9 8 12 20
9 26 -8 12 -152 131 -159 131 -2 0 -10 -7 -17 -16z"/>
<path d="M5375 4654 c-44 -30 -81 -58 -83 -63 -1 -4 4 -14 12 -21 13 -10 24
-7 63 19 26 18 49 28 51 23 1 -4 -7 -34 -18 -67 -39 -114 -25 -124 81 -54 89
58 92 61 83 83 -8 22 -16 20 -67 -14 -25 -16 -48 -30 -51 -30 -3 0 6 32 20 70
25 69 25 111 1 109 -7 0 -48 -25 -92 -55z"/>
<path d="M939 4651 c-38 -38 -39 -82 -3 -110 15 -12 29 -21 33 -21 6 0 46 25
83 52 14 10 20 10 30 -1 11 -10 6 -19 -24 -45 -29 -25 -34 -35 -27 -49 10 -17
12 -17 41 0 54 32 75 104 40 136 -26 24 -58 21 -98 -9 -34 -27 -68 -27 -58 0
3 8 16 22 30 30 14 10 21 22 18 31 -9 23 -33 18 -65 -14z"/>
<path d="M796 4414 c-3 -9 -6 -17 -6 -20 0 -2 26 -17 58 -33 69 -35 83 -50 75
-79 -9 -36 -44 -37 -112 -2 -63 31 -81 32 -81 2 0 -21 117 -82 156 -82 41 0
84 50 84 97 0 46 -20 68 -97 107 -61 30 -69 31 -77 10z"/>
<path d="M5712 4242 c-10 -7 -10 -15 -2 -37 13 -34 13 -34 -72 -69 -65 -27
-85 -50 -54 -62 7 -3 41 6 75 20 75 32 89 32 97 1 7 -27 12 -29 33 -16 12 8 9
22 -16 87 -32 81 -39 89 -61 76z"/>
<path d="M663 4095 c-26 -19 -68 -134 -50 -140 7 -2 50 -18 96 -35 47 -16 88
-30 92 -30 3 0 16 31 28 70 17 53 20 74 11 89 -15 30 -40 40 -68 30 -18 -7
-27 -6 -36 5 -18 22 -50 27 -73 11z m45 -86 c-11 -31 -35 -39 -44 -14 -4 8 1
27 11 41 13 20 19 23 30 14 10 -9 11 -18 3 -41z m87 21 c10 -16 -5 -71 -22
-77 -28 -11 -38 14 -20 52 17 35 31 43 42 25z"/>
<path d="M5742 3915 c-46 -13 -86 -26 -89 -28 -3 -3 -2 -15 2 -27 5 -15 12
-19 23 -15 10 4 29 9 44 12 24 5 27 2 33 -30 9 -44 3 -53 -35 -60 -21 -5 -30
-12 -30 -26 0 -11 3 -22 8 -24 4 -2 50 8 102 22 82 23 95 29 98 49 3 22 1 23
-42 17 -43 -7 -46 -6 -56 20 -17 44 -12 54 31 65 30 8 39 15 35 26 -3 9 -6 18
-6 20 0 8 -38 2 -118 -21z"/>
<path d="M5828 3591 c-94 -13 -98 -15 -98 -39 0 -22 3 -24 34 -19 49 8 56 -17
16 -58 -16 -17 -30 -41 -30 -53 0 -29 8 -28 42 5 26 25 28 26 47 9 27 -25 79
-18 102 14 15 20 18 35 13 77 -10 80 -13 81 -126 64z m80 -78 c-5 -65 -57 -56
-58 10 0 24 4 27 31 27 29 0 30 -2 27 -37z"/>
<path d="M581 3398 l-162 -183 90 -3 c58 -2 93 -7 100 -16 8 -9 1 -46 -25
-137 -49 -167 -49 -168 -32 -149 7 9 32 40 54 70 23 30 94 120 158 200 l116
145 -97 5 c-119 6 -118 3 -69 148 19 56 33 102 31 102 -1 0 -76 -82 -164 -182z"/>
<path d="M5822 3267 c-69 -40 -75 -137 -11 -191 59 -50 147 -22 170 53 14 47
7 81 -24 117 -27 31 -98 42 -135 21z m96 -53 c28 -19 29 -67 2 -94 -23 -23
-42 -25 -73 -9 -43 23 -50 66 -17 99 24 24 57 26 88 4z"/>
<path d="M5810 2913 c-48 -18 -72 -80 -50 -132 15 -36 44 -49 129 -57 59 -6
69 -4 74 11 11 26 -1 35 -46 35 -23 0 -59 5 -79 11 -33 8 -38 14 -38 38 0 44
17 52 104 45 72 -7 76 -6 76 14 0 22 -14 27 -105 36 -27 3 -57 2 -65 -1z"/>
<path d="M5737 2570 c-32 -25 -51 -81 -43 -125 8 -40 8 -41 63 -50 42 -7 42
-7 52 32 15 51 14 53 -10 53 -13 0 -23 -8 -26 -20 -8 -29 -27 -19 -31 14 -7
58 65 89 108 46 24 -24 26 -58 4 -89 -15 -21 -15 -24 0 -39 16 -16 18 -15 36
8 27 36 33 83 16 124 -26 62 -117 87 -169 46z"/>
<path d="M678 2483 c-20 -5 -38 -53 -38 -99 0 -23 -5 -34 -15 -34 -15 0 -26
31 -22 65 1 14 -5 21 -20 23 -21 3 -23 -1 -23 -43 0 -59 36 -101 78 -90 37 9
52 32 52 81 0 24 5 46 12 50 18 12 39 -27 32 -62 -4 -24 -2 -33 12 -38 10 -4
21 -1 26 6 13 21 9 76 -7 107 -19 38 -41 46 -87 34z"/>
<path d="M5626 2264 c-9 -23 -9 -22 34 -35 45 -14 45 -14 25 -62 l-15 -36 -35
15 c-39 16 -55 12 -55 -15 0 -13 24 -26 95 -53 93 -34 96 -35 106 -16 12 23
14 21 -28 37 -37 15 -37 16 -22 60 9 27 16 32 33 27 63 -18 63 -18 69 3 6 25
9 23 -92 61 -94 34 -107 36 -115 14z"/>
<path d="M811 2221 c-11 -7 -11 -16 3 -57 20 -58 20 -60 0 -68 -11 -4 -21 6
-35 39 -21 47 -25 50 -47 36 -11 -6 -10 -16 4 -50 14 -36 15 -44 3 -52 -23
-14 -27 -11 -44 41 -16 49 -40 65 -51 36 -5 -14 44 -146 55 -146 11 0 175 71
184 79 8 8 -35 126 -52 143 -3 4 -12 3 -20 -1z"/>
<path d="M863 1902 c-92 -46 -101 -54 -84 -81 7 -10 27 -3 100 34 50 26 91 52
91 59 -1 34 -18 32 -107 -12z"/>
<path d="M5391 1768 c-30 -46 -37 -65 -29 -75 17 -21 26 -16 50 27 13 22 28
40 33 40 6 0 39 -18 75 -39 47 -29 68 -36 77 -29 22 18 14 32 -35 60 -26 15
-66 39 -89 53 l-43 26 -39 -63z"/>
<path d="M973 1744 l-32 -25 22 -35 c28 -43 53 -41 49 4 -4 39 19 44 42 10 22
-31 20 -64 -4 -88 -40 -40 -104 -17 -112 40 -2 17 -10 26 -25 28 -19 3 -23 -1
-23 -23 0 -60 55 -115 115 -115 58 0 115 55 115 110 0 47 -60 120 -99 120 -9
0 -31 -12 -48 -26z"/>
<path d="M5226 1533 c-51 -64 -53 -71 -30 -80 12 -4 27 7 51 35 21 26 39 39
48 35 21 -7 19 -19 -12 -59 -23 -31 -25 -37 -11 -50 14 -14 19 -11 48 26 29
37 34 40 48 26 13 -13 11 -19 -18 -56 -30 -38 -32 -43 -16 -58 15 -15 17 -15
30 3 8 11 28 37 45 59 17 21 31 44 31 50 0 12 -143 126 -159 126 -5 0 -30 -26
-55 -57z"/>
<path d="M1163 1460 c-38 -23 -53 -48 -53 -90 0 -126 162 -164 216 -51 15 31
15 40 3 75 -16 46 -67 86 -108 86 -14 0 -40 -9 -58 -20z m107 -50 c26 -26 25
-51 -1 -84 -39 -50 -109 -24 -109 40 0 57 69 85 110 44z"/>
<path d="M5087 1363 c-11 -13 -13 -23 -6 -36 8 -13 5 -24 -13 -47 -29 -36 -44
-43 -68 -30 -14 7 -23 6 -35 -6 -9 -9 -13 -20 -8 -24 4 -4 52 -24 106 -45 91
-36 99 -37 114 -22 16 15 14 23 -21 110 -49 122 -49 121 -69 100z m33 -122 c0
-5 3 -16 6 -25 4 -10 1 -16 -7 -16 -24 0 -40 16 -33 33 6 18 34 24 34 8z"/>
<path d="M1439 1254 c-11 -14 -7 -21 30 -51 l42 -36 -33 -36 c-80 -86 -82 -89
-68 -106 7 -9 16 -14 20 -13 3 2 37 36 74 77 l67 74 -43 44 c-57 58 -72 67
-89 47z"/>
<path d="M4830 1125 c-10 -13 -10 -19 4 -33 34 -39 14 -58 -42 -41 -30 9 -44
8 -61 -1 -26 -14 -22 -21 22 -36 26 -9 32 -17 34 -41 2 -44 19 -72 49 -79 29
-8 60 7 112 51 l36 31 -63 82 c-34 45 -66 82 -70 82 -5 0 -14 -7 -21 -15z m74
-124 c16 -18 16 -20 -10 -40 -30 -24 -42 -23 -58 3 -9 13 -6 21 14 36 31 24
33 24 54 1z"/>
<path d="M1623 1005 c-33 -33 -35 -39 -30 -83 4 -37 12 -52 38 -74 91 -76 223
15 179 122 -18 43 -60 70 -110 70 -35 0 -48 -6 -77 -35z m121 -26 c33 -26 34
-62 1 -94 -29 -30 -54 -32 -83 -5 -31 29 -29 73 4 99 15 12 32 21 39 21 7 0
24 -9 39 -21z"/>
<path d="M4580 950 c-13 -8 -11 -17 13 -60 16 -28 27 -54 24 -56 -3 -3 -33 7
-68 21 -58 23 -116 27 -107 7 12 -28 104 -182 109 -182 3 0 13 6 22 13 16 11
15 16 -13 61 -17 26 -29 50 -27 52 2 2 32 -7 67 -21 69 -27 95 -31 105 -15 7
11 -91 190 -103 190 -4 0 -14 -5 -22 -10z"/>
<path d="M1918 786 c-39 -78 -44 -95 -32 -100 27 -10 31 -7 53 39 12 25 25 45
29 45 5 0 14 -32 21 -70 10 -52 18 -73 33 -81 11 -6 21 -9 23 -7 1 2 23 44 49
95 43 87 45 93 27 103 -17 8 -23 2 -52 -48 l-33 -57 -14 80 c-14 76 -23 94
-47 95 -6 0 -32 -42 -57 -94z"/>
<path d="M4288 788 c-14 -12 -11 -23 26 -105 41 -91 49 -101 74 -84 10 6 3 29
-30 104 -23 54 -45 97 -48 97 -4 0 -13 -6 -22 -12z"/>
<path d="M2229 641 l-36 -99 23 -11 c21 -9 24 -7 34 24 15 45 22 49 64 31 l35
-15 -15 -37 c-13 -30 -13 -38 -2 -45 26 -17 34 -8 65 79 42 113 42 116 16 120
-17 2 -24 -4 -34 -32 -15 -40 -14 -40 -58 -25 -33 12 -37 22 -21 65 8 21 8 29
-2 36 -26 16 -34 6 -69 -91z"/>
<path d="M4106 712 c-3 -5 1 -32 9 -58 8 -27 15 -52 15 -56 0 -5 -30 11 -67
35 -65 41 -104 50 -102 24 0 -7 15 -52 33 -102 27 -75 36 -89 52 -87 28 6 29
7 7 67 -12 30 -18 55 -14 55 3 0 33 -18 66 -40 62 -41 72 -45 92 -32 16 10
-49 196 -70 200 -8 2 -18 -1 -21 -6z"/>
<path d="M2561 616 c-17 -20 9 -37 47 -30 63 13 95 -64 47 -111 -29 -30 -45
-31 -76 -6 -17 14 -29 17 -41 10 -26 -14 -22 -27 15 -49 51 -32 102 -27 143
14 28 28 34 42 34 76 0 34 -6 48 -34 76 -29 29 -41 34 -79 34 -25 0 -49 -6
-56 -14z"/>
<path d="M3706 605 c-60 -21 -69 -35 -61 -90 l8 -47 46 7 c54 8 55 9 48 30 -4
8 -18 15 -32 15 -30 0 -34 25 -6 40 32 17 58 12 80 -16 26 -33 26 -55 3 -85
-15 -17 -28 -22 -59 -21 -30 1 -43 -3 -47 -15 -8 -21 10 -33 52 -33 105 0 159
122 84 192 -35 33 -68 40 -116 23z"/>
<path d="M2870 562 c0 -21 25 -32 78 -32 27 0 32 -4 32 -25 0 -23 -3 -24 -52
-22 -42 2 -53 -1 -56 -14 -2 -13 8 -18 47 -24 42 -6 51 -10 51 -27 0 -18 -5
-20 -57 -16 -52 3 -58 1 -58 -17 0 -17 10 -21 73 -29 40 -4 76 -5 79 -2 10 10
26 197 17 206 -5 4 -42 11 -81 14 -68 7 -73 6 -73 -12z"/>
<path d="M3220 475 l0 -85 -30 0 c-25 0 -30 -4 -30 -25 0 -25 1 -25 90 -25 89
0 90 0 90 25 0 22 -4 25 -35 25 l-35 0 0 85 c0 84 0 85 -25 85 -25 0 -25 -1
-25 -85z"/>
</g>
</svg>
