<svg id="Capa_1" data-name="Capa 1" xmlns="http://www.w3.org/2000/svg" viewBox="0 0 32 32"><defs><style>.cls-1{fill:#3d3535;}.cls-2{fill:none;}.cls-3{fill:#fbe102;}.cls-4{fill:#6c91bb;}</style></defs><path class="cls-1" d="M16.29,19a1.93,1.93,0,0,1-.82.88,2.51,2.51,0,0,1-1.61.16A6.66,6.66,0,0,1,11,18.8a9.15,9.15,0,0,1-1.48-1.25c.34-.93.68-1.87,1-2.82.52-1.34,1-2.71,1.15-3l.1-.13a3.66,3.66,0,0,1,.77-.73c.26-.22.24-.54,0-.63a16.13,16.13,0,0,0-2.7,0c-2.42,0-3.49.24-4,1.14-.93,1.53.82,2.56,1.56,2.5-.31-.62-.06-1.64,1.18-2.18a8.6,8.6,0,0,1,1.3-.45l-.82,2.09-1,2.55-.28.64a7.46,7.46,0,0,0-1.88-.74,3.91,3.91,0,0,0-3.31.54A2.31,2.31,0,0,0,2.89,20a4.29,4.29,0,0,0,6-1.25A15.76,15.76,0,0,0,11,20.33c1.59,1,2.81,1.77,3.95,1.37a2.28,2.28,0,0,0,1.4-1.44A2.18,2.18,0,0,0,16.29,19Zm-10.8.16c-.84.24-2.53.11-2.58-1s1.35-1.41,2.4-1.14a6.34,6.34,0,0,1,1.94.76A2.87,2.87,0,0,1,5.49,19.12Z"/><path class="cls-1" d="M28.84,16a1.53,1.53,0,0,0-.74.5c-.62.75-1,1.29-1.51,1.2s-.17-.6.35-1.27c.37-.51-1-.39-1-.39-.68.09-.93,1.12-1.45,1.51-.29.21-.66.19-.64-.32.05-1.14,1.41-2.61,2.09-2.46.16,0,.23.39.08.59,2.56.1,1.51-1.49-.14-1.49a3.87,3.87,0,0,0-3.62,2.23c-.71.82-1.39,1.5-1.61,1.39-.39,0,.29-1.55.79-2.54a10.17,10.17,0,0,0,3.1-4c.72-1.64-.09-2.35-1.14-2-1.54.39-3.35,3.16-4.31,5.82a5.06,5.06,0,0,1-1.7.51,1.72,1.72,0,0,0-.49-1.16,1.13,1.13,0,0,0-1.2-.15,1.24,1.24,0,0,0-.58.84,1,1,0,0,0,.73,1.27A5.12,5.12,0,0,1,15,17.74c-.31.35-.76.58-1.16.26-.58-.45,0-2.35,1-3.4.66-.78-.06-.75-.74-.65a2.78,2.78,0,0,0-1.84,1.83c-.72,1.77.27,3.25,1.92,3.3a2.89,2.89,0,0,0,1.26-.24,4,4,0,0,0,1.8-2,6.18,6.18,0,0,0,.22-.59,4.9,4.9,0,0,0,1.29-.3,12.09,12.09,0,0,0-.27,1.3C18.17,19.35,19.7,19.08,20,19a3.42,3.42,0,0,0,1.93-1.1,1.54,1.54,0,0,0,.29.69c.71.95,2.28.2,2.83-.47.09.6.5.9,1.26.9,1.24,0,2.09-1.29,2.91-2.41a.29.29,0,0,1,.1-.15C29.48,16.21,29.25,16,28.84,16ZM23,11.16l.52-1c.47-.69.64-.3.45.25a10.07,10.07,0,0,1-2.25,3.26ZM15.65,14.9c0-.21.17-.34.33-.21s.17.25.1.7A.58.58,0,0,1,15.65,14.9Z"/><path class="cls-2" d="M13.23,28.4a2.88,2.88,0,0,1-2.64.63,2.75,2.75,0,0,1-2-1.79.27.27,0,0,0-.52.16,3.28,3.28,0,0,0,2.36,2.14,3.72,3.72,0,0,0,.88.11,3.36,3.36,0,0,0,2.26-.87.25.25,0,0,0,0-.37A.27.27,0,0,0,13.23,28.4Z"/><path class="cls-2" d="M19.89,21H19.6l-.35.33H18l-.1.2h1.42Z"/><path class="cls-2" d="M20.18,6.94a.26.26,0,0,0-.26.26.26.26,0,0,0,.26.25.26.26,0,0,0,.25-.16h1.93c.17-.06.33-.14.5-.19H20.43A.28.28,0,0,0,20.18,6.94Z"/><path class="cls-2" d="M11.52,23.93a.26.26,0,0,0,.11.35.27.27,0,0,0,.37-.11,1.54,1.54,0,0,1,.82-.69,5.78,5.78,0,0,1-.65-.25A2.08,2.08,0,0,0,11.52,23.93Z"/><path class="cls-2" d="M6.24,7.75a.26.26,0,1,0-.16-.5A3.24,3.24,0,0,0,3.83,11.1a4,4,0,0,1,.35-.73,1,1,0,0,1,.13-.17,2.51,2.51,0,0,1,.07-.55A2.7,2.7,0,0,1,6.24,7.75Z"/><path class="cls-3" d="M3.86,9.51A3.2,3.2,0,0,1,6.08,7.25a.26.26,0,1,1,.16.5,2.7,2.7,0,0,0-1.86,1.9,2.51,2.51,0,0,0-.07.55A4.59,4.59,0,0,1,8,8.37a3.47,3.47,0,0,1-.43-.63,5.11,5.11,0,0,1-.45-1.29,4.66,4.66,0,0,0-.82.13,4,4,0,0,0-.86.34A4.06,4.06,0,0,0,3.89,8.36a3.81,3.81,0,0,0-.6,2.07,3.49,3.49,0,0,0,.06.65,4.14,4.14,0,0,0,.3.83,3.93,3.93,0,0,1,.18-.81A3.18,3.18,0,0,1,3.86,9.51Z"/><path class="cls-3" d="M12.82,23.48a1.54,1.54,0,0,0-.82.69.27.27,0,0,1-.37.11.26.26,0,0,1-.11-.35,2.08,2.08,0,0,1,.65-.7A19.32,19.32,0,0,1,10,22c-.29-.18-.57-.37-.85-.57a6.23,6.23,0,0,1-2.46,1.13,6.21,6.21,0,0,1-3-.06,2.51,2.51,0,0,0-.06.55,2.91,2.91,0,0,0,.9,2.1,3.29,3.29,0,0,0,.72.52,4.12,4.12,0,0,0,1.34.3,2.25,2.25,0,0,0,1.34-.64,1.64,1.64,0,0,1-.39-.21,3.07,3.07,0,0,1-.86-1.52.27.27,0,0,1,.2-.32.28.28,0,0,1,.33.2,2.44,2.44,0,0,0,.67,1.23A1.92,1.92,0,0,0,9,24.92a.27.27,0,0,1,.31.22.27.27,0,0,1-.23.3,3,3,0,0,1-.32,0l-.26,0a4.28,4.28,0,0,1-1.28.89A3.92,3.92,0,0,0,8.5,29a4.29,4.29,0,0,0,2.89,1.13c1.45,0,2.29-.23,2.83-.83a3.34,3.34,0,0,0,.69-1.61v-2.8a.08.08,0,0,1,0,0,1.46,1.46,0,0,0-.53-1.06H14.3A4.4,4.4,0,0,1,12.82,23.48Zm.78,5.3a3.36,3.36,0,0,1-2.26.87,3.72,3.72,0,0,1-.88-.11A3.28,3.28,0,0,1,8.1,27.4a.27.27,0,0,1,.52-.16,2.75,2.75,0,0,0,2,1.79,2.88,2.88,0,0,0,2.64-.63.27.27,0,0,1,.38,0A.25.25,0,0,1,13.6,28.78Z"/><path class="cls-3" d="M10.26,8.29a8.14,8.14,0,0,1,3,.17,2.22,2.22,0,0,1,1.45,1.65A2.31,2.31,0,0,1,14.24,12a5.09,5.09,0,0,1,.67,0V5.38a4.6,4.6,0,0,0-.71-2.2,3.05,3.05,0,0,0-2.63-1.13,4.21,4.21,0,0,0-2.85,1.2,2.2,2.2,0,0,0-.2.23h0l0,.06h0a3.36,3.36,0,0,0-.36,4,2.33,2.33,0,0,0,.67.81l1.09,0Z"/><path class="cls-3" d="M3.79,13.27a3.52,3.52,0,0,1-.35-.56c-.06-.1-.1-.19-.15-.28a5.19,5.19,0,0,0-1.4,1.66,4,4,0,0,0-.25.56A5.1,5.1,0,0,1,4,13.76,4.25,4.25,0,0,1,3.79,13.27Z"/><rect class="cls-2" x="26.4" y="24.35" width="0.83" transform="translate(-8.38 32.93) rotate(-55.94)"/><polygon class="cls-2" points="27.63 21.11 27.63 21.12 27.63 21.12 27.63 21.11"/><polygon class="cls-2" points="24.04 6.15 22.83 6.56 22.83 6.56 23.11 6.47 24.04 6.15"/><polygon class="cls-2" points="21.99 6.85 22.62 6.64 21.99 6.85 21.99 6.85"/><polygon class="cls-2" points="27.18 23.81 27.35 23.56 27.96 22.66 27.18 23.81 27.18 23.81"/><path class="cls-4" d="M19.89,21l-.56.54H17.91a4.29,4.29,0,0,1-1.85,1.8v3.81A3.57,3.57,0,0,0,16.85,29h0l.11.1a3,3,0,0,0,1.65.77l.15,0a7,7,0,0,0,1.09.08H20l.24,0h.17a4.66,4.66,0,0,0,1.79-.54V28.9H20.63l-1.15-1.11H18.14a.27.27,0,0,1-.51-.1.26.26,0,0,1,.26-.25.26.26,0,0,1,.25.16h1.43l1.14,1.1h1.45V27.34H20.72l-.9-.87H17.25a.28.28,0,0,1-.25.16.26.26,0,0,1-.26-.26.26.26,0,0,1,.26-.25.26.26,0,0,1,.25.16H19.9l.91.87h1.35V25.87l-1.62-1.56H18.86a.27.27,0,0,1-.51-.09.27.27,0,0,1,.27-.26.26.26,0,0,1,.24.16h1.76l1.54,1.48V24.17l-1.35-1.3H17.68a.25.25,0,0,1-.24.16.26.26,0,0,1-.27-.25.27.27,0,0,1,.51-.1h3.21l1.47,1.41v1.7l1.17,1.13,1.61-1.55h1.35a3,3,0,0,0,.54-.46h0a3.62,3.62,0,0,0,.62-.9h-.61l-.47.69h0l.47-.69H23.89a.27.27,0,0,1-.24.15.26.26,0,0,1-.27-.25.27.27,0,0,1,.27-.26.28.28,0,0,1,.24.16h3.29L28,22.66l0-.23a2.1,2.1,0,0,0-.05-.43l0-.15a1.42,1.42,0,0,0-.05-.22h-.23l-.76.74H21.86l-1.49-1.44h-.06A3,3,0,0,1,19.89,21Z"/><path class="cls-4" d="M27.18,23.81h.56A3.18,3.18,0,0,0,28,22.66l-.61.9Z"/><polygon class="cls-4" points="22.36 26.07 22.36 27.15 23.3 27.15 23.39 27.06 22.36 26.07"/><path class="cls-4" d="M24.81,26a3.51,3.51,0,0,0,.92-.2l.08,0,.37-.18h-.95Z"/><path class="cls-4" d="M23.38,27.34h-1V28.7h.71l.09-.07a4.31,4.31,0,0,0,1-1.48h-.58Z"/><path class="cls-4" d="M20.6,20.88,22,22.17h4.78l.56-.54H22.81l-1-.92a3.09,3.09,0,0,1-.32-.14A4.42,4.42,0,0,1,20.6,20.88Z"/><path class="cls-4" d="M24.23,27a5.47,5.47,0,0,0,.15-.58l-.6.58Z"/><path class="cls-4" d="M27.07,10.92l-.4-.38c0,.12-.05.25-.08.38Z"/><path class="cls-4" d="M21,8.13H18.69L17,9.73v.75h.81l1.28-1.23h.79A9,9,0,0,1,21,8.13Z"/><path class="cls-4" d="M22.36,29.24a5.36,5.36,0,0,0,.49-.34h-.49Z"/><path class="cls-4" d="M20.43,7.29a.26.26,0,0,1-.25.16.26.26,0,0,1-.26-.25.26.26,0,0,1,.26-.26.28.28,0,0,1,.25.16h2.46l.16,0-.43-.42L22,6.85h0l.63-.21,0,0h-6.5l0,0v3.83h.78V9.65l1.77-1.71h2.63a5.26,5.26,0,0,1,1.12-.65Z"/><path class="cls-4" d="M28.15,11.48s0,0,0-.06l0-.14c0-.06,0-.12,0-.16h-.67l.38.36Z"/><path class="cls-4" d="M24.73,7.1h1.71a4,4,0,0,0-.56-.35,4.28,4.28,0,0,0-.94-.37,5,5,0,0,0-.77-.13h0L24,6.15l-.93.32-.28.09.46.45A3,3,0,0,1,24.73,7.1Z"/><path class="cls-4" d="M16.84,10.68h-.78V12a3,3,0,0,1,.78.08Z"/><path class="cls-4" d="M27.47,21h0a2.11,2.11,0,0,0,.31-.21h0L28,20.6h0l0,0,.05,0a4.76,4.76,0,0,1-.77.31Z"/><path class="cls-4" d="M26.25,7.69h.86a5.33,5.33,0,0,0-.42-.4H25.2a2.9,2.9,0,0,1,.81.63Z"/><path class="cls-4" d="M22.66,4.82h-2a.25.25,0,0,1-.24.16.26.26,0,0,1-.26-.26.26.26,0,0,1,.26-.25.25.25,0,0,1,.24.16h2.06L24.15,6h0a4.48,4.48,0,0,0-.35-1.35,3.66,3.66,0,0,0-.63-1l0,0H20.2L18.77,5H17.45a.28.28,0,0,1-.25.16.26.26,0,0,1-.26-.26.26.26,0,0,1,.26-.25.26.26,0,0,1,.25.16h1.24l1.43-1.38H23l-.05,0-.07-.09A4.6,4.6,0,0,0,19.77,2a4.8,4.8,0,0,0-1.5.25L18,2.36a3.4,3.4,0,0,0-.69.41l-.11.11a2.85,2.85,0,0,0-.41.44,4.94,4.94,0,0,0-.77,2.35v.7l0,0h6.58l.16.15L24,6.15Z"/><path class="cls-4" d="M27.35,10.92h.88c0-.1,0-.21,0-.32v-.16a2.73,2.73,0,0,0,0-.41H27.15a.28.28,0,0,1-.24.16.26.26,0,0,1-.2-.1,1.48,1.48,0,0,1,0,.21Z"/><path class="cls-4" d="M26.91,9.68a.27.27,0,0,1,.24.15h1a4.28,4.28,0,0,0-.58-1.52c-.06-.09-.13-.17-.19-.25L27.3,7.9l0,0h-.94l-.21.2a3,3,0,0,1,.59,1.67A.29.29,0,0,1,26.91,9.68Z"/><path class="cls-4" d="M19.6,21a3.23,3.23,0,0,1-1.37-.28s0,.06,0,.09a3.28,3.28,0,0,1-.2.52h1.24Z"/><path class="cls-4" d="M29.69,14.17h0l.05,0Z"/><path class="cls-4" d="M19.77,9.44h-.56l-1.28,1.24H17v1.41a2.87,2.87,0,0,1,.89.41A17.1,17.1,0,0,1,19.77,9.44Z"/><path class="cls-4" d="M26.22,12a4.07,4.07,0,0,1,2.26.88h.36l-.11-.14-.18-.19-.36-.32L28,12a3.07,3.07,0,0,0,.11-.36h-.25l-.58-.55h-.73a6.36,6.36,0,0,1-.24.69A.89.89,0,0,0,26.22,12Z"/><path class="cls-4" d="M24.75,20.67A3.81,3.81,0,0,1,23.1,21a3.86,3.86,0,0,1-.77-.11l.56.54h4.6l.17-.16-.06-.13h-.21l-.27-.26a3.73,3.73,0,0,1-2.37-.22Z"/><path class="cls-4" d="M29.3,14h.3a.83.83,0,0,0-.07-.13,3.72,3.72,0,0,0-.22-.38L29,13.06h-.3a2.71,2.71,0,0,1,.47.6A1.83,1.83,0,0,1,29.3,14Z"/></svg>