<svg width="146" height="27" viewBox="0 0 146 27" fill="none" xmlns="http://www.w3.org/2000/svg">
<path d="M28.3159 26.139C28.6463 25.5772 28.9345 24.9916 29.178 24.387C29.4042 23.7417 29.5198 23.0628 29.5199 22.379C29.5129 20.251 29.5199 18.123 29.5199 15.994V15.408C27.5439 15.808 25.629 16.197 23.72 16.596C23.264 16.696 22.6049 16.696 22.4199 16.986C22.2279 17.286 22.646 17.832 22.803 18.268C23.431 20.009 24.0689 21.746 24.7029 23.487C25.0718 24.4106 25.5509 25.2863 26.1299 26.095C25.9819 26.253 25.8169 26.195 25.6749 26.2C23.5589 26.2 21.4419 26.193 19.3269 26.212C18.9189 26.212 18.7899 26.13 18.8409 25.697C18.9037 24.8371 18.7697 23.9743 18.449 23.174C17.941 21.7 17.4119 20.234 16.9099 18.758C16.7909 18.407 16.6789 18.271 16.2589 18.407C13.8963 19.0976 11.5782 19.9325 9.31787 20.907C8.48011 21.2921 7.72464 21.8354 7.0929 22.507C6.29254 23.4084 5.87593 24.5868 5.93188 25.791C5.93188 25.973 6.03195 26.201 5.69995 26.201C4.08095 26.201 2.4619 26.201 0.826904 26.201C2.7959 22.63 3.79192 18.747 5.19592 15.024C6.59992 11.301 7.91988 7.51499 9.27588 3.75799C9.68809 2.78502 9.88824 1.73537 9.86292 0.678992C9.84091 0.384992 9.98093 0.365988 10.2059 0.366988C12.1259 0.366988 14.0459 0.381992 15.9659 0.359992C16.3779 0.354992 16.3809 0.638991 16.4659 0.875991C17.9633 4.97532 19.4539 9.07532 20.9379 13.176C21.0989 13.625 21.2459 13.757 21.7629 13.641C24.1849 13.096 26.6189 12.605 29.0549 12.121C29.4129 12.05 29.536 11.943 29.533 11.569C29.515 9.02999 29.5279 6.49199 29.5189 3.95399C29.5189 2.81599 29.374 2.42599 28.356 0.453986C28.47 0.295986 28.6409 0.373992 28.7799 0.373992C32.2869 0.373992 35.7939 0.353987 39.3019 0.381987C41.1477 0.347732 42.9812 0.687912 44.6919 1.38199C45.5916 1.70443 46.378 2.28176 46.9551 3.04355C47.5322 3.80533 47.875 4.71862 47.9419 5.67199C48.0464 6.60087 47.8918 7.54056 47.495 8.38692C47.0982 9.23327 46.4749 9.95322 45.694 10.467C44.944 10.981 44.1451 11.4198 43.309 11.777C44.26 12.0529 45.1817 12.4214 46.0609 12.877C47.0935 13.3643 47.9655 14.1362 48.5747 15.1019C49.1839 16.0677 49.5048 17.1872 49.4999 18.329C49.5917 19.5656 49.3333 20.8031 48.7543 21.8997C48.1752 22.9962 47.299 23.9075 46.226 24.529C44.398 25.576 42.3275 26.1256 40.2209 26.123C36.3429 26.208 32.4629 26.172 28.5829 26.184C28.4929 26.1758 28.4037 26.1607 28.3159 26.139ZM35.2849 18.682C35.2849 19.988 35.2849 21.294 35.2849 22.601C35.2849 22.841 35.291 23.006 35.616 23.001C36.9255 23.0454 38.2365 23.0006 39.5399 22.867C41.0599 22.617 42.466 22.11 43.116 20.572C43.4753 19.8604 43.6303 19.0632 43.564 18.2689C43.4976 17.4745 43.2123 16.7141 42.7399 16.072C42.1921 15.3801 41.4921 14.8241 40.6942 14.4472C39.8963 14.0703 39.0222 13.8827 38.1399 13.899C37.3229 13.9656 36.5129 14.0994 35.7179 14.299C35.3639 14.349 35.279 14.499 35.283 14.83C35.291 16.108 35.2809 17.395 35.2809 18.681L35.2849 18.682ZM35.277 7.22899C35.277 8.34099 35.277 9.45299 35.277 10.565C35.277 10.738 35.1979 10.994 35.5419 10.926C37.1542 10.7418 38.7279 10.3069 40.2059 9.63698C40.8108 9.34628 41.3074 8.87075 41.6241 8.27914C41.9409 7.68754 42.0613 7.01052 41.9679 6.34599C41.8791 5.72139 41.5965 5.1404 41.16 4.68489C40.7235 4.22938 40.1552 3.92232 39.5349 3.80699C38.2327 3.52666 36.8955 3.44573 35.569 3.56698C35.225 3.57498 35.2749 3.79998 35.2749 4.01098C35.2729 5.08298 35.2723 6.15532 35.2729 7.22799L35.277 7.22899ZM12.366 5.85898L8.11694 18.149C9.19645 17.4074 10.3781 16.827 11.6249 16.426C12.8059 16.026 13.995 15.639 15.184 15.261C15.449 15.177 15.641 15.129 15.512 14.766C14.47 11.852 13.4459 8.93398 12.3619 5.85799L12.366 5.85898Z" fill="white"/>
<path d="M84.5919 26.215C85.3538 24.7637 85.6815 23.1237 85.5359 21.491C85.5252 15.927 85.5252 10.3624 85.5359 4.79704C85.6451 3.26733 85.3269 1.73737 84.6168 0.378038H85.2549C88.3695 0.378038 91.4845 0.378038 94.5999 0.378038C96.4233 0.329275 98.2408 0.606284 99.9669 1.19604C100.653 1.4042 101.291 1.74563 101.846 2.20079C102.4 2.65596 102.859 3.21592 103.196 3.84863C103.533 4.48135 103.743 5.1744 103.812 5.88812C103.881 6.60184 103.809 7.32222 103.6 8.00804C103.386 8.71176 103.027 9.36241 102.544 9.91734C102.062 10.4723 101.467 10.9189 100.8 11.228C100.4 11.45 99.9699 11.628 99.4689 11.872C100.054 12.088 100.56 12.255 101.049 12.46C104.029 13.706 105.449 15.7 105.425 18.603C105.474 20.0424 105.058 21.4593 104.24 22.6444C103.421 23.8295 102.243 24.7199 100.88 25.184C99.4387 25.7518 97.9118 26.0717 96.3639 26.13C92.4899 26.296 88.6109 26.175 84.5919 26.215ZM91.2859 18.515C91.2859 19.881 91.2859 21.246 91.2859 22.615C91.2859 22.826 91.1859 23.107 91.5859 23.102C93.072 23.1791 94.562 23.098 96.0309 22.86C96.7113 22.7626 97.3561 22.4948 97.9054 22.0815C98.4547 21.6682 98.8907 21.1229 99.1729 20.496C99.4453 19.8979 99.5821 19.247 99.5736 18.5898C99.5651 17.9326 99.4115 17.2854 99.1237 16.6945C98.8359 16.1036 98.421 15.5836 97.9088 15.1717C97.3966 14.7599 96.7998 14.4663 96.1609 14.312C94.7203 14.0334 93.2513 13.9297 91.7859 14.003C91.3549 13.989 91.2658 14.146 91.2728 14.539C91.2988 15.86 91.2859 17.187 91.2859 18.513V18.515ZM91.2859 7.13803C91.2859 8.21103 91.2859 9.28403 91.2859 10.356C91.2859 10.62 91.3049 10.798 91.6539 10.79C92.7103 10.8142 93.7671 10.7808 94.8198 10.69C95.6613 10.6563 96.4577 10.3008 97.0448 9.69702C97.6319 9.09322 97.9648 8.28713 97.9749 7.44504C98.0505 7.0238 98.0409 6.59168 97.9465 6.17423C97.8522 5.75679 97.6751 5.36251 97.4257 5.01473C97.1762 4.66695 96.8596 4.37274 96.4945 4.14949C96.1294 3.92625 95.7232 3.77852 95.2999 3.71504C94.0636 3.51532 92.8091 3.4506 91.5588 3.52204C91.2478 3.51404 91.2909 3.73104 91.2909 3.92204C91.2862 4.99204 91.2846 6.06337 91.2859 7.13603V7.13803Z" fill="white"/>
<path d="M118.083 18.148C116.359 18.148 114.635 18.162 112.912 18.139C112.469 18.133 112.412 18.246 112.495 18.663C113.005 21.23 114.695 22.587 117.602 22.752C119.544 22.8654 121.483 22.47 123.226 21.605C123.618 21.414 123.782 21.4619 123.949 21.8749C124.292 22.7219 124.682 23.5519 125.085 24.3749C125.249 24.7079 125.206 24.8609 124.866 25.0389C123.25 25.8847 121.483 26.402 119.666 26.561C117.303 26.8459 114.906 26.5761 112.666 25.773C111.211 25.254 109.931 24.3367 108.972 23.1256C108.012 21.9145 107.413 20.4583 107.241 18.923C106.902 17.0317 107.012 15.0874 107.56 13.246C108.034 11.5981 109.009 10.1388 110.351 9.07121C111.693 8.00356 113.334 7.3806 115.046 7.28896C116.685 7.10981 118.344 7.24179 119.934 7.67796C121.385 8.08269 122.684 8.90849 123.666 10.051C124.648 11.1935 125.269 12.6015 125.451 14.097C125.632 15.0965 125.699 16.1133 125.651 17.128C125.633 17.599 125.415 17.758 124.997 17.835C123.584 18.0508 122.156 18.1541 120.726 18.144C119.846 18.166 118.969 18.148 118.083 18.148ZM116.337 15.018C117.296 15.018 118.254 15.018 119.212 15.018C120.386 15.018 120.386 15.018 120.159 13.851C120.061 12.9773 119.652 12.168 119.007 11.5709C118.362 10.9738 117.524 10.6288 116.645 10.599C115.758 10.5136 114.871 10.758 114.153 11.2854C113.435 11.8127 112.936 12.5862 112.752 13.458C112.633 13.847 112.587 14.258 112.473 14.649C112.373 14.998 112.533 15.029 112.816 15.027C113.989 15.012 115.163 15.018 116.336 15.018H116.337Z" fill="white"/>
<path d="M82.137 26.1751H74.8939C74.8169 25.9751 74.9669 25.8691 75.0359 25.7411C75.5956 24.7319 75.8843 23.595 75.8739 22.4411C75.8449 20.0011 75.8659 17.5591 75.8639 15.1181C75.8639 14.7871 75.864 14.4531 75.835 14.1181C75.8177 13.4434 75.5363 12.8025 75.0514 12.3331C74.5665 11.8637 73.9168 11.6034 73.2419 11.6081C72.5375 11.5559 71.8299 11.6469 71.1615 11.8754C70.4931 12.104 69.8779 12.4655 69.3529 12.9381C69.2387 13.0253 69.1474 13.1389 69.0868 13.2692C69.0262 13.3995 68.998 13.5425 69.0049 13.6861C69.0199 16.7321 69.0139 19.7791 69.0139 22.8261C69.0706 24.0118 69.4408 25.1612 70.0869 26.1571H62.799C62.963 25.8321 63.118 25.5451 63.256 25.2501C63.6524 24.4212 63.8575 23.5139 63.856 22.5951C63.842 19.0211 63.831 15.4471 63.861 11.8741C63.8791 10.6408 63.5614 9.42571 62.9419 8.35908C62.896 8.27449 62.855 8.18735 62.819 8.09808C62.813 8.08508 62.8309 8.06208 62.8539 8.00608C64.7919 8.00608 66.7449 8.00608 68.6979 8.00608C68.9749 8.00608 69.0189 8.12908 69.0149 8.36108C69.0049 8.92208 69.0149 9.48308 69.0149 10.1311C69.5918 9.66855 70.1955 9.24047 70.8229 8.84908C72.7468 7.69952 75.0461 7.35391 77.2229 7.88708C79.5849 8.44208 80.962 10.2631 81.001 12.9431C81.04 15.6231 81.0369 18.2941 81.0079 20.9701C80.9849 22.7691 80.957 24.5601 82.137 26.1751Z" fill="white"/>
<path d="M136.019 20.8391C136.335 20.0031 136.609 19.2811 136.881 18.5581C137.794 16.1334 138.706 13.7088 139.618 11.2841C140.115 10.2716 140.215 9.10977 139.899 8.0271H145.352C145.094 8.3931 144.852 8.7101 144.638 9.0441C143.82 10.4626 143.14 11.9564 142.608 13.5051C141.281 16.7718 139.96 20.0401 138.644 23.3101C138.295 24.1156 138.053 24.9636 137.925 25.8321C137.889 26.1321 137.766 26.2201 137.472 26.2171C136.12 26.2041 134.772 26.1961 133.417 26.2171C133.055 26.2231 132.964 26.0351 132.853 25.7671C130.909 21.0691 128.962 16.3728 127.013 11.6781C126.522 10.3546 125.806 9.12556 124.898 8.0451H132.018C131.686 9.06895 131.769 10.1824 132.251 11.1451C133.491 14.3391 134.731 17.5241 136.019 20.8391Z" fill="white"/>
<path d="M52.1919 0.389893H60.3868C60.4488 0.602893 60.2799 0.719892 60.2009 0.862892C59.5641 1.9866 59.2295 3.25626 59.2299 4.54789C59.2499 10.3279 59.2499 16.1079 59.2299 21.8879C59.2108 23.2777 59.5718 24.6463 60.2739 25.8459C60.3289 25.9459 60.4308 26.0249 60.3878 26.1819H52.3088C52.2678 25.9369 52.4369 25.8029 52.5249 25.6389C53.1285 24.5404 53.4472 23.3083 53.4519 22.0549C53.4412 16.1776 53.4412 10.3002 53.4519 4.42289C53.4187 2.98695 52.982 1.58935 52.1919 0.389893Z" fill="white"/>
</svg>
