<svg width="61" height="49" viewBox="0 0 61 49" fill="none" xmlns="http://www.w3.org/2000/svg">
<path d="M60.3438 43.0312L34.9375 23.3438C39.625 21.6562 43 17.25 43 12C43 5.4375 37.5625 0 31 0C24.625 0 19.5625 4.875 19.0938 11.0625L5.21875 0.375C4.5625 -0.1875 3.625 0 3.15625 0.65625L1.28125 3C0.8125 3.65625 0.90625 4.59375 1.5625 5.0625L56.6875 47.7188C57.3438 48.1875 58.2812 48.0938 58.8438 47.4375L60.625 45.0938C61.1875 44.4375 61 43.5 60.3438 43.0312ZM10 39.6562V43.5C10 46.0312 11.9688 48 14.5 48H47.3125L20.4062 27.2812C14.5 28.3125 10 33.375 10 39.6562Z" fill="url(#paint0_linear)"/>
<defs>
<linearGradient id="paint0_linear" x1="31" y1="0" x2="31" y2="48" gradientUnits="userSpaceOnUse">
<stop stop-color="#EB2228"/>
<stop offset="1" stop-color="#DC1A5E"/>
</linearGradient>
</defs>
</svg>
