<svg width="23" height="22" viewBox="0 0 23 22" fill="none" xmlns="http://www.w3.org/2000/svg">
<path d="M22.1562 10.75C22.1562 4.86328 17.3867 0.09375 11.5 0.09375C5.61328 0.09375 0.84375 4.86328 0.84375 10.75C0.84375 16.6367 5.61328 21.4062 11.5 21.4062C17.3867 21.4062 22.1562 16.6367 22.1562 10.75ZM2.90625 10.75C2.90625 6.02344 6.73047 2.15625 11.5 2.15625C16.2266 2.15625 20.0938 6.02344 20.0938 10.75C20.0938 15.5195 16.2266 19.3438 11.5 19.3438C6.73047 19.3438 2.90625 15.5195 2.90625 10.75ZM6 11.6094C6 11.9102 6.21484 12.125 6.51562 12.125H11.5V15.0039C11.5 15.4766 12.0156 15.7344 12.3594 15.3906L16.6133 11.1367C16.8281 10.9219 16.8281 10.6211 16.6133 10.4062L12.3594 6.15234C12.0156 5.80859 11.5 6.06641 11.5 6.49609V9.375H6.51562C6.21484 9.375 6 9.63281 6 9.89062V11.6094Z" fill="#397EB7"/>
</svg>
