<svg width="215" height="79" viewBox="0 0 215 79" fill="none" xmlns="http://www.w3.org/2000/svg">
<path d="M85.0979 42.2275C85.8818 42.7195 86.5232 43.406 86.9591 44.2193C87.3949 45.0327 87.6101 45.9448 87.5835 46.8659C87.5726 47.5553 87.4191 48.235 87.1326 48.8629C86.8461 49.4908 86.4327 50.0534 85.918 50.5157C84.9046 51.4919 83.5428 52.0285 82.1317 52.0077H75.1665C75.1442 52.011 75.1213 52.0091 75.0999 52.0021C75.0784 51.995 75.0589 51.9831 75.0428 51.9673C75.0268 51.9514 75.0147 51.932 75.0075 51.9107C75.0003 51.8894 74.9983 51.8667 75.0015 51.8445V34.2158C74.9983 34.1936 75.0003 34.1709 75.0075 34.1496C75.0147 34.1283 75.0268 34.1089 75.0428 34.0931C75.0589 34.0772 75.0784 34.0653 75.0999 34.0583C75.1213 34.0513 75.1442 34.0494 75.1665 34.0527H81.6771C82.9473 34.0584 84.1649 34.5573 85.0702 35.4428C85.9755 36.3283 86.4969 37.5303 86.523 38.7924C86.5424 39.4325 86.4254 40.0693 86.1798 40.6613C85.9342 41.2533 85.5655 41.787 85.0979 42.2275ZM77.2996 41.4003H81.6771C82.3533 41.4003 83.0018 41.1333 83.4799 40.6581C83.9581 40.1829 84.2267 39.5384 84.2267 38.8663C84.2267 38.1943 83.9581 37.5498 83.4799 37.0745C83.0018 36.5993 82.3533 36.3324 81.6771 36.3324H77.2996V41.4003ZM82.2449 49.7271C82.6477 49.7339 83.048 49.6609 83.4221 49.5123C83.7963 49.3638 84.1369 49.1427 84.4242 48.8619C84.7115 48.5812 84.9397 48.2464 85.0955 47.877C85.2512 47.5077 85.3314 47.1113 85.3314 46.7109C85.3314 46.3104 85.2512 45.914 85.0955 45.5447C84.9397 45.1753 84.7115 44.8406 84.4242 44.5598C84.1369 44.2791 83.7963 44.0579 83.4221 43.9094C83.048 43.7608 82.6477 43.6878 82.2449 43.6946H77.2996V49.7271H82.2449Z" fill="white" stroke="white" stroke-miterlimit="10"/>
<path d="M104.387 34.0518C106.48 34.0492 108.51 34.7684 110.13 36.0866C111.749 37.4049 112.859 39.2407 113.269 41.2811C113.68 43.3215 113.365 45.4402 112.38 47.276C111.394 49.1118 109.799 50.5511 107.865 51.3486C105.931 52.1461 103.779 52.2523 101.776 51.6492C99.7718 51.0461 98.0405 49.7711 96.8769 48.0413C95.7132 46.3116 95.1891 44.2343 95.394 42.1635C95.5989 40.0928 96.5201 38.1567 98.0004 36.6854C98.8273 35.836 99.8205 35.164 100.919 34.711C102.017 34.2581 103.197 34.0337 104.387 34.0518ZM104.387 49.7151C105.941 49.7147 107.448 49.1785 108.649 48.1979C109.851 47.2173 110.673 45.853 110.976 44.3374C111.279 42.8218 111.044 41.2486 110.311 39.886C109.578 38.5233 108.392 37.4555 106.955 36.8644C105.519 36.2733 103.921 36.1956 102.433 36.6444C100.945 37.0932 99.6599 38.0408 98.7963 39.3257C97.9327 40.6107 97.544 42.1535 97.6966 43.6913C97.8492 45.229 98.5335 46.6667 99.633 47.7592C100.25 48.3892 100.99 48.8876 101.807 49.2239C102.624 49.5601 103.502 49.7273 104.387 49.7151Z" fill="white" stroke="white" stroke-miterlimit="10"/>
<path d="M132.507 49.715C132.53 49.7118 132.552 49.7138 132.574 49.721C132.595 49.7281 132.615 49.7401 132.631 49.756C132.647 49.772 132.659 49.7914 132.666 49.8127C132.673 49.8341 132.675 49.8568 132.671 49.879V51.8478C132.675 51.87 132.673 51.8927 132.666 51.914C132.659 51.9353 132.647 51.9547 132.631 51.9706C132.615 51.9864 132.595 51.9984 132.574 52.0054C132.552 52.0124 132.53 52.0143 132.507 52.011H122.463C122.44 52.0141 122.418 52.0121 122.396 52.005C122.375 51.9979 122.356 51.986 122.34 51.9702C122.324 51.9543 122.312 51.935 122.305 51.9138C122.297 51.8926 122.295 51.87 122.299 51.8478V34.202C122.295 34.1798 122.297 34.1572 122.305 34.136C122.312 34.1147 122.324 34.0954 122.34 34.0796C122.356 34.0638 122.375 34.0518 122.396 34.0447C122.418 34.0377 122.44 34.0356 122.463 34.0388H124.445C124.467 34.0356 124.49 34.0377 124.511 34.0447C124.532 34.0518 124.552 34.0638 124.568 34.0796C124.584 34.0954 124.596 34.1147 124.603 34.136C124.61 34.1572 124.612 34.1798 124.609 34.202V49.715H132.507Z" fill="white" stroke="white" stroke-miterlimit="10"/>
<path d="M151.14 34.0518C151.162 34.0487 151.185 34.0507 151.207 34.0578C151.228 34.0649 151.247 34.0768 151.263 34.0926C151.279 34.1085 151.291 34.1278 151.298 34.149C151.305 34.1702 151.308 34.1928 151.304 34.215V36.1709C151.308 36.1931 151.305 36.2157 151.298 36.2369C151.291 36.2581 151.279 36.2774 151.263 36.2933C151.247 36.3091 151.228 36.321 151.207 36.3281C151.185 36.3352 151.162 36.3372 151.14 36.3341H146.408V51.8471C146.412 51.8693 146.41 51.892 146.403 51.9133C146.396 51.9346 146.384 51.954 146.368 51.9699C146.352 51.9857 146.332 51.9977 146.311 52.0047C146.289 52.0117 146.266 52.0136 146.244 52.0103H144.276C144.254 52.0136 144.231 52.0117 144.209 52.0047C144.188 51.9976 144.168 51.9857 144.152 51.9699C144.136 51.954 144.124 51.9347 144.117 51.9134C144.11 51.892 144.108 51.8693 144.111 51.8471V36.3341H139.367C139.345 36.3372 139.322 36.3352 139.301 36.3281C139.279 36.321 139.26 36.3091 139.244 36.2933C139.228 36.2774 139.216 36.2581 139.209 36.2369C139.202 36.2157 139.2 36.1931 139.203 36.1709V34.215C139.2 34.1928 139.202 34.1702 139.209 34.149C139.216 34.1278 139.228 34.1085 139.244 34.0926C139.26 34.0768 139.279 34.0649 139.301 34.0578C139.322 34.0507 139.345 34.0487 139.367 34.0518H151.14Z" fill="white" stroke="white" stroke-miterlimit="10"/>
<path d="M91.738 24.138C91.738 23.93 91.7 23.744 91.624 23.58C91.552 23.412 91.446 23.272 91.306 23.16C91.17 23.044 91.004 22.956 90.808 22.896C90.616 22.832 90.402 22.8 90.166 22.8H88.594V27H89.068V25.518H90.088C90.312 25.518 90.524 25.49 90.724 25.434C90.924 25.374 91.098 25.286 91.246 25.17C91.398 25.054 91.518 24.91 91.606 24.738C91.694 24.566 91.738 24.366 91.738 24.138ZM91.258 24.156C91.258 24.296 91.23 24.424 91.174 24.54C91.122 24.652 91.044 24.75 90.94 24.834C90.84 24.914 90.718 24.976 90.574 25.02C90.434 25.064 90.278 25.086 90.106 25.086H89.068V23.238H90.13C90.47 23.238 90.742 23.316 90.946 23.472C91.154 23.624 91.258 23.852 91.258 24.156ZM96.6998 24.894C96.6998 24.602 96.6478 24.326 96.5438 24.066C96.4438 23.802 96.2998 23.572 96.1118 23.376C95.9238 23.176 95.6978 23.018 95.4338 22.902C95.1738 22.786 94.8838 22.728 94.5638 22.728C94.2438 22.728 93.9518 22.788 93.6878 22.908C93.4238 23.024 93.1978 23.182 93.0098 23.382C92.8218 23.582 92.6758 23.814 92.5718 24.078C92.4678 24.338 92.4158 24.614 92.4158 24.906C92.4158 25.198 92.4658 25.476 92.5658 25.74C92.6698 26 92.8158 26.23 93.0038 26.43C93.1918 26.626 93.4158 26.782 93.6758 26.898C93.9398 27.014 94.2318 27.072 94.5518 27.072C94.8718 27.072 95.1638 27.014 95.4278 26.898C95.6918 26.778 95.9178 26.618 96.1058 26.418C96.2938 26.218 96.4398 25.988 96.5438 25.728C96.6478 25.464 96.6998 25.186 96.6998 24.894ZM96.2078 24.906C96.2078 25.146 96.1658 25.372 96.0818 25.584C96.0018 25.792 95.8898 25.974 95.7458 26.13C95.6018 26.286 95.4278 26.41 95.2238 26.502C95.0238 26.59 94.8038 26.634 94.5638 26.634C94.3238 26.634 94.1018 26.588 93.8978 26.496C93.6978 26.404 93.5238 26.28 93.3758 26.124C93.2278 25.968 93.1118 25.784 93.0278 25.572C92.9478 25.36 92.9078 25.134 92.9078 24.894C92.9078 24.654 92.9478 24.43 93.0278 24.222C93.1118 24.01 93.2258 23.826 93.3698 23.67C93.5138 23.514 93.6858 23.392 93.8858 23.304C94.0898 23.212 94.3118 23.166 94.5518 23.166C94.7918 23.166 95.0118 23.212 95.2118 23.304C95.4158 23.396 95.5918 23.52 95.7398 23.676C95.8878 23.832 96.0018 24.016 96.0818 24.228C96.1658 24.44 96.2078 24.666 96.2078 24.906ZM98.8747 26.298L97.6747 22.8H97.1587L98.6587 27.03H99.0547L100.213 23.622L101.365 27.03H101.767L103.267 22.8H102.769L101.569 26.298L100.417 22.788H100.027L98.8747 26.298ZM107.163 22.8H104.127V27H107.193V26.568H104.601V25.098H106.893V24.666H104.601V23.232H107.163V22.8ZM111.621 27L110.331 25.284C110.495 25.256 110.647 25.208 110.787 25.14C110.927 25.072 111.047 24.988 111.147 24.888C111.251 24.784 111.331 24.664 111.387 24.528C111.443 24.388 111.471 24.23 111.471 24.054C111.471 23.866 111.435 23.696 111.363 23.544C111.291 23.388 111.189 23.256 111.057 23.148C110.925 23.036 110.765 22.95 110.577 22.89C110.393 22.83 110.185 22.8 109.953 22.8H108.147V27H108.621V25.368H109.821L111.039 27H111.621ZM110.991 24.072C110.991 24.208 110.963 24.33 110.907 24.438C110.855 24.546 110.781 24.638 110.685 24.714C110.589 24.786 110.475 24.842 110.343 24.882C110.211 24.922 110.067 24.942 109.911 24.942H108.621V23.238H109.917C110.257 23.238 110.521 23.312 110.709 23.46C110.897 23.604 110.991 23.808 110.991 24.072ZM115.519 22.8H112.483V27H115.549V26.568H112.957V25.098H115.249V24.666H112.957V23.232H115.519V22.8ZM120.192 24.894C120.192 24.598 120.138 24.322 120.03 24.066C119.922 23.81 119.768 23.588 119.568 23.4C119.372 23.212 119.136 23.066 118.86 22.962C118.588 22.854 118.288 22.8 117.96 22.8H116.502V27H117.96C118.288 27 118.588 26.946 118.86 26.838C119.136 26.73 119.372 26.582 119.568 26.394C119.768 26.206 119.922 25.984 120.03 25.728C120.138 25.468 120.192 25.19 120.192 24.894ZM119.7 24.906C119.7 25.142 119.658 25.36 119.574 25.56C119.494 25.76 119.378 25.936 119.226 26.088C119.078 26.236 118.896 26.352 118.68 26.436C118.464 26.52 118.224 26.562 117.96 26.562H116.976V23.238H117.96C118.224 23.238 118.464 23.282 118.68 23.37C118.896 23.454 119.078 23.572 119.226 23.724C119.378 23.872 119.494 24.048 119.574 24.252C119.658 24.456 119.7 24.674 119.7 24.906ZM124.782 22.8H122.994V27H124.86C125.088 27 125.296 26.974 125.484 26.922C125.672 26.87 125.832 26.796 125.964 26.7C126.1 26.6 126.204 26.478 126.276 26.334C126.348 26.19 126.384 26.028 126.384 25.848C126.384 25.704 126.36 25.576 126.312 25.464C126.264 25.352 126.2 25.256 126.12 25.176C126.04 25.096 125.944 25.028 125.832 24.972C125.724 24.912 125.608 24.864 125.484 24.828C125.568 24.792 125.648 24.748 125.724 24.696C125.804 24.64 125.876 24.572 125.94 24.492C126.004 24.412 126.054 24.32 126.09 24.216C126.13 24.112 126.15 23.99 126.15 23.85C126.15 23.69 126.118 23.546 126.054 23.418C125.99 23.286 125.898 23.176 125.778 23.088C125.658 22.996 125.514 22.926 125.346 22.878C125.178 22.826 124.99 22.8 124.782 22.8ZM124.704 24.672H123.462V23.226H124.74C125.04 23.226 125.27 23.288 125.43 23.412C125.59 23.536 125.67 23.704 125.67 23.916C125.67 24.164 125.58 24.352 125.4 24.48C125.22 24.608 124.988 24.672 124.704 24.672ZM124.872 26.574H123.462V25.092H124.788C125.156 25.092 125.434 25.156 125.622 25.284C125.81 25.408 125.904 25.586 125.904 25.818C125.904 26.058 125.812 26.244 125.628 26.376C125.444 26.508 125.192 26.574 124.872 26.574ZM128.937 25.332L130.683 22.8H130.131L128.703 24.9L127.287 22.8H126.711L128.457 25.338V27H128.937V25.332Z" fill="white"/>
<path d="M162.672 36.188L162.807 35.2526C162.814 35.1559 162.841 35.0618 162.886 34.9756C162.93 34.8893 162.992 34.8127 163.066 34.7501C163.118 34.7118 163.177 34.6844 163.24 34.6696C163.303 34.6548 163.368 34.653 163.432 34.6642H163.439C163.53 34.6744 163.616 34.7106 163.687 34.7686C163.758 34.8265 163.81 34.9036 163.838 34.9906C163.88 34.8841 163.959 34.7954 164.06 34.7397C164.16 34.684 164.277 34.6646 164.391 34.6848H164.397C164.768 34.7372 164.911 35.0627 164.845 35.5188L164.706 36.4783L162.672 36.188ZM163.614 35.4639C163.642 35.268 163.596 35.1349 163.441 35.1134C163.306 35.0937 163.216 35.1864 163.19 35.3711L163.127 35.81L163.56 35.8701L163.614 35.4639ZM164.449 35.4639C164.477 35.268 164.424 35.14 164.276 35.1203H164.271C164.134 35.1014 164.035 35.1907 164.002 35.4183L163.929 35.9337L164.375 35.9973L164.449 35.4639Z" fill="white"/>
<path d="M164.358 33.3369L163.229 33.0269L163.348 32.5974L164.466 32.904C164.788 32.9899 164.997 32.8782 165.071 32.6145C165.091 32.5549 165.098 32.4914 165.09 32.4288C165.083 32.3663 165.061 32.3062 165.027 32.2531C164.993 32.1999 164.947 32.1551 164.893 32.1219C164.839 32.0888 164.779 32.0681 164.716 32.0614L163.583 31.7504L163.703 31.321L164.818 31.6267C164.94 31.6445 165.057 31.6894 165.16 31.7581C165.262 31.8269 165.348 31.9177 165.411 32.0238C165.473 32.13 165.511 32.2488 165.521 32.3714C165.531 32.494 165.514 32.6173 165.469 32.7322C165.448 32.8511 165.4 32.9638 165.329 33.0619C165.258 33.16 165.166 33.241 165.059 33.299C164.953 33.3571 164.834 33.3906 164.713 33.3971C164.591 33.4037 164.47 33.3831 164.358 33.3369Z" fill="white"/>
<path d="M165.792 30.6218L165.598 30.2567C165.805 30.1613 165.969 29.9946 166.062 29.7877C166.132 29.6159 166.106 29.4879 165.995 29.4441H165.989C165.884 29.4003 165.802 29.4441 165.591 29.725C165.337 30.0686 165.129 30.267 164.753 30.1124H164.747C164.666 30.0764 164.593 30.0239 164.533 29.9584C164.473 29.8928 164.428 29.8156 164.4 29.7316C164.372 29.6477 164.361 29.5588 164.37 29.4707C164.378 29.3826 164.405 29.2972 164.448 29.2199C164.549 28.9643 164.737 28.7516 164.979 28.6186L165.204 28.9622C165.035 29.0577 164.9 29.2021 164.815 29.3763C164.749 29.5352 164.788 29.6485 164.881 29.6855H164.887C165.012 29.7353 165.084 29.6726 165.304 29.3814C165.563 29.0378 165.789 28.8815 166.12 29.0155H166.127C166.212 29.052 166.289 29.1064 166.352 29.1748C166.414 29.2433 166.462 29.3243 166.49 29.4125C166.519 29.5006 166.528 29.5938 166.517 29.6858C166.507 29.7778 166.476 29.8664 166.428 29.9458C166.307 30.2413 166.081 30.482 165.792 30.6218Z" fill="white"/>
<path d="M165.451 27.1249L165.662 26.7272L167.477 27.6789L167.266 28.0766L165.451 27.1249Z" fill="white"/>
<path d="M166.472 25.3125L166.705 24.9689L168.289 24.8778L167.24 24.1778L167.489 23.8101L169.191 24.9491L168.977 25.2652L167.34 25.3606L168.422 26.0847L168.174 26.4515L166.472 25.3125Z" fill="white"/>
<path d="M168.495 22.5208L169.513 21.3629L169.815 21.6206L169.093 22.4435L169.406 22.7166L170.042 21.9916L170.344 22.2545L169.709 22.9778L170.033 23.2603L170.763 22.4254L171.066 22.6831L170.038 23.8539L168.495 22.5208Z" fill="white"/>
<path d="M171.663 21.6558L171.646 21.2418C171.874 21.2436 172.094 21.1634 172.267 21.0159C172.404 20.8913 172.44 20.7633 172.354 20.6723C172.277 20.5864 172.181 20.5924 171.871 20.7582C171.494 20.9583 171.22 21.0519 170.946 20.7522C170.888 20.6849 170.844 20.6063 170.819 20.5214C170.793 20.4366 170.785 20.3473 170.796 20.2593C170.807 20.1712 170.836 20.0864 170.881 20.0103C170.927 19.9341 170.988 19.8682 171.061 19.8167C171.262 19.6276 171.523 19.5148 171.8 19.4981L171.856 19.9043C171.662 19.9187 171.476 19.9911 171.324 20.1122C171.196 20.2282 171.182 20.3476 171.25 20.4206V20.4257C171.342 20.5245 171.437 20.497 171.759 20.327C172.141 20.1285 172.415 20.0813 172.656 20.3441C172.718 20.4138 172.764 20.4959 172.792 20.5848C172.819 20.6736 172.827 20.7673 172.814 20.8594C172.802 20.9516 172.77 21.0401 172.721 21.1189C172.671 21.1977 172.605 21.2651 172.527 21.3165C172.291 21.5309 171.983 21.6516 171.663 21.6558Z" fill="white"/>
<path d="M173.744 19.8546L173.774 19.4406C174 19.4672 174.228 19.4117 174.416 19.2843C174.565 19.176 174.614 19.0523 174.543 18.9553C174.476 18.8634 174.384 18.8565 174.054 18.9853C173.658 19.1417 173.374 19.2052 173.136 18.8771V18.8711C173.085 18.7979 173.051 18.7151 173.035 18.628C173.018 18.5409 173.021 18.4513 173.041 18.3651C173.062 18.2788 173.1 18.1978 173.154 18.1271C173.208 18.0564 173.276 17.9977 173.353 17.9546C173.575 17.7893 173.848 17.7063 174.125 17.7201L174.135 18.1307C173.941 18.1239 173.749 18.1754 173.584 18.2784C173.443 18.3789 173.417 18.4966 173.475 18.5773C173.555 18.6864 173.648 18.6709 173.994 18.5369C174.395 18.3815 174.672 18.3652 174.882 18.6538C174.936 18.7299 174.973 18.8166 174.99 18.9079C175.007 18.9993 175.004 19.0932 174.981 19.1834C174.959 19.2736 174.917 19.3579 174.859 19.4308C174.801 19.5036 174.728 19.5632 174.645 19.6055C174.385 19.7956 174.065 19.8842 173.744 19.8546Z" fill="white"/>
<path d="M177.365 16.721V16.715C177.266 16.4566 177.27 16.1705 177.376 15.915C177.482 15.6595 177.682 15.4538 177.936 15.3397C178.189 15.2257 178.476 15.2119 178.74 15.3011C179.003 15.3903 179.222 15.5758 179.352 15.8199V15.826C179.451 16.0844 179.447 16.3704 179.341 16.6259C179.235 16.8814 179.035 17.0872 178.781 17.2012C178.528 17.3153 178.241 17.3291 177.977 17.2399C177.714 17.1507 177.495 16.9651 177.365 16.721ZM178.926 16.0235C178.895 15.9465 178.848 15.8765 178.788 15.8178C178.729 15.7591 178.658 15.7129 178.581 15.6819C178.503 15.6509 178.42 15.6357 178.336 15.6373C178.252 15.6389 178.17 15.6572 178.093 15.6911C178.017 15.7246 177.949 15.773 177.892 15.8334C177.836 15.8939 177.792 15.9652 177.764 16.0429C177.736 16.1206 177.724 16.2032 177.729 16.2857C177.734 16.3681 177.755 16.4487 177.792 16.5226V16.5286C177.824 16.6056 177.871 16.6756 177.93 16.7342C177.989 16.7929 178.06 16.839 178.138 16.87C178.215 16.9009 178.299 16.916 178.382 16.9143C178.466 16.9126 178.548 16.8942 178.625 16.8602C178.701 16.8267 178.77 16.7781 178.827 16.7173C178.885 16.6565 178.929 16.5847 178.957 16.5064C178.985 16.4281 178.997 16.3449 178.992 16.2618C178.986 16.1788 178.964 16.0977 178.926 16.0235Z" fill="white"/>
<path d="M180.387 14.3743L181.188 14.1304C181.28 14.0903 181.379 14.0701 181.479 14.0713C181.58 14.0725 181.678 14.095 181.769 14.1373C181.86 14.1796 181.94 14.2408 182.005 14.3166C182.07 14.3925 182.118 14.4813 182.146 14.5771V14.5822C182.175 14.6812 182.183 14.7853 182.17 14.8876C182.156 14.99 182.12 15.0882 182.065 15.1758C182.01 15.2635 181.937 15.3385 181.851 15.3959C181.764 15.4533 181.667 15.4919 181.564 15.509L181.237 15.6087L181.415 16.1928L180.983 16.3233L180.387 14.3743ZM181.463 15.1225C181.507 15.1149 181.549 15.0982 181.586 15.0735C181.623 15.0488 181.654 15.0166 181.678 14.979C181.702 14.9414 181.717 14.8993 181.724 14.8553C181.73 14.8114 181.727 14.7666 181.714 14.7239V14.7179C181.656 14.5255 181.489 14.4602 181.273 14.529L180.939 14.6312L181.122 15.2265L181.463 15.1225Z" fill="white"/>
<path d="M183.923 13.8899L183.308 13.9998L183.234 13.5935L184.906 13.2912L184.981 13.6983L184.366 13.8083L184.658 15.4085L184.214 15.4875L183.923 13.8899Z" fill="white"/>
<path d="M186.348 13.1341L186.797 13.0971L186.97 15.126L186.52 15.1638L186.348 13.1341Z" fill="white"/>
<path d="M188.433 13L188.92 13.012L189.438 13.8873L190 13.0378L190.487 13.049L190.436 15.089L189.987 15.0787L190.02 13.7473L189.42 14.6063H189.409L188.859 13.7301L188.827 15.0529L188.384 15.0435L188.433 13Z" fill="white"/>
<path d="M192.1 13.2259L192.548 13.286L192.268 15.3115L191.819 15.2496L192.1 13.2259Z" fill="white"/>
<path d="M193.68 15.1981L195.085 14.1888L194.02 13.9311L194.112 13.5489L195.741 13.9371L195.661 14.2679L194.257 15.2771L195.354 15.5348L195.262 15.9171L193.599 15.5211L193.68 15.1981Z" fill="white"/>
<path d="M197.897 14.6458L198.285 14.7927L198.372 17.02L197.932 16.8542L197.92 16.3603L197.111 16.0537L196.772 16.4144L196.34 16.2504L197.897 14.6458ZM197.909 15.9343L197.893 15.2213L197.402 15.741L197.909 15.9343Z" fill="white"/>
<path d="M200.392 16.192L199.838 15.9076L200.029 15.5409L201.538 16.314L201.347 16.6807L200.793 16.3964L200.045 17.8395L199.643 17.6333L200.392 16.192Z" fill="white"/>
<path d="M202.807 17.0818L203.186 17.3258L202.072 19.0386L201.694 18.7946L202.807 17.0818Z" fill="white"/>
<path d="M203.792 18.9681V18.9629C203.976 18.745 204.239 18.6074 204.523 18.5797C204.808 18.5521 205.092 18.6365 205.315 18.815C205.538 18.9934 205.681 19.2515 205.715 19.5339C205.748 19.8163 205.668 20.1004 205.493 20.3252V20.3304C205.31 20.5495 205.047 20.6883 204.762 20.7166C204.477 20.745 204.192 20.6607 203.968 20.482C203.745 20.3033 203.601 20.0445 203.568 19.7615C203.535 19.4784 203.615 19.1937 203.792 18.9689L203.792 18.9681ZM205.122 20.0375C205.178 19.9747 205.219 19.9016 205.245 19.8224C205.271 19.7433 205.281 19.6597 205.274 19.5768C205.267 19.4938 205.243 19.4131 205.204 19.3395C205.164 19.2659 205.111 19.2009 205.046 19.1484C204.981 19.0964 204.907 19.0578 204.827 19.035C204.747 19.0122 204.664 19.0056 204.582 19.0157C204.499 19.0258 204.42 19.0524 204.348 19.0938C204.276 19.1352 204.214 19.1906 204.164 19.2567V19.2618C204.109 19.3248 204.068 19.398 204.042 19.4771C204.016 19.5563 204.007 19.6398 204.014 19.7227C204.021 19.8056 204.045 19.8862 204.084 19.9598C204.123 20.0333 204.177 20.0983 204.242 20.1509C204.306 20.2028 204.381 20.2411 204.461 20.2635C204.54 20.286 204.624 20.2921 204.706 20.2815C204.788 20.2709 204.868 20.2438 204.939 20.2018C205.01 20.1599 205.073 20.104 205.122 20.0375H205.122Z" fill="white"/>
<path d="M207.275 20.6078L207.561 20.9111L207.297 22.4667L208.219 21.6077L208.523 21.9307L207.027 23.3273L206.768 23.0491L207.038 21.4411L206.088 22.3284L205.783 22.0054L207.275 20.6078Z" fill="white"/>
<path d="M210.582 25.3898L210.254 24.8615L210.608 24.6442L211.501 26.0813L211.147 26.2995L210.819 25.7712L209.428 26.625L209.19 26.2428L210.582 25.3898Z" fill="white"/>
<path d="M212.202 27.3705L212.391 27.7769L211.654 28.1153L211.999 28.8669L212.737 28.5285L212.926 28.9356L211.063 29.7877L210.875 29.3797L211.623 29.0361L211.277 28.2845L210.529 28.6281L210.341 28.2226L212.202 27.3705Z" fill="white"/>
<path d="M213.516 30.4456L213.798 31.3356C213.837 31.4363 213.855 31.5439 213.852 31.6518C213.849 31.7598 213.824 31.866 213.779 31.9643C213.737 32.0392 213.681 32.1049 213.613 32.1576C213.545 32.2103 213.467 32.2488 213.384 32.271H213.378C213.247 32.3188 213.103 32.3226 212.97 32.2818C212.837 32.241 212.72 32.1578 212.639 32.045L212.09 32.7391L211.932 32.2383L212.427 31.625L212.321 31.2892L211.693 31.4842L211.558 31.0547L213.516 30.4456ZM212.838 31.6044C212.903 31.8123 213.053 31.8973 213.218 31.8466H213.224C213.409 31.7899 213.464 31.6319 213.397 31.424L213.262 30.9945L212.7 31.1715L212.838 31.6044Z" fill="white"/>
<path d="M213.377 33.6711H213.384C213.663 33.6329 213.947 33.7035 214.175 33.8682C214.403 34.0328 214.558 34.2788 214.608 34.5546C214.658 34.8304 214.599 35.1147 214.443 35.348C214.286 35.5814 214.046 35.7456 213.77 35.8065H213.763C213.484 35.8448 213.201 35.7744 212.973 35.6099C212.745 35.4454 212.59 35.1996 212.54 34.924C212.49 34.6483 212.549 34.3642 212.705 34.131C212.861 33.8978 213.102 33.7337 213.377 33.6729V33.6711ZM213.676 35.3453H213.681C213.764 35.3337 213.844 35.3057 213.916 35.2629C213.987 35.2201 214.05 35.1634 214.099 35.0961C214.148 35.0289 214.183 34.9525 214.202 34.8715C214.221 34.7904 214.223 34.7065 214.208 34.6246C214.194 34.5433 214.164 34.4657 214.118 34.3966C214.073 34.3274 214.014 34.2681 213.945 34.2221C213.876 34.1762 213.798 34.1447 213.717 34.1294C213.635 34.1141 213.551 34.1154 213.47 34.1333H213.465C213.383 34.1449 213.303 34.173 213.231 34.2158C213.16 34.2586 213.098 34.3152 213.049 34.3824C213 34.4495 212.964 34.5258 212.946 34.6066C212.927 34.6875 212.925 34.7713 212.939 34.8531C212.953 34.9344 212.984 35.0119 213.029 35.0811C213.074 35.1503 213.133 35.2097 213.202 35.2557C213.271 35.3017 213.348 35.3334 213.43 35.3488C213.511 35.3641 213.595 35.363 213.676 35.3453Z" fill="white"/>
<path d="M213.755 37.1714L214.928 37.1233L214.947 37.5717L213.785 37.6198C213.451 37.6318 213.285 37.8062 213.297 38.0794C213.308 38.3525 213.482 38.5088 213.807 38.4994L214.982 38.4513L215 38.8997L213.844 38.9478C213.721 38.9684 213.595 38.9613 213.476 38.9269C213.356 38.8925 213.246 38.8318 213.154 38.7492C213.061 38.6667 212.988 38.5644 212.941 38.45C212.894 38.3357 212.873 38.2122 212.88 38.0888C212.864 37.9686 212.874 37.8462 212.912 37.7307C212.949 37.6153 213.012 37.5096 213.096 37.4215C213.18 37.3335 213.283 37.2653 213.397 37.222C213.511 37.1787 213.633 37.1614 213.755 37.1714Z" fill="white"/>
<path d="M213.946 40.3299H213.952C214.092 40.341 214.229 40.38 214.354 40.4446C214.478 40.5091 214.589 40.5979 214.679 40.7057C214.769 40.8135 214.836 40.9381 214.876 41.0722C214.917 41.2062 214.93 41.3469 214.914 41.486C214.903 41.7794 214.777 42.0568 214.564 42.2591L214.246 41.9482C214.321 41.8831 214.381 41.8041 214.425 41.7157C214.469 41.6272 214.494 41.5311 214.5 41.4328C214.508 41.2712 214.45 41.1134 214.341 40.9938C214.231 40.8742 214.079 40.8026 213.916 40.7946H213.911C213.828 40.7824 213.743 40.7874 213.661 40.8093C213.58 40.8312 213.504 40.8694 213.438 40.9217C213.372 40.974 213.318 41.0392 213.278 41.1132C213.239 41.1872 213.215 41.2685 213.208 41.352C213.192 41.5007 213.222 41.6508 213.295 41.7815L213.586 41.8064L213.627 41.3572L214.015 41.3907L213.936 42.2729L213.049 42.1955C212.861 41.9368 212.773 41.6188 212.802 41.3005C212.808 41.1604 212.843 41.023 212.905 40.8969C212.967 40.7708 213.054 40.6587 213.161 40.5677C213.268 40.4766 213.393 40.4085 213.528 40.3675C213.663 40.3266 213.805 40.3138 213.946 40.3299Z" fill="white"/>
<path d="M214.55 43.9126L214.451 44.3498L213.659 44.172L213.476 44.9785L214.267 45.1563L214.169 45.5936L212.168 45.146L212.267 44.7088L213.069 44.8883L213.253 44.0818L212.451 43.9014L212.549 43.4642L214.55 43.9126Z" fill="white"/>
<path d="M213.055 48.9341L212.872 49.3455L211.368 48.6876L210.955 49.6196L210.579 49.4538L211.175 48.1121L213.055 48.9341Z" fill="white"/>
<path d="M211.784 51.5807L211.006 52.907L210.661 52.706L211.213 51.7611L210.854 51.5541L210.368 52.3821L210.022 52.182L210.509 51.3531L210.137 51.1375L209.577 52.091L209.231 51.89L210.018 50.5517L211.784 51.5807Z" fill="white"/>
<path d="M209.743 54.7495L209.491 55.0784L207.317 54.5304L207.601 54.1584L208.081 54.2865L208.605 53.5993L208.354 53.1758L208.633 52.8116L209.743 54.7495ZM208.495 54.399L209.187 54.5837L208.823 53.9687L208.495 54.399Z" fill="white"/>
<path d="M207.965 56.8574L207.305 57.5179C207.234 57.5994 207.147 57.6659 207.05 57.7136C206.953 57.7612 206.847 57.789 206.738 57.7953C206.653 57.7932 206.568 57.7741 206.49 57.7392C206.411 57.7042 206.341 57.6541 206.282 57.5918C206.178 57.499 206.108 57.3749 206.082 57.2387C206.057 57.1024 206.077 56.9615 206.14 56.8376L205.267 56.6796L205.637 56.3076L206.415 56.4554L206.663 56.2054L206.197 55.7459L206.515 55.428L207.965 56.8574ZM206.619 56.8033C206.585 56.8283 206.556 56.8603 206.535 56.8973C206.514 56.9343 206.501 56.9754 206.498 57.0177C206.494 57.06 206.5 57.1025 206.515 57.1425C206.529 57.1824 206.552 57.2188 206.582 57.2491H206.587C206.724 57.3831 206.89 57.3581 207.044 57.2027L207.359 56.8866L206.941 56.476L206.619 56.8033Z" fill="white"/>
<path d="M205.597 59.0984L205.268 59.3561L203.737 58.9524L204.515 59.9419L204.164 60.2134L202.906 58.6071L203.209 58.3717L204.791 58.7883L203.992 57.7662L204.344 57.4956L205.597 59.0984Z" fill="white"/>
<path d="M202.817 61.1084L202.433 61.3463L201.347 59.6129L201.731 59.3758L202.817 61.1084Z" fill="white"/>
<path d="M201.021 62.1563L200.647 62.3358L199.233 61.6203L199.782 62.7508L199.38 62.9423L198.49 61.1067L198.836 60.94L200.296 61.6787L199.731 60.5114L200.131 60.3199L201.021 62.1563Z" fill="white"/>
<path d="M197.633 62.5549V62.5609C197.678 62.6938 197.696 62.8343 197.685 62.9742C197.675 63.1141 197.636 63.2504 197.571 63.3752C197.507 63.5 197.418 63.6107 197.31 63.7007C197.202 63.7907 197.076 63.8582 196.941 63.8992C196.665 64.0067 196.358 64.0014 196.086 63.8846L196.25 63.4714C196.43 63.5567 196.637 63.5675 196.825 63.5015C196.978 63.4442 197.102 63.3292 197.169 63.1816C197.237 63.0339 197.243 62.8658 197.186 62.7138V62.7078C197.164 62.6265 197.126 62.5505 197.073 62.4846C197.021 62.4187 196.955 62.3642 196.88 62.3247C196.805 62.2851 196.723 62.2613 196.639 62.2546C196.555 62.248 196.47 62.2586 196.39 62.286C196.245 62.329 196.117 62.4158 196.024 62.5342L196.115 62.8117L196.547 62.6709L196.668 63.0393L195.82 63.3168L195.542 62.4742C195.707 62.1983 195.968 61.9918 196.275 61.8935C196.407 61.8423 196.549 61.8189 196.691 61.8249C196.833 61.8309 196.972 61.8661 197.1 61.9282C197.227 61.9904 197.341 62.0781 197.432 62.186C197.524 62.2939 197.592 62.4195 197.633 62.5549Z" fill="white"/>
<path d="M192.141 64.5262L192.761 64.4498L192.811 64.8595L191.125 65.0674L191.074 64.6568L191.694 64.5812L191.492 62.9689L191.94 62.9139L192.141 64.5262Z" fill="white"/>
<path d="M189.657 65.1635L188.101 65.1739V64.7736L189.203 64.7658V64.351L188.235 64.357V63.9567L189.205 63.9507V63.5212L188.089 63.5289V63.1287L189.656 63.1183L189.657 65.1635Z" fill="white"/>
<path d="M186.766 64.0794V64.0855C186.753 64.2248 186.712 64.36 186.644 64.4829C186.577 64.6058 186.485 64.7138 186.374 64.8003C186.264 64.8867 186.136 64.9499 186 64.9859C185.864 65.0219 185.722 65.03 185.583 65.0097C185.434 65.0002 185.289 64.9594 185.157 64.8899C185.025 64.8205 184.909 64.724 184.817 64.6069L185.14 64.3122C185.261 64.4684 185.438 64.5718 185.634 64.6008C185.715 64.6082 185.797 64.5995 185.874 64.5751C185.952 64.5507 186.023 64.5111 186.085 64.4586C186.147 64.4062 186.198 64.342 186.235 64.2698C186.271 64.1976 186.293 64.1189 186.298 64.0382V64.0322C186.313 63.9519 186.31 63.8696 186.292 63.7901C186.273 63.7107 186.238 63.6359 186.19 63.5701C186.142 63.5042 186.08 63.4488 186.01 63.407C185.939 63.3652 185.861 63.338 185.78 63.327C185.679 63.3162 185.578 63.3258 185.481 63.3553C185.384 63.3849 185.294 63.4337 185.217 63.4988L184.967 63.1793C185.083 63.0722 185.222 62.9927 185.374 62.9469C185.526 62.9011 185.686 62.8901 185.843 62.9147C185.982 62.9287 186.116 62.9702 186.238 63.0368C186.36 63.1034 186.467 63.1937 186.553 63.3024C186.639 63.4111 186.703 63.5359 186.739 63.6694C186.776 63.8029 186.785 63.9424 186.766 64.0794Z" fill="white"/>
<path d="M183.281 64.6095L182.843 64.5013L183.04 63.7188L182.233 63.5178L182.036 64.3003L181.597 64.1912L182.095 62.2156L182.533 62.3229L182.333 63.1184L183.141 63.3194L183.342 62.524L183.779 62.6331L183.281 64.6095Z" fill="white"/>
<path d="M180.047 63.6999L179.66 63.5496L179.228 62.0326L178.766 63.2L178.352 63.0376L179.102 61.1419L179.459 61.2801L179.906 62.8478L180.383 61.6452L180.797 61.8075L180.047 63.6999Z" fill="white"/>
<path d="M177.432 61.4915V61.4967C177.283 61.7296 177.05 61.8971 176.781 61.9649C176.511 62.0327 176.226 61.9957 175.983 61.8614C175.74 61.7271 175.558 61.5058 175.474 61.2425C175.39 60.9793 175.41 60.6941 175.531 60.4453V60.4401C175.68 60.2071 175.913 60.0397 176.183 59.9719C176.452 59.9041 176.737 59.941 176.98 60.0753C177.223 60.2096 177.405 60.431 177.489 60.6942C177.573 60.9574 177.553 61.2426 177.432 61.4915ZM175.942 60.6634V60.6686C175.899 60.7395 175.871 60.8182 175.859 60.9002C175.847 60.9822 175.852 61.0658 175.873 61.1459C175.894 61.226 175.931 61.3011 175.982 61.3666C176.033 61.4322 176.097 61.4869 176.17 61.5275C176.242 61.5679 176.322 61.5933 176.404 61.6021C176.486 61.611 176.57 61.6031 176.649 61.579C176.728 61.5549 176.802 61.5151 176.865 61.462C176.928 61.4089 176.98 61.3435 177.017 61.2699C177.06 61.1989 177.088 61.1201 177.1 61.0382C177.112 60.9562 177.107 60.8728 177.086 60.7928C177.065 60.7127 177.028 60.6377 176.977 60.5721C176.926 60.5065 176.863 60.4517 176.79 60.4109C176.718 60.3705 176.639 60.3449 176.557 60.3358C176.474 60.3266 176.391 60.3341 176.312 60.3577C176.233 60.3813 176.159 60.4205 176.096 60.473C176.032 60.5256 175.98 60.5903 175.942 60.6634Z" fill="white"/>
<path d="M173.747 60.4839L173.383 60.2185L174.357 58.9034L173.533 58.3021L173.777 57.9731L174.966 58.845L173.747 60.4839Z" fill="white"/>
<path d="M172.271 58.0659C172.07 58.2635 171.801 58.3762 171.519 58.3803C171.236 58.3844 170.964 58.2797 170.757 58.0881C170.551 57.8964 170.428 57.6329 170.413 57.3528C170.399 57.0726 170.494 56.7978 170.679 56.586C170.879 56.3884 171.149 56.2757 171.431 56.2716C171.713 56.2675 171.986 56.3722 172.192 56.5638C172.398 56.7554 172.522 57.019 172.536 57.2991C172.551 57.5792 172.456 57.8541 172.271 58.0659ZM171.026 56.902V56.9072C170.967 56.9656 170.92 57.0353 170.888 57.1121C170.857 57.1889 170.841 57.2713 170.842 57.3543C170.843 57.4373 170.86 57.5193 170.894 57.5954C170.927 57.6715 170.976 57.74 171.037 57.7971C171.097 57.8536 171.168 57.8975 171.246 57.926C171.324 57.9545 171.407 57.9671 171.489 57.963C171.572 57.9589 171.653 57.9382 171.728 57.9022C171.802 57.8662 171.869 57.8155 171.923 57.7533C171.983 57.6947 172.029 57.6249 172.061 57.5479C172.092 57.471 172.108 57.3886 172.107 57.3056C172.106 57.2225 172.088 57.1405 172.055 57.0644C172.021 56.9883 171.973 56.9196 171.912 56.8625C171.852 56.8057 171.781 56.7616 171.704 56.7328C171.626 56.7039 171.543 56.6909 171.461 56.6946C171.378 56.6983 171.297 56.7185 171.222 56.7542C171.147 56.7898 171.081 56.8401 171.026 56.902Z" fill="white"/>
<path d="M169.789 55.6144H169.784C169.676 55.7032 169.55 55.7695 169.415 55.8093C169.28 55.8491 169.139 55.8616 168.999 55.8461C168.859 55.8305 168.724 55.7873 168.601 55.7189C168.478 55.6505 168.371 55.5583 168.285 55.4478C168.088 55.2293 167.984 54.9429 167.997 54.6498L168.442 54.6558C168.426 54.8523 168.488 55.0473 168.615 55.1987C168.722 55.3192 168.874 55.3926 169.036 55.4029C169.197 55.4132 169.357 55.3595 169.479 55.2536H169.484C169.553 55.2049 169.61 55.1426 169.654 55.0707C169.697 54.9988 169.725 54.9188 169.736 54.8357C169.747 54.7527 169.74 54.6682 169.716 54.5878C169.693 54.5073 169.653 54.4325 169.599 54.368C169.507 54.2486 169.38 54.1609 169.235 54.1172L169.008 54.3002L169.293 54.6507L168.991 54.8937L168.431 54.2066L169.122 53.6491C169.438 53.7058 169.723 53.8738 169.925 54.1224C170.02 54.2268 170.092 54.3496 170.137 54.4831C170.182 54.6165 170.199 54.7578 170.186 54.8979C170.173 55.0381 170.131 55.1741 170.063 55.2974C169.995 55.4207 169.902 55.5286 169.789 55.6144Z" fill="white"/>
<path d="M166.87 53.467L166.625 53.0907L168.339 51.9844L168.586 52.3606L166.87 53.467Z" fill="white"/>
<path d="M165.784 51.7164L165.074 50.342L165.432 50.1582L165.935 51.1323L166.306 50.9424L165.863 50.0835L166.221 49.9014L166.664 50.7603L167.048 50.5636L166.538 49.5775L166.896 49.3946L167.612 50.7775L165.784 51.7164Z" fill="white"/>
<path d="M166.151 48.4694L165.757 48.3329C165.843 48.1234 165.849 47.8901 165.774 47.6766C165.709 47.5048 165.601 47.4266 165.489 47.4687H165.483C165.375 47.5082 165.346 47.5959 165.385 47.9446C165.433 48.3664 165.419 48.6532 165.039 48.7976H165.033C164.949 48.8264 164.859 48.8375 164.771 48.8301C164.682 48.8227 164.596 48.797 164.517 48.7547C164.439 48.7124 164.37 48.6543 164.316 48.5842C164.261 48.5141 164.222 48.4334 164.201 48.3475C164.1 48.0917 164.091 47.8092 164.176 47.5478L164.578 47.6465C164.519 47.8311 164.519 48.0289 164.578 48.2135C164.639 48.3741 164.744 48.4299 164.837 48.3956H164.842C164.968 48.3475 164.979 48.2504 164.938 47.8896C164.892 47.4602 164.949 47.1939 165.284 47.0684H165.29C165.378 47.0364 165.472 47.0236 165.565 47.0308C165.659 47.038 165.75 47.0652 165.832 47.1104C165.914 47.1556 165.985 47.2179 166.04 47.2929C166.096 47.3679 166.135 47.454 166.154 47.5452C166.267 47.8432 166.266 48.172 166.151 48.4694Z" fill="white"/>
<path d="M185.912 21.5923H187.147C187.641 21.7486 188.133 21.9067 188.629 22.0579C188.693 22.0769 188.761 22.0769 188.826 22.0579C189.32 21.9067 189.813 21.7486 190.306 21.5923H191.542C191.568 21.6125 191.597 21.6287 191.628 21.6404C192.39 21.748 193.116 22.0325 193.747 22.4708C194.377 22.9091 194.895 23.4889 195.258 24.1632C195.293 24.2085 195.337 24.2461 195.387 24.2736C195.437 24.3012 195.493 24.3179 195.55 24.3229C196.821 24.3807 198.02 24.9261 198.895 25.8444C199.771 26.7628 200.253 27.9826 200.243 29.2474C200.231 29.3292 200.25 29.4122 200.296 29.4813C200.341 29.5503 200.41 29.6009 200.49 29.6236C201.432 29.9944 202.233 30.6498 202.781 31.4974C203.329 32.3451 203.595 33.3421 203.541 34.348C203.526 34.4448 203.543 34.5439 203.59 34.6302C203.637 34.7164 203.711 34.7851 203.801 34.8256C204.556 35.2497 205.184 35.8656 205.621 36.6101C206.058 37.3547 206.289 38.2013 206.289 39.0633C206.289 39.9253 206.058 40.7719 205.621 41.5165C205.184 42.261 204.556 42.8769 203.801 43.301C203.711 43.3417 203.637 43.4107 203.59 43.4972C203.543 43.5838 203.526 43.6833 203.541 43.7803C203.593 44.787 203.326 45.7843 202.777 46.6319C202.228 47.4795 201.425 48.1345 200.482 48.5047C200.403 48.529 200.335 48.5809 200.291 48.6507C200.247 48.7206 200.23 48.8038 200.243 48.8852C200.26 50.1328 199.792 51.3389 198.936 52.2514C198.08 53.1639 196.902 53.7121 195.648 53.7813C195.55 53.7809 195.453 53.8089 195.37 53.8618C195.288 53.9146 195.222 53.9902 195.181 54.0794C194.586 55.116 193.629 55.9 192.492 56.2833C191.355 56.6666 190.116 56.6227 189.009 56.1598C188.826 56.0925 188.624 56.0925 188.441 56.1598C187.444 56.584 186.333 56.6635 185.285 56.3857C184.237 56.1078 183.313 55.4888 182.661 54.6274C182.491 54.3651 182.265 54.1428 182 53.9759C181.735 53.809 181.436 53.7016 181.125 53.6611C180.006 53.4582 178.996 52.8653 178.278 51.9889C177.559 51.1126 177.179 50.0102 177.205 48.88C177.217 48.7986 177.2 48.7154 177.156 48.6456C177.112 48.5757 177.044 48.5239 176.965 48.4995C176.022 48.1296 175.219 47.4745 174.671 46.6269C174.122 45.7792 173.856 44.7817 173.908 43.7752C173.922 43.6722 173.901 43.5675 173.849 43.4778C173.796 43.3881 173.714 43.3187 173.617 43.2804C172.59 42.7278 171.81 41.8107 171.433 40.7121C171.312 40.3728 171.241 40.0172 171.147 39.6693V38.441C171.175 38.3809 171.198 38.3185 171.215 38.2546C171.323 37.5383 171.596 36.8567 172.014 36.2632C172.431 35.6697 172.981 35.1805 173.621 34.8342C173.718 34.7945 173.798 34.7241 173.85 34.6341C173.902 34.5441 173.923 34.4396 173.908 34.3368C173.855 33.3311 174.122 32.3344 174.67 31.4875C175.218 30.6406 176.021 29.9865 176.963 29.6176C177.186 29.5257 177.204 29.4003 177.204 29.2036C177.204 27.9513 177.689 26.7471 178.558 25.84C179.426 24.9328 180.612 24.3922 181.871 24.3298C181.948 24.3334 182.024 24.3135 182.089 24.2728C182.155 24.2322 182.206 24.1726 182.236 24.1022C182.639 23.3154 183.277 22.6724 184.063 22.2623C184.666 22.0036 185.283 21.7799 185.912 21.5923Z" fill="url(#paint0_linear)"/>
<path d="M173.295 31.5694C173.991 31.5694 174.556 31.0079 174.556 30.3153C174.556 29.6227 173.991 29.0612 173.295 29.0612C172.598 29.0612 172.033 29.6227 172.033 30.3153C172.033 31.0079 172.598 31.5694 173.295 31.5694Z" fill="white"/>
<path d="M173.294 31.7102C173.016 31.71 172.745 31.628 172.514 31.4747C172.284 31.3213 172.104 31.1034 171.998 30.8484C171.892 30.5935 171.864 30.3131 171.918 30.0426C171.972 29.772 172.106 29.5235 172.303 29.3285C172.499 29.1335 172.749 29.0007 173.021 28.947C173.293 28.8932 173.576 28.9209 173.832 29.0265C174.088 29.1321 174.308 29.3109 174.462 29.5403C174.616 29.7697 174.698 30.0394 174.698 30.3152C174.698 30.6852 174.55 31.0399 174.286 31.3014C174.023 31.5629 173.666 31.71 173.294 31.7102ZM173.294 29.202C173.072 29.202 172.854 29.2675 172.67 29.3902C172.485 29.5129 172.341 29.6873 172.256 29.8913C172.171 30.0954 172.149 30.3199 172.192 30.5365C172.235 30.7531 172.342 30.9521 172.499 31.1082C172.656 31.2644 172.857 31.3708 173.075 31.4138C173.293 31.4569 173.518 31.4348 173.724 31.3503C173.929 31.2658 174.105 31.1227 174.228 30.939C174.352 30.7554 174.417 30.5395 174.417 30.3187C174.417 30.0225 174.299 29.7385 174.088 29.5291C173.878 29.3196 173.592 29.202 173.294 29.202Z" fill="white"/>
<g style="mix-blend-mode:darken" opacity="0.4">
<g style="mix-blend-mode:darken" opacity="0.4">
<path d="M179.604 40.9991C180.301 40.9991 180.866 40.4376 180.866 39.745C180.866 39.0523 180.301 38.4909 179.604 38.4909C178.907 38.4909 178.342 39.0523 178.342 39.745C178.342 40.4376 178.907 40.9991 179.604 40.9991Z" fill="white"/>
</g>
<g style="mix-blend-mode:darken" opacity="0.4">
<path d="M179.605 41.1408C179.328 41.1406 179.056 41.0587 178.826 40.9053C178.595 40.752 178.415 40.5341 178.309 40.2793C178.203 40.0244 178.175 39.744 178.229 39.4735C178.284 39.203 178.417 38.9545 178.613 38.7594C178.81 38.5644 179.06 38.4316 179.332 38.3777C179.604 38.3239 179.886 38.3514 180.143 38.4569C180.399 38.5624 180.618 38.741 180.773 38.9703C180.927 39.1996 181.009 39.4691 181.01 39.745C181.009 40.115 180.861 40.4698 180.598 40.7315C180.334 40.9931 179.977 41.1403 179.605 41.1408ZM179.605 38.6317C179.383 38.6317 179.166 38.6972 178.981 38.8199C178.796 38.9426 178.652 39.117 178.567 39.3211C178.482 39.5251 178.46 39.7496 178.503 39.9663C178.546 40.1829 178.653 40.3818 178.811 40.538C178.968 40.6942 179.168 40.8005 179.386 40.8436C179.604 40.8867 179.83 40.8646 180.035 40.7801C180.24 40.6955 180.416 40.5524 180.539 40.3688C180.663 40.1852 180.729 39.9693 180.729 39.7484C180.729 39.4522 180.61 39.1682 180.4 38.9588C180.189 38.7494 179.903 38.6317 179.605 38.6317Z" fill="white"/>
</g>
</g>
<path d="M168.312 43.478C169.009 43.478 169.573 42.9165 169.573 42.2239C169.573 41.5313 169.009 40.9698 168.312 40.9698C167.615 40.9698 167.05 41.5313 167.05 42.2239C167.05 42.9165 167.615 43.478 168.312 43.478Z" fill="white"/>
<path d="M168.311 43.6207C168.034 43.6207 167.762 43.5388 167.531 43.3854C167.3 43.232 167.12 43.014 167.014 42.759C166.908 42.5039 166.88 42.2233 166.934 41.9525C166.988 41.6818 167.122 41.433 167.318 41.2378C167.515 41.0426 167.765 40.9097 168.037 40.8558C168.31 40.802 168.592 40.8296 168.849 40.9352C169.106 41.0409 169.325 41.2198 169.479 41.4493C169.633 41.6789 169.716 41.9488 169.716 42.2248C169.715 42.5949 169.567 42.9497 169.304 43.2113C169.041 43.473 168.684 43.6202 168.311 43.6207ZM168.311 41.1116C168.089 41.1116 167.872 41.1771 167.687 41.2998C167.502 41.4225 167.358 41.5969 167.273 41.8009C167.188 42.005 167.166 42.2295 167.209 42.4461C167.253 42.6627 167.36 42.8617 167.517 43.0178C167.674 43.174 167.874 43.2804 168.092 43.3235C168.31 43.3666 168.536 43.3444 168.741 43.2599C168.947 43.1754 169.122 43.0323 169.246 42.8486C169.369 42.665 169.435 42.4491 169.435 42.2283C169.435 41.9321 169.317 41.6481 169.106 41.4387C168.895 41.2292 168.609 41.1116 168.311 41.1116Z" fill="white"/>
<path d="M172.032 53.8278C172.729 53.8278 173.294 53.2663 173.294 52.5737C173.294 51.8811 172.729 51.3196 172.032 51.3196C171.335 51.3196 170.77 51.8811 170.77 52.5737C170.77 53.2663 171.335 53.8278 172.032 53.8278Z" fill="white"/>
<path d="M172.032 53.9695C171.754 53.9695 171.483 53.8877 171.252 53.7344C171.021 53.5812 170.842 53.3633 170.735 53.1084C170.629 52.8535 170.601 52.573 170.655 52.3024C170.71 52.0319 170.843 51.7833 171.04 51.5882C171.236 51.3931 171.486 51.2602 171.758 51.2064C172.03 51.1526 172.313 51.1802 172.569 51.2858C172.826 51.3914 173.045 51.5702 173.199 51.7996C173.353 52.029 173.436 52.2986 173.436 52.5745C173.435 52.9444 173.287 53.2989 173.024 53.5604C172.761 53.822 172.404 53.9691 172.032 53.9695ZM172.032 51.4614C171.81 51.4614 171.593 51.5268 171.408 51.6495C171.223 51.7722 171.079 51.9466 170.994 52.1507C170.909 52.3547 170.887 52.5792 170.93 52.7958C170.973 53.0125 171.08 53.2114 171.238 53.3676C171.395 53.5238 171.595 53.6301 171.813 53.6732C172.031 53.7163 172.257 53.6942 172.462 53.6097C172.667 53.5252 172.843 53.382 172.966 53.1984C173.09 53.0147 173.156 52.7989 173.156 52.578C173.156 52.2818 173.037 51.9978 172.826 51.7884C172.616 51.579 172.33 51.4614 172.032 51.4614Z" fill="white"/>
<path d="M178.649 54.3673C179.346 54.3673 179.911 53.8058 179.911 53.1132C179.911 52.4205 179.346 51.8591 178.649 51.8591C177.952 51.8591 177.387 52.4205 177.387 53.1132C177.387 53.8058 177.952 54.3673 178.649 54.3673Z" fill="white"/>
<path d="M178.648 54.509C178.371 54.5088 178.099 54.4269 177.869 54.2736C177.638 54.1202 177.458 53.9023 177.352 53.6475C177.246 53.3926 177.218 53.1122 177.272 52.8417C177.327 52.5711 177.46 52.3227 177.656 52.1277C177.853 51.9326 178.103 51.7998 178.375 51.7459C178.647 51.6921 178.929 51.7196 179.186 51.8251C179.442 51.9305 179.661 52.1092 179.816 52.3385C179.97 52.5677 180.052 52.8374 180.052 53.1132C180.052 53.4832 179.904 53.838 179.641 54.0997C179.377 54.3613 179.02 54.5086 178.648 54.509ZM178.648 51.9999C178.426 51.9999 178.209 52.0654 178.024 52.1881C177.839 52.3108 177.695 52.4852 177.61 52.6893C177.525 52.8933 177.503 53.1178 177.546 53.3344C177.589 53.551 177.696 53.75 177.854 53.9062C178.011 54.0624 178.211 54.1687 178.429 54.2118C178.647 54.2549 178.873 54.2328 179.078 54.1483C179.283 54.0637 179.459 53.9206 179.582 53.737C179.706 53.5533 179.772 53.3374 179.772 53.1166C179.772 52.9699 179.743 52.8247 179.686 52.6893C179.63 52.5538 179.547 52.4307 179.443 52.327C179.338 52.2233 179.214 52.141 179.078 52.0849C178.942 52.0288 178.796 51.9999 178.648 51.9999Z" fill="white"/>
<path d="M181.517 60.2099C182.214 60.2099 182.779 59.6484 182.779 58.9558C182.779 58.2631 182.214 57.7017 181.517 57.7017C180.821 57.7017 180.256 58.2631 180.256 58.9558C180.256 59.6484 180.821 60.2099 181.517 60.2099Z" fill="white"/>
<path d="M181.517 60.3507C181.239 60.3507 180.967 60.2689 180.736 60.1155C180.505 59.9621 180.325 59.7442 180.219 59.4891C180.113 59.234 180.085 58.9534 180.139 58.6826C180.193 58.4118 180.327 58.1631 180.523 57.9679C180.72 57.7727 180.97 57.6398 181.242 57.5859C181.515 57.5321 181.797 57.5597 182.054 57.6654C182.311 57.771 182.53 57.9499 182.684 58.1794C182.839 58.409 182.921 58.6788 182.921 58.9549C182.921 59.325 182.772 59.6797 182.509 59.9414C182.246 60.2031 181.889 60.3503 181.517 60.3507ZM181.517 57.8417C181.294 57.8417 181.077 57.9072 180.892 58.0299C180.708 58.1526 180.564 58.327 180.478 58.531C180.393 58.7351 180.371 58.9596 180.415 59.1762C180.458 59.3928 180.565 59.5918 180.722 59.7479C180.879 59.9041 181.079 60.0104 181.297 60.0535C181.515 60.0966 181.741 60.0745 181.946 59.99C182.152 59.9055 182.327 59.7624 182.451 59.5788C182.574 59.3951 182.64 59.1792 182.64 58.9584C182.64 58.6625 182.521 58.3789 182.31 58.1699C182.1 57.9608 181.814 57.8434 181.517 57.8434V57.8417Z" fill="white"/>
<path d="M193.234 61.0741C193.931 61.0741 194.496 60.5126 194.496 59.82C194.496 59.1274 193.931 58.5659 193.234 58.5659C192.537 58.5659 191.972 59.1274 191.972 59.82C191.972 60.5126 192.537 61.0741 193.234 61.0741Z" fill="white"/>
<path d="M193.234 61.2159C192.957 61.2157 192.686 61.1338 192.455 60.9804C192.224 60.8271 192.045 60.6092 191.938 60.3543C191.832 60.0995 191.805 59.819 191.859 59.5485C191.913 59.278 192.047 59.0296 192.243 58.8345C192.439 58.6395 192.689 58.5066 192.961 58.4527C193.233 58.3989 193.516 58.4265 193.772 58.532C194.029 58.6374 194.248 58.8161 194.402 59.0453C194.556 59.2746 194.639 59.5442 194.639 59.82C194.638 60.1901 194.49 60.5448 194.227 60.8065C193.964 61.0682 193.607 61.2154 193.234 61.2159ZM193.234 58.7068C193.012 58.7068 192.795 58.7723 192.61 58.895C192.426 59.0177 192.281 59.1921 192.196 59.3961C192.111 59.6002 192.089 59.8247 192.133 60.0413C192.176 60.2579 192.283 60.4569 192.44 60.6131C192.597 60.7692 192.797 60.8756 193.015 60.9187C193.233 60.9617 193.459 60.9396 193.664 60.8551C193.87 60.7706 194.045 60.6275 194.169 60.4438C194.292 60.2602 194.358 60.0443 194.358 59.8235C194.358 59.5273 194.24 59.2433 194.029 59.0338C193.818 58.8244 193.532 58.7068 193.234 58.7068Z" fill="white"/>
<path d="M203.357 55.9495C204.054 55.9495 204.619 55.388 204.619 54.6954C204.619 54.0028 204.054 53.4413 203.357 53.4413C202.66 53.4413 202.095 54.0028 202.095 54.6954C202.095 55.388 202.66 55.9495 203.357 55.9495Z" fill="white"/>
<path d="M203.357 56.0912C203.079 56.0912 202.808 56.0094 202.577 55.8562C202.346 55.7029 202.166 55.485 202.06 55.2301C201.954 54.9752 201.926 54.6947 201.98 54.4242C202.034 54.1536 202.168 53.905 202.364 53.7099C202.561 53.5148 202.811 53.3819 203.083 53.3281C203.355 53.2743 203.637 53.3019 203.894 53.4075C204.15 53.5131 204.37 53.6919 204.524 53.9213C204.678 54.1507 204.76 54.4204 204.76 54.6963C204.76 55.0661 204.612 55.4206 204.349 55.6821C204.086 55.9437 203.729 56.0908 203.357 56.0912ZM203.357 53.5831C203.134 53.5831 202.917 53.6485 202.732 53.7712C202.548 53.8939 202.404 54.0683 202.319 54.2724C202.234 54.4764 202.211 54.7009 202.255 54.9175C202.298 55.1342 202.405 55.3332 202.562 55.4893C202.719 55.6455 202.92 55.7518 203.138 55.7949C203.355 55.838 203.581 55.8159 203.787 55.7314C203.992 55.6469 204.167 55.5037 204.291 55.3201C204.414 55.1364 204.48 54.9206 204.48 54.6997C204.481 54.5529 204.452 54.4074 204.395 54.2716C204.339 54.1358 204.256 54.0124 204.152 53.9084C204.048 53.8045 203.924 53.722 203.787 53.6657C203.651 53.6095 203.504 53.5805 203.357 53.5805V53.5831Z" fill="white"/>
<path d="M209.132 44.733C209.829 44.733 210.394 44.1715 210.394 43.4789C210.394 42.7863 209.829 42.2248 209.132 42.2248C208.435 42.2248 207.87 42.7863 207.87 43.4789C207.87 44.1715 208.435 44.733 209.132 44.733Z" fill="white"/>
<path d="M209.132 44.8748C208.854 44.8748 208.582 44.7929 208.351 44.6395C208.121 44.4862 207.94 44.2682 207.834 44.0131C207.728 43.7581 207.7 43.4774 207.754 43.2067C207.808 42.9359 207.942 42.6872 208.139 42.492C208.335 42.2968 208.585 42.1638 208.858 42.11C209.13 42.0561 209.413 42.0837 209.669 42.1894C209.926 42.295 210.145 42.4739 210.3 42.7035C210.454 42.933 210.536 43.2029 210.536 43.479C210.536 43.849 210.388 44.2038 210.124 44.4655C209.861 44.7271 209.504 44.8743 209.132 44.8748ZM209.132 42.3657C208.91 42.3657 208.692 42.4312 208.508 42.5539C208.323 42.6766 208.179 42.851 208.094 43.0551C208.009 43.2591 207.986 43.4836 208.03 43.7003C208.073 43.9169 208.18 44.1158 208.337 44.272C208.494 44.4282 208.695 44.5345 208.913 44.5776C209.13 44.6207 209.356 44.5986 209.562 44.5141C209.767 44.4295 209.942 44.2864 210.066 44.1028C210.189 43.9192 210.255 43.7032 210.255 43.4824C210.255 43.1862 210.137 42.9022 209.926 42.6928C209.715 42.4834 209.43 42.3657 209.132 42.3657Z" fill="white"/>
<path d="M208.406 34.8858C209.103 34.8858 209.667 34.3243 209.667 33.6317C209.667 32.9391 209.103 32.3776 208.406 32.3776C207.709 32.3776 207.144 32.9391 207.144 33.6317C207.144 34.3243 207.709 34.8858 208.406 34.8858Z" fill="white"/>
<path d="M208.401 35.0284C208.123 35.0284 207.851 34.9465 207.62 34.7931C207.389 34.6398 207.209 34.4218 207.103 34.1667C206.997 33.9117 206.969 33.631 207.023 33.3603C207.077 33.0895 207.211 32.8408 207.407 32.6456C207.604 32.4504 207.854 32.3174 208.127 32.2636C208.399 32.2097 208.681 32.2374 208.938 32.343C209.195 32.4487 209.414 32.6275 209.568 32.8571C209.723 33.0866 209.805 33.3565 209.805 33.6326C209.805 34.0027 209.657 34.3576 209.393 34.6193C209.13 34.881 208.773 35.0282 208.401 35.0284ZM208.401 32.5193C208.178 32.5193 207.961 32.5848 207.776 32.7075C207.592 32.8302 207.448 33.0046 207.363 33.2087C207.277 33.4127 207.255 33.6372 207.299 33.8539C207.342 34.0705 207.449 34.2694 207.606 34.4256C207.763 34.5818 207.963 34.6881 208.181 34.7312C208.399 34.7743 208.625 34.7522 208.83 34.6677C209.036 34.5831 209.211 34.44 209.335 34.2564C209.458 34.0728 209.524 33.8569 209.524 33.636C209.524 33.3398 209.406 33.0558 209.195 32.8464C208.984 32.637 208.699 32.5193 208.401 32.5193Z" fill="white"/>
<path d="M202.553 25.1252C203.25 25.1252 203.815 24.5637 203.815 23.8711C203.815 23.1785 203.25 22.617 202.553 22.617C201.856 22.617 201.291 23.1785 201.291 23.8711C201.291 24.5637 201.856 25.1252 202.553 25.1252Z" fill="white"/>
<path d="M202.553 25.267C202.275 25.267 202.004 25.1852 201.773 25.032C201.542 24.8787 201.362 24.6609 201.256 24.406C201.15 24.1512 201.122 23.8708 201.176 23.6002C201.23 23.3296 201.364 23.0811 201.56 22.8859C201.756 22.6908 202.006 22.5579 202.278 22.504C202.551 22.45 202.833 22.4775 203.089 22.583C203.346 22.6884 203.565 22.8671 203.719 23.0964C203.874 23.3257 203.956 23.5953 203.956 23.8712C203.956 24.2411 203.808 24.5957 203.545 24.8574C203.282 25.119 202.925 25.2663 202.553 25.267ZM202.553 22.7579C202.331 22.7579 202.113 22.8234 201.929 22.9461C201.744 23.0688 201.6 23.2432 201.515 23.4473C201.43 23.6513 201.407 23.8758 201.451 24.0925C201.494 24.3091 201.601 24.508 201.758 24.6642C201.915 24.8204 202.116 24.9267 202.334 24.9698C202.552 25.0129 202.777 24.9908 202.983 24.9063C203.188 24.8217 203.363 24.6786 203.487 24.495C203.61 24.3114 203.676 24.0954 203.676 23.8746C203.676 23.5784 203.558 23.2944 203.347 23.085C203.137 22.8756 202.851 22.7579 202.553 22.7579Z" fill="white"/>
<path d="M197.425 26.3793C198.122 26.3793 198.687 25.8179 198.687 25.1253C198.687 24.4326 198.122 23.8712 197.425 23.8712C196.728 23.8712 196.163 24.4326 196.163 25.1253C196.163 25.8179 196.728 26.3793 197.425 26.3793Z" fill="white"/>
<path d="M197.424 26.5212C197.147 26.521 196.875 26.439 196.645 26.2856C196.414 26.1322 196.234 25.9143 196.128 25.6594C196.022 25.4045 195.994 25.1241 196.049 24.8535C196.103 24.583 196.237 24.3345 196.433 24.1395C196.629 23.9445 196.879 23.8117 197.152 23.7579C197.424 23.7042 197.706 23.7319 197.962 23.8375C198.219 23.9431 198.438 24.1219 198.592 24.3513C198.746 24.5806 198.829 24.8503 198.829 25.1262C198.828 25.4962 198.68 25.851 198.417 26.1126C198.154 26.3742 197.797 26.5212 197.424 26.5212ZM197.424 24.0129C197.202 24.0129 196.985 24.0784 196.8 24.2011C196.615 24.3238 196.471 24.4982 196.386 24.7023C196.301 24.9063 196.279 25.1308 196.322 25.3475C196.366 25.5641 196.473 25.763 196.63 25.9192C196.787 26.0754 196.987 26.1817 197.205 26.2248C197.423 26.2679 197.649 26.2458 197.854 26.1613C198.059 26.0767 198.235 25.9336 198.358 25.75C198.482 25.5664 198.548 25.3505 198.548 25.1296C198.548 24.8335 198.429 24.5494 198.219 24.34C198.008 24.1306 197.722 24.0129 197.424 24.0129Z" fill="white"/>
<g style="mix-blend-mode:darken" opacity="0.4">
<g style="mix-blend-mode:darken" opacity="0.4">
<path d="M195.018 37.3948C195.715 37.3948 196.28 36.8333 196.28 36.1407C196.28 35.4481 195.715 34.8866 195.018 34.8866C194.321 34.8866 193.756 35.4481 193.756 36.1407C193.756 36.8333 194.321 37.3948 195.018 37.3948Z" fill="white"/>
</g>
<g style="mix-blend-mode:darken" opacity="0.4">
<path d="M195.017 37.5365C194.74 37.5364 194.468 37.4544 194.238 37.301C194.007 37.1476 193.827 36.9297 193.721 36.6748C193.615 36.4199 193.587 36.1394 193.642 35.8689C193.696 35.5984 193.83 35.3499 194.026 35.1549C194.222 34.9599 194.472 34.8271 194.745 34.7734C195.017 34.7196 195.299 34.7473 195.555 34.8529C195.812 34.9585 196.031 35.1373 196.185 35.3667C196.339 35.5961 196.422 35.8657 196.422 36.1416C196.421 36.5116 196.273 36.8662 196.01 37.1278C195.746 37.3893 195.389 37.5363 195.017 37.5365ZM195.017 35.0284C194.795 35.0284 194.578 35.0938 194.393 35.2165C194.208 35.3392 194.064 35.5136 193.979 35.7177C193.894 35.9217 193.872 36.1463 193.915 36.3629C193.959 36.5795 194.066 36.7785 194.223 36.9346C194.38 37.0908 194.58 37.1971 194.798 37.2402C195.016 37.2833 195.242 37.2612 195.447 37.1767C195.652 37.0922 195.828 36.949 195.951 36.7654C196.075 36.5817 196.141 36.3659 196.141 36.145C196.141 35.8489 196.022 35.5648 195.812 35.3554C195.601 35.146 195.315 35.0284 195.017 35.0284Z" fill="white"/>
</g>
</g>
<path d="M189.457 50.1566C190.154 50.1566 190.719 49.5951 190.719 48.9025C190.719 48.2099 190.154 47.6484 189.457 47.6484C188.76 47.6484 188.195 48.2099 188.195 48.9025C188.195 49.5951 188.76 50.1566 189.457 50.1566Z" fill="white"/>
<path d="M189.457 50.2992C189.179 50.2993 188.907 50.2176 188.676 50.0643C188.445 49.9111 188.265 49.6931 188.159 49.4381C188.052 49.183 188.024 48.9024 188.078 48.6315C188.132 48.3607 188.266 48.1119 188.463 47.9166C188.659 47.7213 188.909 47.5883 189.182 47.5344C189.454 47.4805 189.737 47.508 189.993 47.6137C190.25 47.7193 190.469 47.8982 190.624 48.1278C190.778 48.3573 190.86 48.6272 190.86 48.9033C190.86 49.2732 190.712 49.6279 190.449 49.8895C190.186 50.1512 189.829 50.2985 189.457 50.2992ZM189.457 47.7901C189.235 47.7901 189.017 47.8556 188.833 47.9783C188.648 48.101 188.504 48.2754 188.419 48.4794C188.334 48.6835 188.312 48.908 188.355 49.1246C188.398 49.3412 188.505 49.5402 188.662 49.6964C188.819 49.8525 189.02 49.9589 189.238 50.002C189.456 50.0451 189.681 50.0229 189.887 49.9384C190.092 49.8539 190.268 49.7108 190.391 49.5272C190.514 49.3435 190.58 49.1276 190.58 48.9068C190.58 48.6106 190.462 48.3266 190.251 48.1172C190.041 47.9078 189.755 47.7901 189.457 47.7901Z" fill="white"/>
<path d="M202.554 48.9035C203.251 48.9035 203.816 48.342 203.816 47.6494C203.816 46.9567 203.251 46.3953 202.554 46.3953C201.857 46.3953 201.292 46.9567 201.292 47.6494C201.292 48.342 201.857 48.9035 202.554 48.9035Z" fill="white"/>
<path d="M202.553 49.0442C202.275 49.0442 202.004 48.9624 201.773 48.8091C201.542 48.6558 201.362 48.4379 201.256 48.183C201.15 47.9281 201.122 47.6477 201.176 47.3771C201.23 47.1065 201.364 46.8579 201.56 46.6628C201.757 46.4677 202.007 46.3349 202.279 46.281C202.551 46.2272 202.833 46.2548 203.09 46.3604C203.346 46.466 203.566 46.6448 203.72 46.8742C203.874 47.1036 203.956 47.3733 203.956 47.6492C203.956 48.019 203.808 48.3736 203.545 48.6351C203.282 48.8966 202.925 49.0437 202.553 49.0442ZM202.553 46.536C202.331 46.536 202.113 46.6015 201.929 46.7242C201.744 46.8469 201.6 47.0213 201.515 47.2253C201.43 47.4294 201.407 47.6539 201.451 47.8705C201.494 48.0871 201.601 48.2861 201.758 48.4422C201.915 48.5984 202.116 48.7048 202.334 48.7479C202.552 48.7909 202.777 48.7688 202.983 48.6843C203.188 48.5998 203.363 48.4567 203.487 48.273C203.61 48.0894 203.676 47.8735 203.676 47.6527C203.676 47.3565 203.558 47.0725 203.347 46.863C203.137 46.6536 202.851 46.536 202.553 46.536Z" fill="white"/>
<path d="M184.348 26.7024C185.045 26.7024 185.61 26.1409 185.61 25.4483C185.61 24.7557 185.045 24.1942 184.348 24.1942C183.651 24.1942 183.086 24.7557 183.086 25.4483C183.086 26.1409 183.651 26.7024 184.348 26.7024Z" fill="white"/>
<path d="M184.348 26.845C184.07 26.845 183.799 26.7631 183.568 26.6098C183.337 26.4564 183.157 26.2384 183.051 25.9833C182.944 25.7283 182.916 25.4476 182.971 25.1769C183.025 24.9061 183.159 24.6574 183.355 24.4622C183.551 24.267 183.802 24.134 184.074 24.0802C184.346 24.0263 184.629 24.054 184.885 24.1596C185.142 24.2653 185.361 24.4441 185.516 24.6737C185.67 24.9032 185.752 25.1731 185.752 25.4492C185.752 25.8192 185.604 26.174 185.341 26.4357C185.077 26.6973 184.72 26.8445 184.348 26.845ZM184.348 24.336C184.126 24.336 183.909 24.4014 183.724 24.5241C183.539 24.6468 183.395 24.8213 183.31 25.0253C183.225 25.2293 183.203 25.4539 183.246 25.6705C183.289 25.8871 183.396 26.086 183.554 26.2422C183.711 26.3984 183.911 26.5047 184.129 26.5478C184.347 26.5909 184.573 26.5688 184.778 26.4843C184.983 26.3998 185.159 26.2566 185.282 26.073C185.406 25.8894 185.472 25.6735 185.472 25.4526C185.472 25.1564 185.353 24.8724 185.142 24.663C184.932 24.4536 184.646 24.336 184.348 24.336Z" fill="white"/>
<path d="M168.904 32.8235C169.601 32.8235 170.166 32.262 170.166 31.5694C170.166 30.8768 169.601 30.3153 168.904 30.3153C168.207 30.3153 167.642 30.8768 167.642 31.5694C167.642 32.262 168.207 32.8235 168.904 32.8235Z" fill="white"/>
<path d="M168.902 32.9651C168.624 32.9651 168.353 32.8832 168.122 32.7298C167.891 32.5765 167.711 32.3585 167.605 32.1034C167.498 31.8484 167.47 31.5677 167.525 31.297C167.579 31.0262 167.713 30.7775 167.909 30.5823C168.105 30.3871 168.356 30.2541 168.628 30.2003C168.9 30.1464 169.183 30.174 169.439 30.2797C169.696 30.3853 169.915 30.5642 170.07 30.7938C170.224 31.0233 170.306 31.2932 170.306 31.5693C170.306 31.9394 170.158 32.2943 169.895 32.556C169.632 32.8177 169.274 32.9649 168.902 32.9651ZM168.902 30.456C168.68 30.456 168.463 30.5215 168.278 30.6442C168.093 30.7669 167.949 30.9413 167.864 31.1454C167.779 31.3494 167.757 31.5739 167.8 31.7906C167.843 32.0072 167.95 32.2061 168.108 32.3623C168.265 32.5185 168.465 32.6248 168.683 32.6679C168.901 32.711 169.127 32.6889 169.332 32.6044C169.537 32.5198 169.713 32.3767 169.836 32.1931C169.96 32.0094 170.026 31.7936 170.026 31.5727C170.025 31.2767 169.907 30.9929 169.696 30.7837C169.485 30.5744 169.2 30.4569 168.902 30.4569V30.456Z" fill="white"/>
<path d="M190.077 19.5592C190.774 19.5592 191.339 18.9977 191.339 18.3051C191.339 17.6125 190.774 17.051 190.077 17.051C189.38 17.051 188.815 17.6125 188.815 18.3051C188.815 18.9977 189.38 19.5592 190.077 19.5592Z" fill="white"/>
<path d="M190.077 19.7001C189.799 19.7001 189.528 19.6182 189.297 19.4648C189.066 19.3115 188.886 19.0935 188.78 18.8384C188.673 18.5834 188.645 18.3027 188.7 18.0319C188.754 17.7612 188.888 17.5125 189.084 17.3173C189.28 17.122 189.531 16.9891 189.803 16.9352C190.076 16.8814 190.358 16.909 190.614 17.0147C190.871 17.1203 191.09 17.2992 191.245 17.5288C191.399 17.7583 191.482 18.0282 191.482 18.3042C191.481 18.6743 191.333 19.0291 191.07 19.2907C190.806 19.5524 190.449 19.6996 190.077 19.7001ZM190.077 17.191C189.855 17.191 189.638 17.2565 189.453 17.3792C189.268 17.5019 189.124 17.6763 189.039 17.8803C188.954 18.0844 188.932 18.3089 188.975 18.5255C189.018 18.7421 189.125 18.9411 189.283 19.0973C189.44 19.2534 189.64 19.3598 189.858 19.4029C190.076 19.446 190.302 19.4239 190.507 19.3393C190.712 19.2548 190.888 19.1117 191.011 18.9281C191.135 18.7444 191.201 18.5285 191.201 18.3077C191.2 18.0117 191.082 17.7279 190.871 17.5186C190.661 17.3094 190.375 17.1919 190.077 17.1919V17.191Z" fill="white"/>
<path d="M177.386 22.6162C178.083 22.6162 178.648 22.0547 178.648 21.3621C178.648 20.6695 178.083 20.108 177.386 20.108C176.689 20.108 176.124 20.6695 176.124 21.3621C176.124 22.0547 176.689 22.6162 177.386 22.6162Z" fill="white"/>
<path d="M177.386 22.758C177.109 22.7578 176.837 22.6758 176.607 22.5225C176.376 22.3691 176.196 22.1511 176.09 21.8962C175.984 21.6413 175.956 21.3609 176.01 21.0903C176.065 20.8198 176.198 20.5713 176.395 20.3763C176.591 20.1813 176.841 20.0485 177.113 19.9948C177.386 19.941 177.668 19.9687 177.924 20.0743C178.181 20.1799 178.4 20.3587 178.554 20.5881C178.708 20.8175 178.791 21.0871 178.791 21.363C178.79 21.733 178.642 22.0877 178.379 22.3492C178.115 22.6107 177.758 22.7578 177.386 22.758ZM177.386 20.2498C177.164 20.2498 176.947 20.3153 176.762 20.438C176.577 20.5607 176.433 20.7351 176.348 20.9391C176.263 21.1432 176.241 21.3677 176.284 21.5843C176.328 21.8009 176.435 21.9999 176.592 22.156C176.749 22.3122 176.949 22.4186 177.167 22.4616C177.385 22.5047 177.611 22.4826 177.816 22.3981C178.021 22.3136 178.197 22.1705 178.32 21.9868C178.444 21.8032 178.51 21.5873 178.51 21.3665C178.509 21.0709 178.39 20.7877 178.179 20.5791C177.969 20.3704 177.683 20.2532 177.386 20.2532V20.2498Z" fill="white"/>
<path d="M177.256 21.3033L173.446 29.8231L173.705 29.9375L177.515 21.4177L177.256 21.3033Z" fill="white"/>
<g style="mix-blend-mode:darken">
<path style="mix-blend-mode:darken" d="M183.953 26.3696C182.605 30.3209 181.22 34.3349 179.832 38.3136L183.953 26.3696Z" fill="#F9F9F9"/>
<path style="mix-blend-mode:darken" d="M179.954 38.3938L184.084 26.4137L183.816 26.3227L179.668 38.3483C179.764 38.3537 179.86 38.3689 179.954 38.3938Z" fill="url(#paint1_linear)"/>
</g>
<g style="mix-blend-mode:darken">
<path style="mix-blend-mode:darken" d="M169.25 41.7798C172.244 41.1587 175.196 40.5591 178.234 39.933L169.25 41.7798Z" fill="white"/>
<path style="mix-blend-mode:darken" d="M178.199 39.7957L169.216 41.6424L169.285 41.9173L178.244 40.0757C178.221 39.9839 178.205 39.8902 178.199 39.7957Z" fill="url(#paint2_linear)"/>
</g>
<g style="mix-blend-mode:darken" opacity="0.4">
<g style="mix-blend-mode:darken" opacity="0.4">
<path d="M180.9 39.2065V39.2125C183.772 38.5605 186.646 37.8484 189.512 37.151L180.9 39.2065Z" fill="white"/>
</g>
<g style="mix-blend-mode:darken" opacity="0.4">
<path d="M189.514 37.1508L193.538 36.1914C192.199 36.5029 190.858 36.8227 189.514 37.1508Z" fill="white"/>
</g>
<g style="mix-blend-mode:darken" opacity="0.4">
<path d="M180.835 39.0758C180.882 39.16 180.92 39.2482 180.951 39.3396L193.626 36.3194C193.618 36.2229 193.615 36.1259 193.618 36.0291L180.835 39.0758Z" fill="white"/>
</g>
</g>
<g style="mix-blend-mode:darken">
<path style="mix-blend-mode:darken" d="M196.413 35.9628C200.397 35.347 204.33 34.5172 208.323 33.9013L196.413 35.9628Z" fill="url(#paint3_linear)"/>
<path style="mix-blend-mode:darken" d="M196.42 36.1038L208.359 34.0328L208.281 33.7579L196.38 35.8083C196.402 35.9056 196.415 36.0044 196.42 36.1038Z" fill="url(#paint4_linear)"/>
</g>
<path d="M207.433 33.3027L198.221 25.6372L198.46 25.4491L207.671 33.1146L207.433 33.3027Z" fill="white"/>
<g style="mix-blend-mode:darken">
<path style="mix-blend-mode:darken" d="M195.344 34.76C195.955 31.739 196.68 28.6613 197.332 25.6712L195.344 34.76Z" fill="url(#paint5_linear)"/>
<path style="mix-blend-mode:darken" d="M195.488 34.8256L197.463 25.7016L197.185 25.6415L195.197 34.7543C195.296 34.7709 195.393 34.7947 195.488 34.8256Z" fill="url(#paint6_linear)"/>
</g>
<g style="mix-blend-mode:darken">
<path style="mix-blend-mode:darken" d="M184.462 25.339C187.644 28.6094 190.818 31.8618 193.985 35.0961L184.462 25.339Z" fill="url(#paint7_linear)"/>
<path style="mix-blend-mode:darken" d="M194.152 35.0662L184.559 25.2396L184.355 25.4363L193.922 35.2328C193.994 35.1706 194.071 35.1148 194.152 35.0662Z" fill="url(#paint8_linear)"/>
</g>
<path d="M189.973 18.7625L184.732 25.035L184.951 25.215L190.191 18.9425L189.973 18.7625Z" fill="white"/>
<path d="M177.936 21.2434L177.784 21.4814L183.772 25.2431L183.923 25.0051L177.936 21.2434Z" fill="white"/>
<path d="M196.758 24.9897L185.605 25.3092L185.614 25.5909L196.766 25.2715L196.758 24.9897Z" fill="white"/>
<path d="M190.523 18.2105L190.315 18.4015L196.651 25.2237L196.859 25.0327L190.523 18.2105Z" fill="white"/>
<path d="M190.474 18.1756L190.363 18.4349L202.039 23.3711L202.15 23.1119L190.474 18.1756Z" fill="white"/>
<path d="M203.482 24.1305L203.23 24.2603L207.743 32.8855L207.995 32.7557L203.482 24.1305Z" fill="white"/>
<path d="M208.547 34.3079L208.262 34.3197L208.644 43.4857L208.928 43.4739L208.547 34.3079Z" fill="white"/>
<path d="M203.3 47.0462L203.085 46.9208L208.128 34.1093L208.343 34.2347L203.3 47.0462Z" fill="white"/>
<g style="mix-blend-mode:darken">
<path style="mix-blend-mode:darken" d="M195.979 37.2325C196.882 38.7632 197.786 40.2604 198.75 41.8168C198.991 42.2961 199.231 42.6543 199.473 43.1345C200.556 44.8696 201.52 46.5463 202.554 48.2496" fill="white"/>
<path style="mix-blend-mode:darken" d="M196.052 37.0787C195.986 37.1488 195.913 37.2124 195.835 37.2685L202.431 48.3209L202.676 48.1766L196.052 37.0787Z" fill="url(#paint9_linear)"/>
</g>
<g style="mix-blend-mode:darken">
<path style="mix-blend-mode:darken" d="M194.185 37.3571C193.69 38.5811 193.268 39.7776 192.847 40.975C192.665 41.3951 192.545 41.7533 192.365 42.1132C191.582 44.1481 190.982 46.244 190.078 48.2462" fill="white"/>
<path style="mix-blend-mode:darken" d="M194.095 37.193L189.947 48.2016L190.212 48.3003L194.341 37.3631C194.253 37.3153 194.171 37.2583 194.095 37.193Z" fill="url(#paint10_linear)"/>
</g>
<g style="mix-blend-mode:darken">
<path style="mix-blend-mode:darken" d="M180.687 40.7629C181.644 41.6373 182.607 42.5951 183.631 43.4936C185.68 45.4692 187.667 47.3254 189.681 49.2487" fill="white"/>
<path style="mix-blend-mode:darken" d="M180.714 40.5997C180.653 40.6752 180.586 40.7451 180.513 40.8084L189.588 49.3475L189.782 49.1422L180.714 40.5997Z" fill="url(#paint11_linear)"/>
</g>
<g style="mix-blend-mode:darken">
<path style="mix-blend-mode:darken" d="M179.588 41.207C179.293 44.7511 178.991 48.3433 178.649 51.8582L179.588 41.207Z" fill="white"/>
<path style="mix-blend-mode:darken" d="M179.606 41.1434C179.556 41.1438 179.506 41.1412 179.456 41.1357L178.505 51.8488L178.788 51.8737L179.733 41.1365C179.694 41.1391 179.646 41.1434 179.606 41.1434Z" fill="url(#paint12_linear)"/>
</g>
<path d="M169.681 42.1345L169.464 42.3159L178.237 52.6627L178.454 52.4813L169.681 42.1345Z" fill="white"/>
<path d="M168.072 42.8339L167.811 42.9428L171.903 52.6285L172.165 52.5195L168.072 42.8339Z" fill="white"/>
<path d="M168.505 31.5648L168.17 40.9655L168.454 40.9753L168.789 31.5746L168.505 31.5648Z" fill="white"/>
<path d="M173.161 30.6212L169.217 41.6742L169.485 41.7683L173.429 30.7153L173.161 30.6212Z" fill="white"/>
<path d="M172.464 30.4545L169.555 31.2206L169.628 31.4929L172.537 30.7269L172.464 30.4545Z" fill="white"/>
<path d="M177.075 21.0841L168.578 31.0651L168.795 31.2471L177.292 21.2661L177.075 21.0841Z" fill="white"/>
<path d="M178.022 21.0203L177.824 20.7798L189.716 18.0396L189.914 18.2802L178.022 21.0203Z" fill="white"/>
<path d="M189.321 48.8217L179.737 52.4424L179.838 52.7057L189.422 49.085L189.321 48.8217Z" fill="white"/>
<path d="M172.444 52.4342L172.427 52.7155L177.747 53.0193L177.763 52.7381L172.444 52.4342Z" fill="white"/>
<path d="M172.513 52.9959L172.356 53.2308L180.646 58.6815L180.803 58.4466L172.513 52.9959Z" fill="white"/>
<path d="M178.776 53.055L178.518 53.1724L181.214 59.0159L181.472 58.8985L178.776 53.055Z" fill="white"/>
<path d="M192.545 59.4995L179.511 53.394L179.619 53.0237L192.652 59.1293L192.545 59.4995Z" fill="white"/>
<path d="M192.8 59.68L189.742 49.7057L190.076 49.6034L193.133 59.5803L192.8 59.68Z" fill="white"/>
<path d="M201.905 47.9075L190.197 48.7659L190.218 49.0468L201.926 48.1883L201.905 47.9075Z" fill="white"/>
<path d="M193.682 59.3089L193.49 59.0606L202.46 47.5504L202.653 47.7987L193.682 59.3089Z" fill="white"/>
<path d="M202.885 47.7226L202.601 47.7376L202.971 54.7047L203.254 54.6897L202.885 47.7226Z" fill="white"/>
<path d="M203.059 55.0515L193.489 59.3055L193.604 59.5626L203.174 55.3086L203.059 55.0515Z" fill="white"/>
<path d="M181.767 58.6411L181.741 58.9217L193.222 59.9544L193.248 59.6738L181.767 58.6411Z" fill="white"/>
<path d="M208.666 43.4199L202.984 55.112L203.239 55.2344L208.921 43.5423L208.666 43.4199Z" fill="white"/>
<path d="M209.053 43.3639L202.664 47.614L202.822 47.8481L209.211 43.5979L209.053 43.3639Z" fill="white"/>
<g style="mix-blend-mode:darken">
<path style="mix-blend-mode:darken" d="M173.947 30.3172L174.264 30.8567L175.084 32.2516L176.215 34.1749L177.467 36.3017L178.646 38.3091L178.781 38.5376" fill="white"/>
<path style="mix-blend-mode:darken" d="M178.921 38.5278L174.05 30.2551L173.839 30.3805L178.714 38.6695C178.779 38.6168 178.849 38.5694 178.921 38.5278Z" fill="url(#paint13_linear)"/>
</g>
<path d="M174.112 30.1005L173.995 29.8084L183.508 26.0229L183.625 26.315L174.112 30.1005Z" fill="white"/>
<path d="M201.614 23.8163L198.705 24.5824L198.778 24.8547L201.687 24.0887L201.614 23.8163Z" fill="white"/>
<path d="M185.135 49.8422C185.39 48.9465 185.645 48.0512 185.899 47.1562C186.446 45.2381 186.999 43.3217 187.541 41.4011C187.602 41.2533 187.623 41.0924 187.602 40.9343C187.581 40.7761 187.519 40.626 187.422 40.4986C187.326 40.3713 187.197 40.2711 187.05 40.2078C186.903 40.1445 186.741 40.1203 186.582 40.1375C184.97 40.1307 183.357 40.1375 181.742 40.1375C181.574 40.1446 181.406 40.1246 181.244 40.0783C184.707 36.0789 188.237 32.1543 191.746 28.2124L191.854 28.2614C191.822 28.3954 191.798 28.532 191.755 28.6625C191.063 30.7355 190.372 32.8079 189.68 34.8798C189.398 35.7284 189.788 36.2739 190.691 36.2773C192.315 36.2851 193.94 36.2773 195.566 36.2833C195.725 36.2833 195.885 36.3005 196.18 36.3168L185.255 49.9135L185.135 49.8422Z" fill="white"/>
<path d="M185.273 49.9993L185.055 49.8748L185.306 48.9875C185.479 48.3701 185.655 47.7531 185.833 47.1364C186.011 46.5196 186.185 45.9089 186.356 45.3042C186.73 43.9974 187.103 42.6904 187.474 41.383C187.53 41.2452 187.55 41.0953 187.53 40.9478C187.511 40.8003 187.453 40.6604 187.363 40.5417C187.273 40.423 187.153 40.3296 187.016 40.2706C186.879 40.2117 186.728 40.1892 186.579 40.2053C185.427 40.2002 184.276 40.2053 183.122 40.2053H181.739C181.564 40.2127 181.389 40.1918 181.221 40.1435L181.121 40.1134L181.19 40.0344C183.888 36.9189 186.673 33.7974 189.364 30.779C190.141 29.9086 190.917 29.0379 191.692 28.1669L191.726 28.1291L191.93 28.2236L191.917 28.2768C191.908 28.3189 191.898 28.3627 191.888 28.4031C191.869 28.4979 191.845 28.5917 191.816 28.684C191.49 29.6638 191.163 30.6433 190.836 31.6225C190.471 32.7151 190.106 33.808 189.742 34.9012C189.658 35.0486 189.618 35.2169 189.627 35.386C189.637 35.5551 189.694 35.7181 189.794 35.8557C189.893 35.9933 190.03 36.0997 190.188 36.1624C190.347 36.225 190.52 36.2414 190.687 36.2094C192.313 36.2171 193.937 36.2094 195.563 36.2154C195.667 36.2154 195.769 36.2232 195.908 36.2317L196.178 36.2481L196.309 36.2558L185.273 49.9993ZM185.215 49.8104L185.241 49.8241L196.044 36.3735L195.904 36.364C195.766 36.3546 195.666 36.3486 195.566 36.3486C193.94 36.3486 192.315 36.3486 190.69 36.3426C190.501 36.3741 190.306 36.3524 190.129 36.2798C189.952 36.2072 189.798 36.0866 189.687 35.9318C189.575 35.7769 189.509 35.594 189.496 35.4038C189.484 35.2136 189.525 35.0237 189.616 34.8557C189.979 33.7631 190.343 32.6702 190.709 31.577C191.037 30.5978 191.364 29.6183 191.69 28.6385C191.718 28.5526 191.738 28.4667 191.759 28.3722C191.764 28.3473 191.769 28.3224 191.775 28.2974L191.764 28.2923C191.001 29.1513 190.236 30.0102 189.469 30.8692C186.801 33.8601 184.043 36.9533 181.368 40.0413C181.49 40.0647 181.615 40.0745 181.739 40.0705H183.122C184.275 40.0705 185.427 40.0705 186.579 40.0705C186.749 40.0532 186.921 40.0799 187.078 40.1478C187.235 40.2158 187.371 40.3227 187.474 40.4584C187.577 40.594 187.643 40.7538 187.666 40.9222C187.689 41.0906 187.668 41.262 187.604 41.4199C187.236 42.7284 186.864 44.0358 186.487 45.342L185.963 47.1742C185.787 47.7915 185.611 48.4085 185.437 49.0253L185.215 49.8104Z" fill="white"/>
<defs>
<linearGradient id="paint0_linear" x1="171.147" y1="39.0703" x2="206.289" y2="39.0703" gradientUnits="userSpaceOnUse">
<stop stop-color="#EC2224"/>
<stop offset="1" stop-color="#DB1961"/>
</linearGradient>
<linearGradient id="paint1_linear" x1="181.876" y1="26.3227" x2="181.876" y2="38.6473" gradientUnits="userSpaceOnUse">
<stop stop-color="#231F20"/>
<stop offset="1" stop-color="#342E30" stop-opacity="0.4"/>
</linearGradient>
<linearGradient id="paint2_linear" x1="169.216" y1="40.8565" x2="179.183" y2="40.8565" gradientUnits="userSpaceOnUse">
<stop stop-color="#231F20"/>
<stop offset="1" stop-color="#342E30" stop-opacity="0.4"/>
</linearGradient>
<linearGradient id="paint3_linear" x1="210.574" y1="-185.193" x2="210.574" y2="-183.83" gradientUnits="userSpaceOnUse">
<stop stop-color="#231F20"/>
<stop offset="1" stop-color="#342E30" stop-opacity="0.4"/>
</linearGradient>
<linearGradient id="paint4_linear" x1="210.575" y1="-185.651" x2="210.575" y2="-183.905" gradientUnits="userSpaceOnUse">
<stop stop-color="#231F20"/>
<stop offset="1" stop-color="#342E30" stop-opacity="0.4"/>
</linearGradient>
<linearGradient id="paint5_linear" x1="204.554" y1="240.984" x2="204.554" y2="250.173" gradientUnits="userSpaceOnUse">
<stop stop-color="#231F20"/>
<stop offset="1" stop-color="#342E30" stop-opacity="0.4"/>
</linearGradient>
<linearGradient id="paint6_linear" x1="204.531" y1="240.953" x2="204.531" y2="251.01" gradientUnits="userSpaceOnUse">
<stop stop-color="#231F20"/>
<stop offset="1" stop-color="white" stop-opacity="0.4"/>
</linearGradient>
<linearGradient id="paint7_linear" x1="186.033" y1="112.665" x2="195.785" y2="112.665" gradientUnits="userSpaceOnUse">
<stop stop-color="#231F20"/>
<stop offset="1" stop-color="#342E30" stop-opacity="0.4"/>
</linearGradient>
<linearGradient id="paint8_linear" x1="185.932" y1="112.681" x2="196.797" y2="112.681" gradientUnits="userSpaceOnUse">
<stop stop-color="#231F20"/>
<stop offset="1" stop-color="#342E30" stop-opacity="0.4"/>
</linearGradient>
<linearGradient id="paint9_linear" x1="199.255" y1="48.3209" x2="199.255" y2="36.4041" gradientUnits="userSpaceOnUse">
<stop stop-color="#231F20"/>
<stop offset="1" stop-color="#342E30" stop-opacity="0.4"/>
</linearGradient>
<linearGradient id="paint10_linear" x1="189.947" y1="42.7467" x2="194.79" y2="42.7467" gradientUnits="userSpaceOnUse">
<stop stop-color="#231F20"/>
<stop offset="1" stop-color="#342E30" stop-opacity="0.4"/>
</linearGradient>
<linearGradient id="paint11_linear" x1="185.148" y1="49.3475" x2="185.148" y2="39.6287" gradientUnits="userSpaceOnUse">
<stop stop-color="#231F20"/>
<stop offset="1" stop-color="#342E30" stop-opacity="0.4"/>
</linearGradient>
<linearGradient id="paint12_linear" x1="178.505" y1="46.5047" x2="179.745" y2="46.5047" gradientUnits="userSpaceOnUse">
<stop stop-color="#231F20"/>
<stop offset="1" stop-color="#342E30" stop-opacity="0.4"/>
</linearGradient>
<linearGradient id="paint13_linear" x1="173.839" y1="34.4623" x2="180.156" y2="34.4623" gradientUnits="userSpaceOnUse">
<stop stop-color="#231F20"/>
<stop offset="1" stop-color="#342E30" stop-opacity="0.4"/>
</linearGradient>
</defs>
</svg>
