<svg width="90" height="57" viewBox="0 0 90 57" fill="none" xmlns="http://www.w3.org/2000/svg">
<g clip-path="url(#clip0)">
<path d="M80.9839 24.7963C81.3119 20.5967 81.6399 16.3972 81.9752 12.1466C84.6574 12.1466 87.2959 12.1466 90.0072 12.1466C88.4037 19.1531 86.8075 26.1232 85.1968 33.137C85 33.1516 84.8105 33.1735 84.6209 33.1735C82.1647 33.1735 79.7084 33.1662 77.2521 33.1808C76.8148 33.1808 76.6107 33.1152 76.5306 32.6048C75.9985 29.1198 75.4227 25.642 74.8615 22.1643C74.8469 22.0695 74.8177 21.9674 74.6647 21.8726C74.0597 25.6129 73.4621 29.3604 72.8571 33.137C70.0218 33.137 67.2011 33.137 64.3003 33.137C62.7551 26.1815 61.2099 19.2042 59.6428 12.1393C59.9271 12.1175 60.1384 12.0956 60.3425 12.0956C62.7988 12.0956 65.2551 12.1102 67.7113 12.081C68.2726 12.0737 68.3892 12.2779 68.4183 12.7955C68.6661 16.7763 68.9358 20.7498 69.2128 24.7234C69.2201 24.8619 69.2857 25.0004 69.4533 25.1389C69.6282 24.0307 69.8177 22.9152 69.9854 21.807C70.4373 18.774 70.8819 15.741 71.3265 12.708C71.3848 12.2852 71.5233 12.0737 72.0262 12.081C74.1326 12.1102 76.239 12.1102 78.3382 12.081C78.8556 12.0737 79.0014 12.2706 79.067 12.7445C79.621 16.6451 80.1968 20.5457 80.7653 24.439C80.7798 24.563 80.8236 24.6796 80.8527 24.8036C80.8819 24.8036 80.9329 24.8036 80.9839 24.7963Z" fill="white"/>
<path d="M0.466553 33.1296C0.466553 26.1304 0.466553 19.1676 0.466553 12.1757C0.583171 12.1465 0.685212 12.0955 0.787252 12.1028C5.2406 12.11 9.69396 12.0955 14.1473 12.1538C15.6779 12.1757 17.1138 12.6642 18.4112 13.5245C21.2829 15.4347 21.3631 20.4727 17.6969 21.9965C17.5803 22.0475 17.4636 22.1131 17.3907 22.1496C18.105 22.5943 18.8995 22.9516 19.5263 23.5057C22.0409 25.7294 21.487 30.0164 18.4913 31.8391C16.9243 32.787 15.175 33.1296 13.3893 33.1515C9.16918 33.2098 4.95635 33.1734 0.743521 33.1734C0.677923 33.1734 0.619614 33.1515 0.466553 33.1296ZM8.52778 24.8909C8.52778 26.0794 8.52778 27.1803 8.52778 28.3176C9.36597 28.3176 10.175 28.3833 10.9622 28.3031C11.9024 28.201 12.3908 27.4865 12.3543 26.4803C12.3179 25.5617 11.7858 24.9638 10.8528 24.9055C10.0948 24.8472 9.33681 24.8909 8.52778 24.8909ZM8.52049 20.0352C9.42428 20.0352 10.2552 20.0644 11.0788 20.0279C11.8368 19.9915 12.3543 19.4374 12.4418 18.6791C12.5219 17.9136 12.1429 17.1772 11.4287 17.0605C10.4811 16.9074 9.50445 16.9366 8.52778 16.8783C8.52049 18.0084 8.52049 18.9853 8.52049 20.0352Z" fill="white"/>
<path d="M21.9243 12.0955C22.2231 12.0955 22.4564 12.0955 22.6969 12.0955C26.6254 12.0955 30.5467 12.0882 34.4753 12.0955C36.1152 12.0955 37.7115 12.3726 39.1473 13.2183C41.0934 14.363 41.9389 16.1055 41.815 18.3438C41.7056 20.429 40.6488 21.8653 38.8047 22.7694C38.6881 22.8277 38.5788 22.8933 38.4112 22.9808C40.7727 23.9578 41.3631 25.9555 41.4797 28.1646C41.5671 29.7978 41.4943 31.4455 41.4943 33.1807C41.4359 33.1807 41.2246 33.1807 41.0132 33.1807C38.7537 33.1807 36.4943 33.1516 34.2348 33.2026C33.6517 33.2172 33.433 32.9912 33.3966 32.4881C33.3018 31.0882 33.2289 29.6957 33.1488 28.2958C33.1269 27.924 33.1561 27.5449 33.1123 27.1803C33.0249 26.3638 32.6021 25.9044 31.7858 25.7878C31.2319 25.7076 30.6633 25.7149 30.0147 25.6784C30.0147 28.2083 30.0147 30.6508 30.0147 33.137C27.2741 33.137 24.6138 33.137 21.917 33.137C21.9243 26.1377 21.9243 19.175 21.9243 12.0955ZM30.0875 17.1408C30.0875 18.3292 30.0875 19.503 30.0875 20.7352C30.8456 20.6915 31.5307 20.7206 32.194 20.5967C33.1561 20.4144 33.5715 19.7655 33.5278 18.7156C33.4986 17.8626 32.9738 17.2575 32.0555 17.1481C31.4068 17.0825 30.7508 17.1408 30.0875 17.1408Z" fill="white"/>
<path d="M42.5874 33.1298C42.5874 26.1379 42.5874 19.1751 42.5874 12.1394C42.8425 12.1248 43.0757 12.103 43.309 12.103C48.1778 12.103 53.0466 12.1103 57.9154 12.0884C58.4693 12.0884 58.6661 12.2634 58.7754 12.781C59.1107 14.385 59.497 15.9744 59.8833 17.644C56.7784 17.644 53.739 17.644 50.6559 17.644C50.6559 18.3731 50.6559 19.0366 50.6559 19.7657C53.5932 19.7657 56.516 19.7657 59.4897 19.7657C59.4897 21.6321 59.4897 23.4403 59.4897 25.3286C56.5378 25.3286 53.6078 25.3286 50.6486 25.3286C50.6486 26.1233 50.6486 26.8305 50.6486 27.6252C54.0233 27.6252 57.3687 27.6252 60.7725 27.6252C60.4737 29.5063 60.1894 31.2925 59.8979 33.1225C54.1399 33.1298 48.4037 33.1298 42.5874 33.1298Z" fill="white"/>
<path d="M23.4037 9.49283C22.9081 6.8827 21.7565 4.62253 20.0728 2.63212C19.6501 2.12905 19.1763 1.66973 18.7171 1.20311C18.4547 0.93335 18.2361 0.649007 18.5203 0.291754C18.8192 -0.087371 19.2128 -0.0582075 19.5699 0.196973C20.4737 0.84586 21.4285 1.30518 22.5437 1.50933C23.0174 1.59682 23.411 2.05614 23.8556 2.31862C24.3075 2.58838 24.7594 2.90918 25.255 3.06957C25.9985 3.31017 26.1734 3.6091 25.6632 4.19237C24.4533 5.56305 25.1311 7.33473 26.1442 8.15131C26.3556 8.319 26.6545 8.4794 26.9096 8.47211C27.223 8.46482 27.6822 8.35545 27.8061 8.13673C27.9227 7.94717 27.6676 7.53159 27.5728 7.22537C27.5582 7.16704 27.4854 7.13059 27.4416 7.07955C26.9679 6.53274 26.9096 5.85469 27.2886 5.40265C27.6676 4.95062 28.4183 4.885 29.0378 5.24225C29.6355 5.59222 29.7959 6.0807 29.5626 6.75146C29.4897 6.95561 29.3658 7.19621 29.4168 7.37119C29.5116 7.70657 29.6501 8.14402 29.9052 8.28255C30.1603 8.42107 30.6413 8.34087 30.9256 8.17318C31.7711 7.68469 32.0189 6.29943 31.4722 5.41723C31.3483 5.21309 31.188 5.03082 31.0349 4.84126C30.3789 4.03926 30.3789 4.03926 31.1078 3.26643C32.376 1.91762 32.9591 1.94678 34.1909 3.33934C34.6209 3.82783 34.6938 4.21424 34.2784 4.77564C33.4402 5.9203 33.411 7.06497 34.2055 7.97633C34.4606 8.26796 34.927 8.49398 35.3206 8.53773C35.9766 8.60334 36.341 8.07111 36.188 7.39306C36.1151 7.07226 35.9547 6.78063 35.8891 6.45983C35.7871 5.96405 35.9475 5.53389 36.3994 5.27871C36.8731 5.01624 37.3687 5.03082 37.8206 5.3662C38.2652 5.70158 38.2215 6.15361 38.0684 6.62023C38.0393 6.70043 37.9956 6.78063 37.9664 6.86083C37.7113 7.50971 37.8498 8.03466 38.36 8.37004C38.8119 8.66896 39.5553 8.5596 39.9854 8.12215C41.0058 7.08684 41.0422 5.86927 40.0801 4.77564C38.9868 3.5289 38.9941 3.53619 40.5757 2.91647C41.618 2.50818 42.5072 1.92491 43.0976 0.918769C43.6078 0.0438646 44.4023 0.0365737 44.8833 0.904187C45.5174 2.04885 46.5233 2.63212 47.6894 3.02583C48.8775 3.42683 48.9431 3.71117 48.0539 4.62253C46.9096 5.78907 46.895 7.06497 48.0101 8.12944C48.5131 8.61063 49.1253 8.71271 49.6209 8.3992C50.1311 8.0784 50.2696 7.50971 49.9854 6.83166C49.7594 6.28485 49.6574 5.75261 50.204 5.35162C50.6559 5.01624 51.1661 5.00895 51.6107 5.35162C52.1282 5.74532 52.2084 6.28485 51.9606 6.8827C51.5961 7.77948 51.6909 8.29713 52.2303 8.53043C52.7842 8.77103 53.6588 8.3992 54.0014 7.72844C54.4824 6.77334 54.446 5.83281 53.7827 4.95062C53.134 4.0903 53.1122 4.04655 53.8921 3.28101C55.2915 1.90304 55.3862 1.92491 56.8002 3.24456C56.946 3.37579 57.0408 3.55806 57.1792 3.69659C57.4999 4.03197 57.4489 4.30902 57.1282 4.6444C56.4577 5.33703 55.8891 6.10258 56.2973 7.15975C56.3994 7.42222 56.5233 7.68469 56.6909 7.91071C57.1063 8.45024 57.6238 8.59605 58.0539 8.33358C58.4985 8.06382 58.6734 7.45139 58.462 6.87541C58.0903 5.85469 58.5276 5.08915 59.5845 5.06727C59.9635 5.05269 60.4956 5.24954 60.6851 5.53389C60.8746 5.82552 60.7725 6.35047 60.6924 6.75146C60.6486 6.97748 60.3717 7.15246 60.2186 7.3639C59.7959 7.94717 60.0072 8.46482 60.7288 8.48669C61.0714 8.49398 61.4868 8.38462 61.7565 8.18047C62.6676 7.46597 63.3892 5.80365 62.3979 4.41839C61.7128 3.4487 61.8148 3.38308 62.9737 3.01854C63.5058 2.85085 63.9285 2.36965 64.4168 2.05614C64.774 1.82284 65.1457 1.50933 65.5393 1.451C66.5087 1.31248 67.325 0.889605 68.0976 0.335499C68.2871 0.196973 68.5203 0.0438646 68.7317 0.0511555C68.9795 0.0584464 69.3585 0.1751 69.4314 0.350081C69.5189 0.561516 69.4387 0.955223 69.2784 1.14479C68.7463 1.78638 68.1122 2.34049 67.5874 2.98208C66.1515 4.73918 65.1384 6.71501 64.672 8.94601C64.5699 9.44179 64.344 9.55845 63.8775 9.55845C50.6049 9.55116 37.3396 9.55116 24.067 9.55116C23.8629 9.54387 23.6443 9.5147 23.4037 9.49283Z" fill="white"/>
<path d="M85.9476 49.3008C85.0948 49.3008 84.293 49.3008 83.4257 49.3008C83.4257 47.2448 83.4257 45.2179 83.4257 43.14C81.3776 43.14 79.3951 43.14 77.3397 43.14C77.3397 45.1961 77.3397 47.2229 77.3397 49.2935C76.4724 49.2935 75.6706 49.2935 74.8105 49.2935C74.8105 44.6784 74.8105 40.0633 74.8105 35.3899C75.605 35.3899 76.4213 35.3899 77.3178 35.3899C77.3178 37.198 77.3178 39.028 77.3178 40.8945C79.3732 40.8945 81.3557 40.8945 83.3965 40.8945C83.3965 39.0572 83.3965 37.2417 83.3965 35.3826C84.2639 35.3826 85.0875 35.3826 85.9549 35.3826C85.9476 39.9977 85.9476 44.6128 85.9476 49.3008Z" fill="white"/>
<path d="M24.9126 35.3242C25.1677 35.3242 25.3645 35.3242 25.554 35.3242C28.4476 35.3242 31.3338 35.3242 34.2857 35.3242C34.2857 36.0606 34.2857 36.7459 34.2857 37.4969C32.019 37.4969 29.7449 37.4969 27.4199 37.4969C27.4199 38.6634 27.4199 39.7644 27.4199 40.9309C29.621 40.9309 31.7857 40.9309 33.9869 40.9309C33.9869 41.66 33.9869 42.3234 33.9869 43.0598C33.7318 43.0744 33.4767 43.089 33.2216 43.0963C31.4869 43.0963 29.7595 43.1182 28.0248 43.089C27.4927 43.0817 27.347 43.2494 27.3615 43.7597C27.398 44.868 27.3688 45.9835 27.3688 47.1427C29.847 47.1427 32.2303 47.1427 34.7012 47.1427C34.5992 47.8791 34.5044 48.5644 34.4024 49.2862C31.2391 49.2862 28.0977 49.2862 24.9053 49.2862C24.9126 44.6492 24.9126 40.0414 24.9126 35.3242Z" fill="white"/>
<path d="M60.4154 45.116C60.0801 46.6106 59.395 47.7188 58.2434 48.5135C56.0495 50.0155 52.4927 49.8186 50.5029 48.0615C49.0743 46.8002 48.5058 45.1233 48.3746 43.2714C48.2142 41.0404 48.5714 38.9406 50.0655 37.1689C52.3979 34.4057 57.4271 34.4276 59.4606 37.2346C59.9198 37.8689 60.1603 38.6563 60.5903 39.5385C59.5845 39.5385 58.8265 39.5604 58.0685 39.5239C57.9373 39.5166 57.7696 39.2979 57.704 39.1448C57.1647 37.8689 56.1807 37.2783 54.825 37.2491C53.411 37.2127 52.3323 37.8033 51.7274 39.0646C50.7288 41.1279 50.7361 43.2641 51.618 45.3639C52.1647 46.6617 53.1997 47.3689 54.6428 47.4199C56.0932 47.4637 57.1137 46.8293 57.704 45.4951C57.7696 45.3493 57.9591 45.1597 58.0976 45.1524C58.8338 45.1014 59.5772 45.116 60.4154 45.116Z" fill="white"/>
<path d="M11.035 37.5187C9.63553 37.5187 8.26527 37.5187 6.82212 37.5187C6.82212 41.4558 6.82212 45.3418 6.82212 49.2789C5.95477 49.2789 5.16031 49.2789 4.25652 49.2789C4.25652 45.371 4.25652 41.4631 4.25652 37.5114C2.78422 37.5114 1.40667 37.5114 -0.00732422 37.5114C-0.00732422 36.775 -0.00732422 36.0897 -0.00732422 35.3606C3.66615 35.3606 7.31775 35.3606 11.0277 35.3606C11.035 36.0459 11.035 36.7313 11.035 37.5187Z" fill="white"/>
<path d="M53.2507 56.621C53.6443 55.4544 54.0306 54.2952 54.5481 53.1797C54.6429 53.2161 54.7303 53.2526 54.8251 53.289C54.4023 54.4337 53.9723 55.5857 53.5496 56.7303C53.4475 56.6939 53.3455 56.6574 53.2507 56.621Z" fill="white"/>
<path d="M57.1137 56.9417L56.21 53.3691H56.6983L57.121 55.1773C57.2304 55.622 57.3251 56.0668 57.3834 56.4094H57.3907C57.449 56.0522 57.5584 55.6293 57.6823 55.17L58.156 53.3691H58.6371L59.0744 55.1773C59.1764 55.6001 59.2712 56.023 59.3222 56.4021H59.3295C59.4024 56.0084 59.5044 55.6147 59.6137 55.17L60.0875 53.3691H60.5613L59.5481 56.9417H59.0671L58.6152 55.0825C58.5059 54.6305 58.433 54.2805 58.382 53.916H58.3747C58.3091 54.2732 58.2289 54.6232 58.0977 55.0825L57.5875 56.9417H57.1137Z" fill="white"/>
<path d="M62.8499 55.2647H61.465V56.5479H63.0102V56.9343H61.0059V53.3618H62.9301V53.7482H61.465V54.8783H62.8499V55.2647Z" fill="white"/>
<path d="M67.2231 56.825C67.0555 56.9125 66.7129 56.9927 66.2829 56.9927C65.2771 56.9927 64.519 56.3584 64.519 55.1845C64.519 54.069 65.2771 53.3108 66.3849 53.3108C66.8295 53.3108 67.1138 53.4056 67.2304 53.4712L67.1211 53.8503C66.9462 53.7628 66.6984 53.7045 66.3995 53.7045C65.5613 53.7045 65.0074 54.2367 65.0074 55.1772C65.0074 56.0522 65.5103 56.6135 66.3777 56.6135C66.6546 56.6135 66.9462 56.5552 67.1284 56.4677L67.2231 56.825Z" fill="white"/>
<path d="M70.7363 55.119C70.7363 56.3439 69.9928 57.0001 69.0818 57.0001C68.1415 57.0001 67.4783 56.271 67.4783 55.1919C67.4783 54.0618 68.1853 53.3182 69.1328 53.3182C70.1022 53.3109 70.7363 54.0618 70.7363 55.119ZM67.9666 55.1773C67.9666 55.9429 68.3821 56.6209 69.1036 56.6209C69.8325 56.6209 70.2479 55.9502 70.2479 55.1409C70.2479 54.4337 69.8762 53.69 69.1109 53.69C68.3456 53.69 67.9666 54.3899 67.9666 55.1773Z" fill="white"/>
<path d="M71.3267 56.9417V53.3691H71.8296L72.9739 55.1773C73.2363 55.5929 73.4477 55.972 73.6153 56.3365L73.6226 56.3292C73.5789 55.8553 73.5716 55.4179 73.5716 54.8638V53.3691H74.0089V56.9417H73.5424L72.4127 55.1335C72.1649 54.7398 71.9243 54.3315 71.7421 53.9451L71.7275 53.9524C71.7567 54.4044 71.764 54.8346 71.764 55.4252V56.949H71.3267V56.9417Z" fill="white"/>
<path d="M74.8105 56.9417V53.3691H75.3135L76.4578 55.1773C76.7202 55.5929 76.9315 55.972 77.0992 56.3365L77.1065 56.3292C77.0627 55.8553 77.0554 55.4179 77.0554 54.8638V53.3691H77.4928V56.9417H77.0263L75.8966 55.1335C75.6487 54.7398 75.4082 54.3315 75.226 53.9451L75.2114 53.9524C75.2406 54.4044 75.2479 54.8346 75.2479 55.4252V56.949H74.8105V56.9417Z" fill="white"/>
<path d="M80.1385 55.2647H78.7536V56.5479H80.2988V56.9343H78.2944V53.3618H80.2186V53.7482H78.7536V54.8783H80.1385V55.2647Z" fill="white"/>
<path d="M83.3891 56.825C83.2215 56.9125 82.8789 56.9927 82.4489 56.9927C81.4431 56.9927 80.6851 56.3584 80.6851 55.1845C80.6851 54.069 81.4431 53.3108 82.551 53.3108C82.9956 53.3108 83.2798 53.4056 83.3964 53.4712L83.2871 53.8503C83.1122 53.7628 82.8644 53.7045 82.5655 53.7045C81.7273 53.7045 81.1734 54.2367 81.1734 55.1772C81.1734 56.0522 81.6763 56.6135 82.5437 56.6135C82.8206 56.6135 83.1122 56.5552 83.2944 56.4677L83.3891 56.825Z" fill="white"/>
<path d="M84.7886 53.7628H83.7026V53.3691H86.3411V53.7628H85.2478V56.9417H84.7814V53.7628H84.7886Z" fill="white"/>
</g>
<defs>
<clipPath id="clip0">
<rect width="90" height="57" fill="white"/>
</clipPath>
</defs>
</svg>
