<svg width="375" height="62" viewBox="0 0 375 62" fill="none" xmlns="http://www.w3.org/2000/svg">
<mask id="mask0" mask-type="alpha" maskUnits="userSpaceOnUse" x="0" y="0" width="375" height="62">
<path d="M361.965 0.732178H13.0348C5.83586 0.732178 0 7.24258 0 15.2736V46.5935C0 54.6245 5.83586 61.1349 13.0348 61.1349H361.965C369.164 61.1349 375 54.6245 375 46.5935V15.2736C375 7.24258 369.164 0.732178 361.965 0.732178Z" fill="#F9F9F9"/>
</mask>
<g mask="url(#mask0)">
<path d="M290.306 75.7939L316.489 58.2231L316.537 58.2995L290.357 75.8708L290.306 75.7939Z" fill="#4E88D2" fill-opacity="0.3"/>
<path d="M267.506 32.2361L267.562 32.1521L316.543 58.2156L316.484 58.3037L267.506 32.2361Z" fill="#4E88D2" fill-opacity="0.3"/>
<path d="M267.489 32.2219L267.578 32.1674L290.375 75.8039L290.285 75.858L267.489 32.2219Z" fill="#4E88D2" fill-opacity="0.3"/>
<path d="M267.527 32.1505L305.342 24.5138L305.347 24.6053L267.538 32.2431L267.527 32.1505Z" fill="#4E88D2" fill-opacity="0.3"/>
<path d="M239.525 1.80623L239.604 1.73748L267.573 32.1609L267.495 32.2298L239.525 1.80623Z" fill="#4E88D2" fill-opacity="0.3"/>
<path d="M266.248 -8.59118L266.347 -8.60642L267.584 32.1854L267.48 32.2033L266.248 -8.59118Z" fill="#4E88D2" fill-opacity="0.3"/>
<path d="M266.285 -8.6412L266.311 -8.55164L239.577 1.8173L239.552 1.72773L266.285 -8.6412Z" fill="#4E88D2" fill-opacity="0.3"/>
<path d="M239.526 1.7463L271.509 -42.9992L271.591 -42.9497L239.607 1.79577L239.526 1.7463Z" fill="#4E88D2" fill-opacity="0.3"/>
<path d="M266.26 -8.5584L266.336 -8.63117L305.383 24.5231L305.31 24.5964L266.26 -8.5584Z" fill="#4E88D2" fill-opacity="0.3"/>
<path d="M267.508 32.1594L312.466 -1.52908L312.52 -1.45491L267.561 32.2334L267.508 32.1594Z" fill="#4E88D2" fill-opacity="0.3"/>
<path d="M267.491 32.1724L301.86 -18.7485L301.943 -18.7011L267.573 32.2164L267.491 32.1724Z" fill="#4E88D2" fill-opacity="0.3"/>
<path d="M316.527 58.2105L356.672 61.7194L356.647 61.8202L316.504 58.3084L316.527 58.2105Z" fill="#4E88D2" fill-opacity="0.3"/>
<path d="M338.449 11.4472L338.538 11.4774L316.557 58.2736L316.468 58.2465L338.449 11.4472Z" fill="#4E88D2" fill-opacity="0.3"/>
<path d="M305.301 24.5778L305.396 24.538L316.562 58.2382L316.466 58.2813L305.301 24.5778Z" fill="#4E88D2" fill-opacity="0.3"/>
<path d="M305.333 24.5121L338.481 11.4164L338.506 11.5058L305.36 24.6018L305.333 24.5121Z" fill="#4E88D2" fill-opacity="0.3"/>
<path d="M312.442 -1.49927L312.542 -1.4895L305.392 24.561L305.292 24.5513L312.442 -1.49927Z" fill="#4E88D2" fill-opacity="0.3"/>
<path d="M305.308 24.5315L336.207 -14.1032L336.284 -14.0511L305.387 24.5829L305.308 24.5315Z" fill="#4E88D2" fill-opacity="0.3"/>
<path d="M312.471 -1.53255L336.227 -14.1179L336.266 -14.0362L312.509 -1.44995L312.471 -1.53255Z" fill="#4E88D2" fill-opacity="0.3"/>
<path d="M312.462 -1.44804L312.522 -1.53611L338.523 11.4195L338.464 11.5041L312.462 -1.44804Z" fill="#4E88D2" fill-opacity="0.3"/>
<path d="M338.462 11.5036L338.523 11.4194L359.23 23.401L359.169 23.4852L338.462 11.5036Z" fill="#4E88D2" fill-opacity="0.3"/>
<path d="M338.445 11.486L338.543 11.4388L356.707 61.7505L356.613 61.7939L338.445 11.486Z" fill="#4E88D2" fill-opacity="0.3"/>
<path d="M359.151 23.4458L359.251 23.4375L356.71 61.7679L356.607 61.7758L359.151 23.4458Z" fill="#4E88D2" fill-opacity="0.3"/>
<path d="M347.518 -5.08327L347.612 -5.13009L359.25 23.4169L359.153 23.4643L347.518 -5.08327Z" fill="#4E88D2" fill-opacity="0.3"/>
<path d="M359.204 23.3962L392.823 20.718L392.816 20.8199L359.2 23.4873L359.204 23.3962Z" fill="#4E88D2" fill-opacity="0.3"/>
<path d="M347.522 -5.12548L347.609 -5.08857L338.537 11.4797L338.452 11.4431L347.522 -5.12548Z" fill="#4E88D2" fill-opacity="0.3"/>
<path d="M347.587 -5.15266L386.614 7.63218L386.57 7.72526L347.54 -5.06122L347.587 -5.15266Z" fill="#4E88D2" fill-opacity="0.3"/>
<path d="M347.571 -5.15408L416.214 -6.65305L416.2 -6.55693L347.56 -5.05982L347.571 -5.15408Z" fill="#4E88D2" fill-opacity="0.3"/>
<path d="M372.273 -9.31524L372.356 -9.38439L386.634 7.63459L386.555 7.70003L372.273 -9.31524Z" fill="#4E88D2" fill-opacity="0.3"/>
<path d="M358.39 24.7023C358.236 24.6298 358.1 24.5177 357.992 24.3753C357.884 24.2329 357.808 24.0642 357.769 23.8827C357.731 23.7013 357.732 23.5123 357.771 23.3311C357.81 23.1499 357.887 22.9816 357.996 22.8399C358.222 22.4978 358.542 22.2478 358.907 22.1282C359.272 22.0087 359.663 22.0262 360.019 22.178C360.172 22.2516 360.308 22.3646 360.416 22.5077C360.523 22.6507 360.599 22.82 360.637 23.0017C360.675 23.1835 360.674 23.3726 360.634 23.5539C360.594 23.7352 360.517 23.9035 360.408 24.0453C360.183 24.386 359.863 24.6348 359.499 24.7534C359.134 24.8721 358.745 24.8542 358.39 24.7023Z" fill="#4E88D2" fill-opacity="0.3"/>
<path d="M337.683 12.723C337.529 12.6502 337.392 12.5379 337.284 12.395C337.176 12.2522 337.1 12.083 337.061 11.9011C337.023 11.7192 337.024 11.5298 337.063 11.3482C337.103 11.1667 337.18 10.9981 337.289 10.8562C337.516 10.5168 337.835 10.2692 338.199 10.1512C338.563 10.0331 338.952 10.0511 339.306 10.2023C339.46 10.2741 339.596 10.3855 339.704 10.5272C339.812 10.6689 339.888 10.8371 339.927 11.018C339.965 11.1988 339.965 11.3873 339.926 11.5681C339.887 11.7489 339.81 11.9168 339.702 12.0583C339.478 12.4009 339.158 12.6516 338.793 12.7717C338.429 12.8919 338.038 12.8747 337.683 12.723Z" fill="#4E88D2" fill-opacity="0.3"/>
<path d="M266.722 33.4557C266.568 33.3828 266.432 33.2705 266.325 33.1279C266.217 32.9853 266.141 32.8164 266.103 32.6349C266.065 32.4534 266.066 32.2645 266.105 32.0834C266.145 31.9023 266.222 31.7342 266.331 31.5927C266.556 31.2532 266.874 31.0049 267.237 30.8855C267.599 30.766 267.987 30.782 268.341 30.9309C268.496 31.0027 268.633 31.1142 268.742 31.2564C268.85 31.3986 268.927 31.5675 268.966 31.7492C269.005 31.9309 269.005 32.1203 268.966 32.3019C268.927 32.4835 268.85 32.6522 268.741 32.7943C268.516 33.1362 268.196 33.3861 267.832 33.5057C267.467 33.6252 267.077 33.6076 266.722 33.4557Z" fill="#4E88D2" fill-opacity="0.3"/>
<path d="M238.753 3.03346C238.599 2.96121 238.463 2.84944 238.355 2.70727C238.247 2.5651 238.171 2.39654 238.133 2.21535C238.095 2.03416 238.095 1.84546 238.135 1.66464C238.175 1.48382 238.252 1.31599 238.361 1.17484C238.585 0.8333 238.904 0.583473 239.268 0.463828C239.632 0.344183 240.021 0.361353 240.375 0.512696C240.53 0.584903 240.667 0.696796 240.775 0.839246C240.883 0.981695 240.96 1.15067 240.998 1.33237C241.037 1.51408 241.036 1.70338 240.997 1.88482C240.957 2.06627 240.88 2.23472 240.771 2.37643C240.545 2.71773 240.226 2.96694 239.861 3.08567C239.497 3.2044 239.107 3.18605 238.753 3.03346Z" fill="#4E88D2" fill-opacity="0.3"/>
<path d="M315.704 59.5216C315.55 59.4493 315.414 59.3376 315.306 59.1955C315.198 59.0534 315.122 58.885 315.083 58.7039C315.045 58.5228 315.045 58.3341 315.084 58.1532C315.123 57.9722 315.2 57.804 315.308 57.6623C315.534 57.3207 315.854 57.071 316.219 56.9515C316.585 56.832 316.975 56.8492 317.331 57.0005C317.484 57.0744 317.619 57.1872 317.726 57.33C317.832 57.4727 317.908 57.6413 317.946 57.8224C317.984 58.0034 317.983 58.1919 317.944 58.3726C317.905 58.5534 317.829 58.7214 317.721 58.8633C317.495 59.2037 317.176 59.4524 316.812 59.5713C316.447 59.6901 316.058 59.6727 315.704 59.5216Z" fill="#4E88D2" fill-opacity="0.3"/>
<path d="M355.848 63.0326C355.694 62.96 355.557 62.848 355.449 62.7056C355.342 62.5632 355.265 62.3945 355.227 62.2131C355.188 62.0317 355.189 61.8427 355.228 61.6615C355.267 61.4803 355.344 61.3119 355.452 61.17C355.678 60.8303 355.997 60.5821 356.36 60.4632C356.724 60.3443 357.112 60.3611 357.466 60.5112C357.621 60.5831 357.758 60.6947 357.867 60.8368C357.975 60.979 358.052 61.1477 358.091 61.3292C358.131 61.5108 358.131 61.7001 358.092 61.8818C358.054 62.0635 357.977 62.2325 357.869 62.375C357.642 62.7155 357.322 62.9641 356.957 63.0828C356.592 63.2015 356.203 63.1839 355.848 63.0326Z" fill="#4E88D2" fill-opacity="0.3"/>
<path d="M304.535 25.8187C304.382 25.746 304.246 25.6341 304.138 25.492C304.031 25.3499 303.955 25.1816 303.916 25.0007C303.878 24.8197 303.878 24.6312 303.916 24.4504C303.955 24.2695 304.032 24.1013 304.139 23.9594C304.364 23.6164 304.685 23.3657 305.05 23.2461C305.416 23.1265 305.807 23.1445 306.162 23.2976C306.316 23.3707 306.452 23.4833 306.56 23.6262C306.668 23.7692 306.744 23.9384 306.782 24.1203C306.82 24.3021 306.819 24.4913 306.779 24.6727C306.739 24.854 306.661 25.0222 306.552 25.1637C306.326 25.5033 306.006 25.7511 305.642 25.8694C305.278 25.9876 304.889 25.9698 304.535 25.8187Z" fill="#4E88D2" fill-opacity="0.3"/>
<path d="M261.778 49.0365L230.494 47.5148L230.499 47.4238L261.781 48.9432L261.778 49.0365Z" fill="#4E88D2" fill-opacity="0.3"/>
<path d="M255.186 97.9787L255.091 98.0127L230.447 47.4878L230.546 47.4522L255.186 97.9787Z" fill="#4E88D2" fill-opacity="0.3"/>
<path d="M255.189 98.0001L255.086 97.9914L261.728 48.9867L261.833 48.9978L255.189 98.0001Z" fill="#4E88D2" fill-opacity="0.3"/>
<path d="M230.457 47.502L199.996 20.5355L200.076 20.4667L230.532 47.438L230.457 47.502Z" fill="#4E88D2" fill-opacity="0.3"/>
<path d="M185.839 72.1599L185.786 72.0824L230.465 47.4365L230.523 47.5116L185.839 72.1599Z" fill="#4E88D2" fill-opacity="0.3"/>
<path d="M220.207 81.4614L220.105 81.4345L230.444 47.4602L230.546 47.4824L220.207 81.4614Z" fill="#4E88D2" fill-opacity="0.3"/>
<path d="M220.141 81.4922L185.797 72.1645L185.827 72.0767L220.17 81.4036L220.141 81.4922Z" fill="#4E88D2" fill-opacity="0.3"/>
<path d="M185.861 72.1045L185.764 72.1369L175.899 49.9983L175.996 49.9667L185.861 72.1045Z" fill="#4E88D2" fill-opacity="0.3"/>
<path d="M185.866 72.1321L185.76 72.1108L199.985 20.4904L200.087 20.5117L185.866 72.1321Z" fill="#4E88D2" fill-opacity="0.3"/>
<path d="M175.989 50.0109L175.904 49.9564L199.993 20.4738L200.078 20.5276L175.989 50.0109Z" fill="#4E88D2" fill-opacity="0.3"/>
<path d="M169.002 80.0827L168.898 80.0638L175.892 49.9738L175.998 49.9935L169.002 80.0827Z" fill="#4E88D2" fill-opacity="0.3"/>
<path d="M175.919 50.0181L147.181 31.979L147.244 31.9007L175.977 49.9445L175.919 50.0181Z" fill="#4E88D2" fill-opacity="0.3"/>
<path d="M168.905 80.097L144.677 46.3014L144.766 46.2531L168.996 80.0511L168.905 80.097Z" fill="#4E88D2" fill-opacity="0.3"/>
<path d="M168.917 80.1073L112.523 40.064L112.587 39.9928L168.981 80.0377L168.917 80.1073Z" fill="#4E88D2" fill-opacity="0.3"/>
<path d="M144.774 46.2872L144.664 46.2667L147.16 31.9347L147.268 31.9473L144.774 46.2872Z" fill="#4E88D2" fill-opacity="0.3"/>
<path d="M144.707 46.3219L112.545 40.0734L112.566 39.9841L144.727 46.2349L144.707 46.3219Z" fill="#4E88D2" fill-opacity="0.3"/>
<path d="M146.541 68.6275L146.434 68.633L144.669 46.2801L144.771 46.2745L146.541 68.6275Z" fill="#4E88D2" fill-opacity="0.3"/>
<path d="M112.506 40.0751L112.577 40.011L146.54 68.5856L146.469 68.6496L112.506 40.0751Z" fill="#4E88D2" fill-opacity="0.3"/>
<path d="M130.938 72.2611L112.509 40.0474L112.601 40.0094L131.029 72.2223L130.938 72.2611Z" fill="#4E88D2" fill-opacity="0.3"/>
<path d="M146.103 45.7453C146.181 45.9125 146.222 46.0974 146.224 46.2854C146.226 46.4734 146.189 46.6594 146.115 46.8287C146.042 46.9979 145.934 47.1458 145.801 47.2606C145.667 47.3754 145.512 47.454 145.346 47.4902C144.992 47.639 144.603 47.653 144.24 47.5298C143.878 47.4066 143.562 47.1533 143.342 46.8091C143.265 46.6429 143.223 46.4588 143.22 46.2715C143.217 46.0842 143.254 45.8988 143.326 45.7298C143.399 45.5608 143.506 45.413 143.638 45.2979C143.771 45.1828 143.925 45.1037 144.09 45.0667C144.446 44.9168 144.836 44.902 145.2 45.0247C145.564 45.1474 145.882 45.4007 146.103 45.7453Z" fill="#4E88D2" fill-opacity="0.3"/>
<path d="M177.328 49.4517C177.405 49.6183 177.446 49.8027 177.449 49.9902C177.451 50.1778 177.415 50.3634 177.342 50.5325C177.269 50.7016 177.162 50.8495 177.029 50.9646C176.896 51.0797 176.742 51.1588 176.577 51.1958C176.221 51.3446 175.831 51.3589 175.467 51.2364C175.103 51.1139 174.785 50.8615 174.562 50.5179C174.486 50.3508 174.445 50.1661 174.443 49.9783C174.441 49.7905 174.477 49.6047 174.551 49.4355C174.624 49.2664 174.731 49.1184 174.864 49.0031C174.997 48.8879 175.152 48.8087 175.317 48.7715C175.672 48.6231 176.062 48.6093 176.425 48.7322C176.789 48.8552 177.106 49.108 177.328 49.4517Z" fill="#4E88D2" fill-opacity="0.3"/>
<path d="M231.877 46.9373C231.954 47.1037 231.995 47.2876 231.998 47.4748C232 47.662 231.964 47.8473 231.891 48.0161C231.819 48.1849 231.712 48.3326 231.58 48.4476C231.447 48.5627 231.293 48.6419 231.128 48.679C230.772 48.828 230.383 48.8426 230.019 48.7208C229.654 48.5989 229.336 48.3472 229.113 48.0043C229.036 47.8372 228.995 47.6525 228.993 47.4647C228.991 47.277 229.028 47.0912 229.101 46.922C229.174 46.7528 229.281 46.6047 229.414 46.4894C229.546 46.374 229.701 46.2945 229.866 46.2571C230.222 46.1089 230.611 46.0952 230.975 46.2181C231.338 46.341 231.655 46.5937 231.877 46.9373Z" fill="#4E88D2" fill-opacity="0.3"/>
<path d="M263.158 48.4543C263.235 48.6213 263.277 48.8061 263.279 48.994C263.281 49.182 263.244 49.3679 263.171 49.5373C263.098 49.7066 262.991 49.8547 262.857 49.9698C262.724 50.0849 262.569 50.1639 262.404 50.2007C262.05 50.3494 261.661 50.3639 261.299 50.242C260.937 50.12 260.621 49.8684 260.399 49.526C260.322 49.3598 260.28 49.1757 260.277 48.9883C260.274 48.8009 260.311 48.6153 260.383 48.4463C260.456 48.2773 260.563 48.1294 260.695 48.0144C260.828 47.8993 260.983 47.8203 261.147 47.7835C261.502 47.633 261.891 47.6172 262.255 47.7384C262.618 47.8597 262.936 48.1113 263.158 48.4543Z" fill="#4E88D2" fill-opacity="0.3"/>
<path d="M201.419 19.9692C201.496 20.1359 201.537 20.3204 201.54 20.508C201.542 20.6956 201.505 20.8813 201.432 21.0504C201.36 21.2196 201.253 21.3675 201.12 21.4827C200.987 21.5978 200.832 21.677 200.667 21.714C200.311 21.8616 199.922 21.8748 199.559 21.7518C199.196 21.6288 198.879 21.3763 198.657 21.033C198.58 20.8664 198.538 20.6821 198.535 20.4945C198.533 20.3069 198.569 20.1211 198.641 19.9518C198.714 19.7825 198.821 19.6342 198.953 19.5187C199.086 19.4031 199.24 19.3234 199.405 19.2858C199.762 19.1381 200.152 19.125 200.515 19.2484C200.879 19.3719 201.196 19.6251 201.419 19.9692Z" fill="#4E88D2" fill-opacity="0.3"/>
<path d="M148.594 31.4095C148.671 31.5758 148.712 31.7598 148.715 31.947C148.717 32.1342 148.681 32.3194 148.608 32.4882C148.536 32.657 148.429 32.8047 148.297 32.9198C148.164 33.0348 148.01 33.114 147.845 33.1511C147.49 33.3006 147.1 33.3153 146.736 33.1929C146.372 33.0706 146.054 32.8179 145.832 32.4741C145.755 32.3073 145.713 32.1229 145.711 31.9353C145.708 31.7476 145.745 31.562 145.818 31.3928C145.891 31.2237 145.998 31.0757 146.131 30.9606C146.263 30.8454 146.418 30.7662 146.583 30.7292C146.939 30.5811 147.328 30.5674 147.692 30.6903C148.055 30.8132 148.372 31.0659 148.594 31.4095Z" fill="#4E88D2" fill-opacity="0.3"/>
<path d="M113.94 39.4952C114.017 39.6617 114.059 39.8458 114.061 40.033C114.063 40.2203 114.026 40.4056 113.953 40.5743C113.881 40.743 113.774 40.8905 113.641 41.0052C113.508 41.1199 113.353 41.1987 113.189 41.2353C112.833 41.3851 112.443 41.4002 112.078 41.2781C111.714 41.1561 111.395 40.9037 111.172 40.5598C111.096 40.393 111.055 40.2087 111.053 40.0213C111.051 39.8339 111.088 39.6485 111.16 39.4795C111.233 39.3106 111.34 39.1627 111.472 39.0475C111.605 38.9322 111.759 38.8526 111.924 38.815C112.28 38.6656 112.671 38.6513 113.035 38.7743C113.4 38.8972 113.718 39.1506 113.94 39.4952Z" fill="#4E88D2" fill-opacity="0.3"/>
</g>
</svg>
