<svg width="48" height="48" viewBox="0 0 48 48" fill="none" xmlns="http://www.w3.org/2000/svg">
<path d="M47.25 24C47.25 11.25 36.75 0.75 24 0.75C11.1562 0.75 0.75 11.25 0.75 24C0.75 36.8438 11.1562 47.25 24 47.25C36.75 47.25 47.25 36.8438 47.25 24ZM21.2812 36.375C20.7188 36.9375 19.6875 36.9375 19.125 36.375L9.375 26.625C8.8125 26.0625 8.8125 25.0312 9.375 24.4688L11.5312 22.4062C12.0938 21.75 13.0312 21.75 13.5938 22.4062L20.25 28.9688L34.3125 14.9062C34.875 14.25 35.8125 14.25 36.375 14.9062L38.5312 16.9688C39.0938 17.5312 39.0938 18.5625 38.5312 19.125L21.2812 36.375Z" fill="url(#paint0_linear)"/>
<defs>
<linearGradient id="paint0_linear" x1="24" y1="0" x2="24" y2="48" gradientUnits="userSpaceOnUse">
<stop stop-color="#EB2228"/>
<stop offset="1" stop-color="#DC1A5E"/>
</linearGradient>
</defs>
</svg>
