<svg id="Componente_26_11" data-name="Componente 26 – 11" xmlns="http://www.w3.org/2000/svg" width="144.536" height="26.298" viewBox="0 0 144.536 26.298">
  <path id="Trazado_1" data-name="Trazado 1" d="M1301,131.731a13.143,13.143,0,0,0,.862-1.752,6.072,6.072,0,0,0,.342-2.008c-.007-2.128,0-4.256,0-6.385V121c-1.976.4-3.891.789-5.8,1.188-.456.1-1.115.1-1.3.39-.192.3.226.846.383,1.282.628,1.741,1.266,3.478,1.9,5.219a12.346,12.346,0,0,0,1.427,2.608c-.148.158-.313.1-.455.105-2.116,0-4.233-.007-6.348.012-.408,0-.537-.082-.486-.515a5.672,5.672,0,0,0-.392-2.523c-.508-1.474-1.037-2.94-1.539-4.416-.119-.351-.231-.487-.651-.351a60.171,60.171,0,0,0-6.941,2.5,7.161,7.161,0,0,0-2.225,1.6,4.623,4.623,0,0,0-1.161,3.284c0,.182.1.41-.232.41-1.619,0-3.238,0-4.873,0,1.969-3.571,2.965-7.454,4.369-11.177s2.724-7.509,4.08-11.266a7.436,7.436,0,0,0,.587-3.079c-.022-.294.118-.313.343-.312,1.92,0,3.84.015,5.76-.007.412-.005.415.279.5.516q2.246,6.149,4.472,12.3c.161.449.308.581.825.465,2.422-.545,4.856-1.036,7.292-1.52.358-.071.481-.178.478-.552-.018-2.539-.005-5.077-.014-7.615,0-1.138-.145-1.528-1.163-3.5.114-.158.285-.08.424-.08,3.507,0,7.014-.02,10.522.008a13.662,13.662,0,0,1,5.39,1,4.923,4.923,0,0,1,3.25,4.29,5.062,5.062,0,0,1-2.248,4.795,13.826,13.826,0,0,1-2.385,1.31,15.167,15.167,0,0,1,2.752,1.1,6,6,0,0,1,3.439,5.452,6.6,6.6,0,0,1-3.274,6.2,12.052,12.052,0,0,1-6.005,1.594c-3.878.085-7.758.049-11.638.061A1.789,1.789,0,0,1,1301,131.731Zm6.969-7.457c0,1.306,0,2.612,0,3.919,0,.24.006.405.331.4a28.879,28.879,0,0,0,3.924-.134c1.52-.25,2.926-.757,3.576-2.295a4.313,4.313,0,0,0-.376-4.5,5.732,5.732,0,0,0-4.6-2.173,14.931,14.931,0,0,0-2.422.4c-.354.05-.439.2-.435.531C1307.975,121.7,1307.965,122.987,1307.965,124.273Zm-.008-11.453c0,1.112,0,2.224,0,3.336,0,.173-.079.429.265.361a15.583,15.583,0,0,0,4.664-1.289,3.163,3.163,0,0,0,1.762-3.291,3.014,3.014,0,0,0-2.433-2.539,13.155,13.155,0,0,0-3.966-.24c-.344.008-.294.233-.294.444Q1307.956,111.211,1307.957,112.82Zm-22.911-1.37-4.249,12.29a13.492,13.492,0,0,1,3.508-1.723c1.181-.4,2.37-.787,3.559-1.165.265-.084.457-.132.328-.495C1287.154,117.444,1286.13,114.526,1285.046,111.45Z" transform="translate(-1273.5 -105.947)" fill="#fff"/>
  <path id="Trazado_2" data-name="Trazado 2" d="M1403.915,131.819a8.533,8.533,0,0,0,.944-4.724q-.016-8.346,0-16.694a8.272,8.272,0,0,0-.919-4.419h.638q4.672,0,9.345,0a15.332,15.332,0,0,1,5.367.818,5.454,5.454,0,0,1,3.633,6.812,5.218,5.218,0,0,1-2.8,3.22c-.4.222-.83.4-1.331.644.585.216,1.091.383,1.58.588,2.98,1.246,4.4,3.24,4.376,6.143a6.712,6.712,0,0,1-4.545,6.581,13.731,13.731,0,0,1-4.516.946C1411.813,131.9,1407.934,131.779,1403.915,131.819Zm6.694-7.7c0,1.366,0,2.731,0,4.1,0,.211-.1.492.3.487a21,21,0,0,0,4.445-.242,4.08,4.08,0,0,0,3.142-2.364,4.46,4.46,0,0,0-3.012-6.184,18.237,18.237,0,0,0-4.375-.309c-.431-.014-.52.143-.513.536C1410.622,121.464,1410.609,122.791,1410.609,124.117Zm0-11.377c0,1.073,0,2.146,0,3.218,0,.264.019.442.368.434a29.1,29.1,0,0,0,3.166-.1,3.287,3.287,0,0,0,3.155-3.245,3.2,3.2,0,0,0-2.675-3.73,17.278,17.278,0,0,0-3.741-.193c-.311-.008-.268.209-.268.4Q1410.607,111.131,1410.609,112.74Z" transform="translate(-1320.139 -105.959)" fill="#fff"/>
  <path id="Trazado_3" data-name="Trazado 3" d="M1449.914,127.563c-1.724,0-3.448.014-5.171-.009-.443-.006-.5.107-.417.524.51,2.567,2.2,3.924,5.107,4.089a11.184,11.184,0,0,0,5.624-1.147c.392-.191.556-.143.723.27.343.847.733,1.677,1.136,2.5.164.333.121.486-.219.664a13.81,13.81,0,0,1-5.2,1.522,15.311,15.311,0,0,1-7-.788,8.246,8.246,0,0,1-5.425-6.85,12.3,12.3,0,0,1,.319-5.677,8.248,8.248,0,0,1,7.486-5.957,13.1,13.1,0,0,1,4.888.389,7.62,7.62,0,0,1,5.517,6.419,13.409,13.409,0,0,1,.2,3.031c-.018.471-.236.63-.654.707a27.024,27.024,0,0,1-4.271.309C1451.677,127.581,1450.8,127.563,1449.914,127.563Zm-1.746-3.13v0q1.438,0,2.875,0c1.174,0,1.174,0,.947-1.167a3.661,3.661,0,0,0-3.514-3.252,3.624,3.624,0,0,0-3.893,2.859c-.119.389-.165.8-.279,1.191-.1.349.06.38.343.378C1445.82,124.427,1446.994,124.433,1448.167,124.433Z" transform="translate(-1332.647 -109.77)" fill="#fff"/>
  <path id="Trazado_4" data-name="Trazado 4" d="M1389.327,135.822h-7.243c-.077-.2.073-.306.142-.434a6.679,6.679,0,0,0,.838-3.3c-.029-2.44-.008-4.882-.01-7.323,0-.331,0-.665-.029-1a2.576,2.576,0,0,0-2.593-2.51,5.235,5.235,0,0,0-3.889,1.33.888.888,0,0,0-.348.748c.015,3.046.009,6.093.009,9.14a6.708,6.708,0,0,0,1.073,3.331h-7.288c.164-.325.319-.612.457-.907a6.13,6.13,0,0,0,.6-2.655c-.014-3.574-.025-7.148.005-10.721a6.8,6.8,0,0,0-.919-3.515,2.528,2.528,0,0,1-.123-.261c-.006-.013.012-.036.035-.092,1.938,0,3.891,0,5.844,0,.277,0,.321.123.317.355-.01.561,0,1.122,0,1.77a18.793,18.793,0,0,1,1.808-1.282,8.524,8.524,0,0,1,6.4-.962c2.362.555,3.739,2.376,3.778,5.056s.036,5.351.007,8.027C1388.175,132.416,1388.147,134.207,1389.327,135.822Z" transform="translate(-1308.006 -110.002)" fill="#fff"/>
  <path id="Trazado_5" data-name="Trazado 5" d="M1477.78,130.7c.316-.836.59-1.558.862-2.281q1.369-3.637,2.737-7.274a4.517,4.517,0,0,0,.281-3.257h5.453c-.258.366-.5.683-.714,1.017a25.535,25.535,0,0,0-2.03,4.461q-1.99,4.9-3.964,9.805a10.019,10.019,0,0,0-.719,2.522c-.036.3-.159.388-.453.385-1.352-.013-2.7-.021-4.055,0-.362.006-.453-.182-.564-.45q-2.916-7.047-5.84-14.089a12.283,12.283,0,0,0-2.115-3.633h7.12a4.1,4.1,0,0,0,.233,3.1C1475.252,124.2,1476.492,127.385,1477.78,130.7Z" transform="translate(-1342.577 -110.216)" fill="#fff"/>
  <path id="Trazado_6" data-name="Trazado 6" d="M1353.478,106h8.195c.062.213-.107.33-.186.473a7.469,7.469,0,0,0-.971,3.685q.03,8.67,0,17.34a7.628,7.628,0,0,0,1.044,3.958c.055.1.157.179.114.336h-8.079c-.041-.245.128-.379.216-.543a7.5,7.5,0,0,0,.927-3.584q-.016-8.816,0-17.632A7.653,7.653,0,0,0,1353.478,106Z" transform="translate(-1302.102 -105.965)" fill="#fff"/>
</svg>
