<svg width="55" height="48" viewBox="0 0 55 48" fill="none" xmlns="http://www.w3.org/2000/svg">
<path d="M54.3438 41.3438L31.8438 2.25C30.1562 -0.65625 25.75 -0.75 24.0625 2.25L1.5625 41.3438C-0.125 44.25 2.03125 48 5.5 48H50.4062C53.875 48 56.0312 44.3438 54.3438 41.3438ZM28 33.1875C30.3438 33.1875 32.3125 35.1562 32.3125 37.5C32.3125 39.9375 30.3438 41.8125 28 41.8125C25.5625 41.8125 23.6875 39.9375 23.6875 37.5C23.6875 35.1562 25.5625 33.1875 28 33.1875ZM23.875 17.7188C23.7812 17.0625 24.3438 16.5 25 16.5H30.9062C31.5625 16.5 32.125 17.0625 32.0312 17.7188L31.375 30.4688C31.2812 31.125 30.8125 31.5 30.25 31.5H25.6562C25.0938 31.5 24.625 31.125 24.5312 30.4688L23.875 17.7188Z" fill="url(#paint0_linear)"/>
<defs>
<linearGradient id="paint0_linear" x1="28" y1="0" x2="28" y2="48" gradientUnits="userSpaceOnUse">
<stop stop-color="#FF8500"/>
<stop offset="1" stop-color="#FFC024"/>
</linearGradient>
</defs>
</svg>
