<svg width="60" height="48" viewBox="0 0 60 48" fill="none" xmlns="http://www.w3.org/2000/svg">
<path d="M9.9375 16.0312L14.625 14.0625C14.8125 13.9688 14.9062 13.7812 14.9062 13.5C14.9062 13.3125 14.8125 13.125 14.625 12.9375L9.9375 11.0625L8.0625 6.375C7.875 6.1875 7.6875 6 7.5 6C7.21875 6 7.03125 6.1875 6.9375 6.375L4.96875 11.0625L0.28125 12.9375C0.09375 13.125 0 13.3125 0 13.5C0 13.7812 0.09375 13.9688 0.28125 14.0625L4.96875 16.0312L6.9375 20.7188C7.03125 20.9062 7.21875 21 7.40625 21C7.6875 21 7.875 20.9062 7.96875 20.7188L9.9375 16.0312ZM44.1562 43.875L44.0625 43.7812H43.9688C42.8438 43.2188 42 41.8125 42 40.5C42 39.2812 42.8438 37.875 43.9688 37.3125L44.0625 37.2188H44.1562L47.625 35.7188L49.125 32.25V32.1562L49.2188 32.0625C49.5938 31.3125 50.1562 30.75 50.9062 30.4688C50.9062 30.2812 50.9062 30.1875 51 30.0938V13.5C51 11.9062 49.5938 10.5 48 10.5C46.3125 10.5 45 11.9062 45 13.5V20.25C45 20.7188 44.625 21 44.25 21H42.75C42.2812 21 42 20.7188 42 20.25V6C42 4.40625 40.5938 3 39 3C37.3125 3 36 4.40625 36 6V20.25C36 20.7188 35.625 21 35.25 21H33.75C33.2812 21 33 20.7188 33 20.25V3C33 1.40625 31.5938 0 30 0C28.3125 0 27 1.40625 27 3V20.25C27 20.7188 26.625 21 26.25 21H24.75C24.2812 21 24 20.7188 24 20.25V6C24 4.40625 22.5938 3 21 3C19.3125 3 18 4.40625 18 6V28.5938L15.75 25.5938C15.0938 24.75 13.7812 24.0938 12.75 24.0938C10.5938 24.0938 9 25.6875 9 27.8438C9 28.5 9.28125 29.4375 9.65625 30L21.4688 46.2188C22.2188 47.25 23.8125 48 25.125 48H43.5938C45.375 48 46.9688 46.9688 47.625 45.375L44.1562 43.875ZM32.7188 31.875L30 33L28.7812 35.8125C28.6875 35.9062 28.5938 36 28.5 36C28.3125 36 28.2188 35.9062 28.125 35.8125L27 33L24.1875 31.875C24 31.7812 23.9062 31.6875 23.9062 31.5C23.9062 31.4062 24 31.2188 24.1875 31.2188L27 30L28.125 27.2812C28.2188 27.0938 28.3125 27 28.4062 27C28.5938 27 28.6875 27.0938 28.7812 27.2812L30 30L32.7188 31.2188C32.9062 31.2188 33 31.4062 33 31.5C33 31.6875 32.9062 31.7812 32.7188 31.875ZM60 40.5C59.9062 40.3125 59.8125 40.125 59.625 39.9375L54.9375 38.0625L53.0625 33.375C52.875 33.1875 52.6875 33 52.5 33C52.2188 33 52.0312 33.1875 51.9375 33.375L49.9688 38.0625L45.2812 39.9375C45.0938 40.125 45 40.3125 45 40.5C45 40.7812 45.0938 40.9688 45.2812 41.0625L49.9688 43.0312L51.9375 47.7188C52.0312 47.9062 52.2188 48 52.4062 48C52.6875 48 52.875 47.9062 52.9688 47.7188L54.9375 43.0312L59.625 41.0625C59.8125 40.9688 59.9062 40.7812 59.9062 40.5H60Z" fill="url(#paint0_linear)"/>
<defs>
<linearGradient id="paint0_linear" x1="30" y1="0" x2="30" y2="48" gradientUnits="userSpaceOnUse">
<stop stop-color="#EB2228"/>
<stop offset="1" stop-color="#DC1A5E"/>
</linearGradient>
</defs>
</svg>
