<svg id="Capa_1" data-name="Capa 1" xmlns="http://www.w3.org/2000/svg" viewBox="0 0 36.91 37"><defs><style>.cls-1{fill:#fff;}</style></defs><rect class="cls-1" width="17.22" height="17.22" rx="3.83"/><rect class="cls-1" y="19.78" width="17.22" height="17.22" rx="3.83"/><rect class="cls-1" x="19.69" y="19.78" width="17.22" height="17.22" rx="3.83"/><path class="cls-1" d="M34.71,6.41H30.5V2.56a2.2,2.2,0,0,0-4.4,0V6.41H21.89a2.19,2.19,0,0,0-2.2,2.2h0a2.2,2.2,0,0,0,2.2,2.2H26.1v4.58a2.2,2.2,0,0,0,4.4,0V10.81h4.21a2.21,2.21,0,0,0,2.2-2.2h0A2.2,2.2,0,0,0,34.71,6.41Z"/></svg>