<svg id="Capa_1" data-name="Capa 1" xmlns="http://www.w3.org/2000/svg" viewBox="0 0 28.51 35.1"><defs><style>.cls-1{fill:#fff;}</style></defs><path class="cls-1" d="M5.2,35.1a1.18,1.18,0,0,1-.79-1.32c0-.33,0-.66,0-1H22.88A3.08,3.08,0,0,0,26,30.6a4.41,4.41,0,0,0,.15-1.25q0-12.23,0-24.44V4.42a14.31,14.31,0,0,1,1.47,0,1,1,0,0,1,.88,1c0,.11,0,.23,0,.34q0,14,0,28.07a1.21,1.21,0,0,1-.82,1.31Z"/><path class="cls-1" d="M0,15.33v-14C0,.38.38,0,1.26,0H22.85c.85,0,1.24.38,1.24,1.23V29.47c0,.84-.39,1.23-1.24,1.23H1.26C.39,30.7,0,30.31,0,29.45Zm15.89,4.35H18.6a1,1,0,1,0,0-2.06H13.24a1,1,0,1,0,0,2.06Zm0-8.11H13.17a1,1,0,0,0-1,.66,1,1,0,0,0,1.07,1.39c1.76,0,3.53,0,5.3,0a1,1,0,1,0,0-2Zm0-4h2.74a1,1,0,1,0,0-2c-1.81,0-3.62,0-5.44,0a1,1,0,0,0-.95.55,1,1,0,0,0,.9,1.49C14.05,7.57,15,7.56,15.87,7.56Zm0,18.17h0c.9,0,1.8,0,2.7,0a1,1,0,0,0,1.09-1,1,1,0,0,0-1.1-1h-5.3a1.07,1.07,0,0,0-1,.48,1,1,0,0,0,.8,1.56C14,25.76,15,25.73,15.89,25.73Zm-9.37-20c-.13-.16-.23-.3-.34-.41A1,1,0,1,0,4.72,6.72L5.81,7.81a1,1,0,0,0,1.45,0C8,7.09,8.75,6.36,9.45,5.6a1.3,1.3,0,0,0,.3-.83.93.93,0,0,0-.68-.86A1,1,0,0,0,8,4.18C7.52,4.65,7.05,5.14,6.52,5.68Zm0,18.16c-.14-.16-.24-.28-.34-.38a1,1,0,0,0-1.47,0,1,1,0,0,0,0,1.47c.35.37.72.74,1.09,1.09a1,1,0,0,0,1.42,0c.76-.73,1.51-1.46,2.22-2.23a1.34,1.34,0,0,0,.29-.84.94.94,0,0,0-.69-.85,1,1,0,0,0-1,.25Zm0-12.1a4.2,4.2,0,0,0-.37-.41,1,1,0,1,0-1.44,1.45c.35.37.72.74,1.09,1.09a1,1,0,0,0,1.42,0c.76-.74,1.52-1.48,2.24-2.26a1.25,1.25,0,0,0,.27-.8A.93.93,0,0,0,9.06,10a1,1,0,0,0-1,.24Zm0,6a3.61,3.61,0,0,0-.36-.4,1,1,0,0,0-1.44,1.44c.36.38.73.75,1.11,1.12a1,1,0,0,0,1.39,0c.77-.75,1.54-1.5,2.27-2.29a1.18,1.18,0,0,0,.25-.8A.92.92,0,0,0,9.05,16a1,1,0,0,0-1,.26C7.52,16.76,7,17.25,6.52,17.78Z"/></svg>