<svg width="113" height="45" viewBox="0 0 113 45" fill="none" xmlns="http://www.w3.org/2000/svg">
<g clip-path="url(#clip0_1911:24)">
<path d="M26.7293 17.9503V23.8102H16.2606V45H10.4688V23.8102H0V17.9503H26.7293Z" fill="white"/>
<path d="M53.3449 23.8102H34.4868V28.5452H49.6692V34.4051H34.4868V39.1401H53.3449V45H28.6582V17.9503H53.3449V23.8102Z" fill="white"/>
<path d="M61.8447 23.8102V39.1384H82.7454V45H61.5856C58.5418 45 56.0913 42.52 56.0913 39.4395V23.5091C56.0913 20.4286 58.5418 17.9486 61.5856 17.9486H82.7454V23.8102H61.8447V23.8102Z" fill="white"/>
<path d="M0.447998 0H11.5904C12.1019 0 12.5699 0.130258 12.9928 0.387391C13.4174 0.646216 13.7567 0.989625 14.0124 1.41931C14.2682 1.84899 14.3952 2.32097 14.3952 2.83862V5.71952C14.3952 5.89715 14.3818 6.06631 14.3551 6.23041C14.3283 6.3945 14.2815 6.55013 14.213 6.70069C14.442 7.01365 14.6275 7.34014 14.7679 7.68185C14.91 8.02188 14.9802 8.3636 14.9802 8.70362V11.8704C14.9802 12.3881 14.8515 12.8617 14.5975 13.2897C14.3417 13.7194 13.999 14.0628 13.5678 14.3216C13.1365 14.5805 12.6668 14.709 12.1554 14.709H0.447998V0ZM3.35478 5.86331H11.4684C11.5352 5.86331 11.5887 5.83963 11.6305 5.79226C11.6706 5.7449 11.6907 5.68738 11.6907 5.61802V2.96211C11.6907 2.89444 11.6706 2.83692 11.6305 2.78787C11.5904 2.7405 11.5369 2.71682 11.4684 2.71682H3.35478C3.28792 2.71682 3.22941 2.7405 3.18261 2.78787C3.13581 2.83523 3.11241 2.89275 3.11241 2.96211V5.61802C3.11241 5.68569 3.13581 5.7449 3.18261 5.79226C3.23109 5.83963 3.28792 5.86331 3.35478 5.86331ZM3.35478 11.9905H12.0333C12.1002 11.9905 12.1604 11.9668 12.2155 11.9195C12.269 11.8721 12.2958 11.8146 12.2958 11.7452V8.82542C12.2958 8.75775 12.269 8.70024 12.2155 8.65118C12.162 8.60381 12.1002 8.58013 12.0333 8.58013H3.35478C3.28792 8.58013 3.22941 8.60381 3.18261 8.65118C3.13581 8.69855 3.11241 8.75606 3.11241 8.82542V11.7469C3.11241 11.8146 3.13581 11.8738 3.18261 11.9212C3.23109 11.9668 3.28792 11.9905 3.35478 11.9905Z" fill="white"/>
<path d="M17.1816 14.7073V0.0202942H28.889C29.4005 0.0202942 29.8718 0.150552 30.3014 0.407686C30.7327 0.66651 31.0753 1.00992 31.3311 1.4396C31.5868 1.86928 31.7139 2.34126 31.7139 2.85891V6.82248C31.7139 7.34013 31.5852 7.81718 31.3311 8.25194C31.0753 8.68839 30.7327 9.0318 30.3014 9.28386C29.8702 9.53591 29.4005 9.6611 28.889 9.6611L19.846 9.6814V14.7073H17.1816ZM20.0867 6.94597H28.7653C28.8322 6.94597 28.8923 6.92567 28.9475 6.88507C29.001 6.84447 29.0277 6.79034 29.0277 6.72098V2.9621C29.0277 2.89443 29.001 2.83692 28.9475 2.78786C28.894 2.74049 28.8322 2.71681 28.7653 2.71681H20.0867C20.0199 2.71681 19.9614 2.74049 19.9146 2.78786C19.8678 2.83523 19.8444 2.89274 19.8444 2.9621V6.72098C19.8444 6.78865 19.8678 6.84278 19.9146 6.88507C19.9631 6.92567 20.0199 6.94597 20.0867 6.94597ZM28.767 14.7073L24.3876 9.41581H27.8794L31.6737 13.9512V14.7073H28.767Z" fill="white"/>
<path d="M33.8735 14.7073V0H47.2557V2.71681H36.558V5.98511H45.1563V8.72223H36.558V11.9905H47.2557V14.7073H33.8735Z" fill="white"/>
<path d="M54.1574 14.7073L48.8704 0H51.6969L55.2088 9.70339L58.7206 0H61.3249L64.8368 9.70339L68.3269 0H71.1735L65.8848 14.7073H63.7854L60.0111 4.29006L56.2568 14.7073H54.1574Z" fill="white"/>
<path d="M107.982 26.5084H90.4763V45.0017H107.982V26.5084Z" fill="#FAB700"/>
<path d="M108.24 23.5784H90.4763V26.5084H108.24V23.5784Z" fill="white"/>
<path d="M91.4689 28.5452V26.099V17.9503H85.7139V45H91.4689V36.1831V34.4051V28.5452Z" fill="white"/>
<path d="M107.247 17.9503V26.099V28.5452V34.4051V36.1831V45H113V17.9503H107.247Z" fill="white"/>
<path d="M108.609 24.1113H111.638V38.8389H108.609V37.1642H109.961V25.8063H108.609V24.1113Z" fill="#001A26"/>
</g>
<defs>
<clipPath id="clip0_1911:24">
<rect width="113" height="45" fill="white"/>
</clipPath>
</defs>
</svg>
