<svg width="20" height="22" viewBox="0 0 20 22" fill="none" xmlns="http://www.w3.org/2000/svg">
<path d="M19.9987 12.1104C19.9987 13.8346 19.9963 15.5588 20.0001 17.2831C20.0013 17.8354 19.8567 18.3325 19.5101 18.7634C19.4836 18.7963 19.4559 18.8284 19.4282 18.8604C19.2771 19.0351 19.1035 19.168 18.8755 19.2336C18.6087 19.3101 18.3492 19.4094 18.0709 19.4432C17.7597 19.4813 17.4659 19.4065 17.1752 19.3156C16.6699 19.1573 16.1668 18.9918 15.6633 18.8275C15.4484 18.7573 15.3066 18.5735 15.3053 18.3723C15.3041 18.1486 15.459 17.926 15.6732 17.8691C15.7497 17.8488 15.8419 17.8486 15.9175 17.8715C16.4843 18.0438 17.0491 18.2224 17.6134 18.4029C17.8272 18.4713 18.0389 18.4727 18.2445 18.387C18.7397 18.1806 19.009 17.8566 19.0092 17.2973C19.01 13.801 19.0095 10.3047 19.01 6.80842C19.01 6.46674 18.8985 6.17317 18.6533 5.93584C18.5332 5.81966 18.3893 5.7479 18.231 5.69948C16.9226 5.29915 15.6148 4.89658 14.3064 4.49561C10.5771 3.35262 6.84678 2.21268 3.11948 1.0633C2.77853 0.958144 2.46245 0.955108 2.14574 1.11524C2.09506 1.14081 2.04453 1.17389 2.00549 1.21496C1.75159 1.48153 1.60583 1.79269 1.60614 2.17256C1.6085 4.51942 1.60724 6.86628 1.60724 9.21313C1.60724 9.27706 1.60929 9.34098 1.60535 9.40459C1.58883 9.67275 1.38498 9.86485 1.11739 9.86677C0.85577 9.86868 0.653814 9.68698 0.628628 9.42488C0.623591 9.37215 0.623906 9.31861 0.623906 9.26539C0.623749 6.90799 0.624536 4.55042 0.622804 2.19302C0.622489 1.85853 0.671601 1.53715 0.808233 1.23047C1.14289 0.478545 2.13362 -0.250043 3.26666 0.0828478C3.97579 0.291244 4.68114 0.512585 5.38759 0.730091C9.73682 2.06885 14.0835 3.41575 18.4367 4.7406C19.3031 5.00429 20.0007 5.83852 19.999 6.87427C19.9979 7.52343 19.9988 8.17275 19.999 8.82191C19.9988 9.91775 19.9987 11.0141 19.9987 12.1104Z" fill="white"/>
<path d="M11.2421 14.2843C11.2421 12.3951 11.2427 10.5061 11.2416 8.61697C11.2413 8.20721 11.3707 7.85082 11.6737 7.57658C12.0795 7.20949 12.5493 7.12383 13.0479 7.33894C13.5443 7.55325 13.8116 7.95118 13.8445 8.50286C13.8486 8.57174 13.8459 8.64126 13.8459 8.7103C13.8459 12.4034 13.8461 16.0964 13.8451 19.7895C13.8451 19.8811 13.8711 19.9784 13.7919 20.059C13.7718 20.0794 13.7828 20.1305 13.7776 20.1671C13.7088 20.6499 13.4626 21.006 13.0301 21.2202C12.9487 21.2604 12.8506 21.2772 12.759 21.2823C12.5865 21.2919 12.4127 21.2922 12.2402 21.2822C12.1489 21.2769 12.0497 21.2596 11.9705 21.2166C11.4939 20.9576 11.2534 20.5437 11.2441 19.9992C11.2351 19.4726 11.2421 18.9455 11.2421 18.4188C11.2421 17.0407 11.2421 15.6625 11.2421 14.2843Z" fill="white"/>
<path d="M7.51967 14.337C7.51967 12.9009 7.52078 11.4648 7.51904 10.0287C7.51857 9.60874 7.67142 9.25843 7.98624 8.99138C8.38228 8.65546 8.83546 8.58817 9.31272 8.7742C9.7785 8.95574 10.0376 9.31628 10.1047 9.81666C10.118 9.91638 10.1218 10.018 10.122 10.1187C10.1229 12.8897 10.1228 15.6609 10.1221 18.4319C10.1221 18.5131 10.138 18.595 10.0691 18.6682C10.0395 18.6996 10.0494 18.7697 10.042 18.8224C9.9282 19.6308 9.12478 20.1443 8.35819 19.8985C7.88612 19.7471 7.56186 19.3161 7.52518 18.7886C7.51936 18.7039 7.51983 18.6185 7.51983 18.5333C7.51952 17.1347 7.51967 15.7358 7.51967 14.337Z" fill="white"/>
<path d="M6.32792 14.2768C6.32792 15.2241 6.32996 16.1714 6.32713 17.1186C6.3254 17.6976 5.96367 18.2035 5.4343 18.3799C4.697 18.6255 3.76828 18.1854 3.72594 17.1557C3.72468 17.1239 3.72499 17.0918 3.72499 17.06C3.72499 15.2134 3.72562 13.3667 3.72437 11.5201C3.72421 11.1475 3.83329 10.8188 4.08672 10.5452C4.45648 10.146 5.02457 10.0202 5.53253 10.2233C6.01231 10.4153 6.32335 10.8738 6.32619 11.4191C6.33107 12.3716 6.3276 13.3242 6.3276 14.2768C6.3276 14.2768 6.32776 14.2768 6.32792 14.2768Z" fill="white"/>
<path d="M0.00158605 14.3232C0.00158605 13.717 0.00331756 13.1109 1.19593e-05 12.5047C-0.000617679 12.3946 0.0236234 12.2958 0.0706888 12.1987C0.320498 11.6834 0.870014 11.3831 1.41859 11.464C1.98479 11.5474 2.43624 12.0015 2.52203 12.576C2.53305 12.6493 2.5417 12.7238 2.54186 12.7978C2.54312 13.8134 2.54532 14.829 2.5417 15.8446C2.5395 16.4817 2.12268 17.01 1.52169 17.1522C0.935811 17.2909 0.326007 17.0014 0.069587 16.4642C0.0231512 16.3669 -0.000460269 16.2675 0.000169369 16.1577C0.00316015 15.5463 0.00158605 14.9348 0.00158605 14.3232Z" fill="white"/>
</svg>
