<svg width="31" height="33" viewBox="0 0 31 33" fill="none" xmlns="http://www.w3.org/2000/svg">
<path d="M30.9978 18.7718C30.9978 21.4443 30.9942 24.1169 31 26.7894C31.002 27.6455 30.7777 28.4161 30.2405 29.084C30.1995 29.135 30.1566 29.1848 30.1136 29.2343C29.8794 29.5051 29.6103 29.7112 29.257 29.8127C28.8434 29.9314 28.4411 30.0852 28.0097 30.1377C27.5274 30.1967 27.0721 30.0808 26.6215 29.9398C25.8383 29.6946 25.0585 29.438 24.278 29.1833C23.9449 29.0746 23.7251 28.7897 23.7232 28.4778C23.7212 28.131 23.9613 27.786 24.2934 27.6978C24.4119 27.6663 24.5549 27.6661 24.672 27.7015C25.5506 27.9685 26.426 28.2455 27.3007 28.5251C27.632 28.6312 27.9602 28.6334 28.2789 28.5006C29.0464 28.1806 29.4639 27.6785 29.4641 26.8115C29.4653 21.3923 29.4646 15.9729 29.4654 10.5537C29.4654 10.0241 29.2926 9.56909 28.9125 9.20124C28.7263 9.02115 28.5033 8.90993 28.2579 8.83487C26.2299 8.21436 24.2028 7.59037 22.1748 6.96887C16.3943 5.19724 10.6124 3.43032 4.83506 1.64879C4.30659 1.4858 3.81667 1.48109 3.32577 1.7293C3.2472 1.76893 3.16889 1.82021 3.10838 1.88387C2.71483 2.29705 2.4889 2.77934 2.48939 3.36815C2.49305 7.00578 2.49109 10.6434 2.49109 14.281C2.49109 14.3801 2.49427 14.4792 2.48817 14.5778C2.46255 14.9935 2.14659 15.2912 1.73181 15.2942C1.32631 15.2971 1.01328 15.0155 0.97424 14.6093C0.966432 14.5275 0.96692 14.4445 0.96692 14.362C0.966676 10.7081 0.967896 7.05383 0.965212 3.39986C0.964724 2.8814 1.04085 2.38325 1.25263 1.9079C1.77134 0.742417 3.30698 -0.386895 5.06319 0.129086C6.16234 0.4521 7.25564 0.795179 8.35064 1.13231C15.0919 3.20738 21.8293 5.29509 28.5768 7.34861C29.9197 7.75733 31.001 9.05038 30.9983 10.6558C30.9966 11.662 30.9981 12.6684 30.9983 13.6746C30.9981 15.3732 30.9978 17.0725 30.9978 18.7718Z" fill="#2D2D2D"/>
<path d="M17.4255 22.1412C17.4255 19.213 17.4264 16.285 17.4247 13.3569C17.4242 12.7217 17.6248 12.1693 18.0945 11.7443C18.7235 11.1753 19.4518 11.0425 20.2245 11.3759C20.994 11.7081 21.4083 12.3249 21.4593 13.18C21.4656 13.2868 21.4615 13.3945 21.4615 13.5015C21.4615 19.2259 21.4617 24.95 21.4602 30.6743C21.4602 30.8163 21.5005 30.9671 21.3778 31.092C21.3465 31.1237 21.3636 31.2029 21.3556 31.2597C21.249 32.008 20.8674 32.5599 20.1969 32.8918C20.0707 32.9542 19.9187 32.9803 19.7767 32.9882C19.5093 33.003 19.24 33.0035 18.9726 32.9879C18.8311 32.9798 18.6774 32.953 18.5546 32.8864C17.8158 32.4848 17.443 31.8433 17.4286 30.9993C17.4147 30.1831 17.4255 29.3662 17.4255 28.5497C17.4255 26.4137 17.4255 24.2774 17.4255 22.1412Z" fill="#2D2D2D"/>
<path d="M11.6554 22.2229C11.6554 19.997 11.6571 17.7711 11.6544 15.5451C11.6537 14.8942 11.8906 14.3512 12.3786 13.9373C12.9924 13.4166 13.6949 13.3123 14.4346 13.6006C15.1566 13.882 15.5582 14.4409 15.6621 15.2164C15.6829 15.371 15.6887 15.5285 15.689 15.6846C15.6904 19.9797 15.6902 24.275 15.6892 28.57C15.6892 28.6959 15.7138 28.8229 15.607 28.9364C15.5611 28.9849 15.5765 29.0937 15.565 29.1754C15.3886 30.4283 14.1433 31.2242 12.9551 30.8433C12.2234 30.6087 11.7208 29.9406 11.6639 29.1229C11.6549 28.9916 11.6556 28.8593 11.6556 28.7273C11.6552 26.5593 11.6554 24.3911 11.6554 22.2229Z" fill="#2D2D2D"/>
<path d="M9.80822 22.1298C9.80822 23.598 9.81139 25.0664 9.807 26.5346C9.80431 27.432 9.24363 28.216 8.42311 28.4895C7.28029 28.8702 5.84078 28.188 5.77514 26.592C5.77319 26.5428 5.77368 26.493 5.77368 26.4437C5.77368 23.5814 5.77466 20.7191 5.77271 17.8568C5.77246 17.2794 5.94154 16.7698 6.33436 16.3458C6.90748 15.727 7.78802 15.532 8.57536 15.8469C9.31903 16.1444 9.80114 16.855 9.80553 17.7002C9.8131 19.1766 9.80773 20.6532 9.80773 22.1298C9.80773 22.1298 9.80797 22.1298 9.80822 22.1298Z" fill="#2D2D2D"/>
<path d="M0.00245839 22.2016C0.00245839 21.2621 0.00514222 20.3225 1.85369e-05 19.3829C-0.000957403 19.2123 0.0366163 19.0592 0.109568 18.9086C0.496772 18.1099 1.34852 17.6445 2.19881 17.7698C3.07643 17.8991 3.77617 18.6029 3.90915 19.4934C3.92622 19.6071 3.93964 19.7225 3.93989 19.8372C3.94184 21.4114 3.94526 22.9856 3.93964 24.5598C3.93623 25.5472 3.29016 26.3661 2.35862 26.5866C1.45051 26.8016 0.505311 26.3528 0.10786 25.5202C0.0358843 25.3693 -0.000713418 25.2153 0.000262522 25.0451C0.00489824 24.0974 0.00245839 23.1496 0.00245839 22.2016Z" fill="#2D2D2D"/>
</svg>
