<svg width="17" height="19" viewBox="0 0 17 19" fill="none" xmlns="http://www.w3.org/2000/svg">
<path d="M0.0046367 9.49562C0.0046367 7.99284 0.00832243 6.49012 1.49144e-05 4.9874C-0.00103815 4.79649 0.0534872 4.69144 0.223148 4.5945C2.85499 3.09043 5.48292 1.57966 8.10915 0.0658019C8.2526 -0.0169081 8.35978 -0.0250741 8.50885 0.0609023C11.1431 1.58048 13.7801 3.09533 16.4201 4.60476C16.5811 4.6968 16.6251 4.8022 16.6248 4.97853C16.6195 7.99383 16.6194 11.0092 16.625 14.0245C16.6253 14.2038 16.5723 14.3041 16.4143 14.3945C13.7743 15.9042 11.1376 17.4194 8.50276 18.938C8.36779 19.0157 8.27044 19.0238 8.12962 18.9426C5.4869 17.4181 2.84142 15.8984 0.192609 14.3843C0.0392709 14.2966 0.00106798 14.196 0.00165302 14.0334C0.00668433 12.5208 0.0046367 11.0082 0.0046367 9.49562ZM15.9696 9.52642C15.9696 8.15132 15.9672 6.77622 15.9726 5.40118C15.9733 5.22672 15.9303 5.11835 15.7656 5.02514C15.0919 4.64361 14.4169 4.26412 13.7438 3.8816C12.0133 2.89807 10.2961 1.89126 8.57817 0.885844C8.38078 0.770295 8.22376 0.781378 8.03485 0.893135C7.40991 1.26288 6.7779 1.62061 6.14875 1.9833C4.38843 2.99792 2.62975 4.01535 0.865576 5.02321C0.703814 5.1156 0.652799 5.21832 0.653091 5.39564C0.657654 8.14583 0.657947 10.896 0.652682 13.6462C0.652331 13.8364 0.70358 13.9494 0.882367 14.0377C1.21642 14.2029 1.53784 14.3941 1.86096 14.5805C3.9524 15.7871 6.04303 16.9949 8.13313 18.2038C8.24312 18.2675 8.3417 18.2913 8.46245 18.2213C9.50709 17.6161 10.554 17.0148 11.6004 16.4126C12.97 15.6243 14.3368 14.8311 15.7126 14.0537C15.9021 13.9466 15.9756 13.838 15.9742 13.6222C15.9651 12.257 15.9696 10.8917 15.9696 9.52642Z" fill="white"/>
<path d="M6.20541 7.05732C6.35369 7.11542 6.44048 7.04362 6.53541 7.01675C6.71417 6.96615 6.89926 6.90946 7.05382 7.05395C7.21616 7.20571 7.17718 7.39751 7.12298 7.58475C7.04821 7.84286 6.97289 8.10085 6.90149 8.35984C6.86716 8.48444 6.82606 8.61003 6.81574 8.73735C6.80445 8.87653 6.71356 9.07629 6.8881 9.13759C7.04356 9.19215 7.15032 9.01293 7.23656 8.89507C7.46288 8.58582 7.61665 8.23944 7.74417 7.8813C7.821 7.66559 7.89167 7.44675 7.98539 7.23801C8.17369 6.81876 8.31491 6.74725 8.81099 6.79656C8.60169 7.30415 8.36747 7.79958 8.25365 8.33427C8.214 8.52051 8.08811 8.78931 8.29336 8.87281C8.48642 8.95134 8.62994 8.69477 8.7303 8.5276C9.04533 8.00312 9.31908 7.46157 9.36489 6.83771C9.37177 6.74394 9.29156 6.59224 9.46603 6.57057C9.64039 6.5489 9.85258 6.48849 9.95964 6.68466C10.0455 6.84202 10.1056 6.80842 10.2057 6.71554C10.3488 6.58262 10.5278 6.52493 10.7182 6.48276C11.1892 6.37842 11.4013 6.5724 11.2989 7.03825C11.2071 7.45549 11.0444 7.85609 10.9889 8.28243C10.9749 8.38954 10.9223 8.51833 11.0511 8.57478C11.158 8.62155 11.2373 8.51833 11.3049 8.44676C11.6152 8.11856 11.791 7.71714 11.9344 7.30149C12.0092 7.08478 12.0884 6.87178 12.1839 6.66222C12.3491 6.29947 12.6442 6.22826 12.9979 6.25655C13.0407 6.34666 12.9809 6.39578 12.943 6.45229C12.6118 6.94418 12.4414 7.49222 12.3687 8.07056C12.3524 8.19982 12.3067 8.38429 12.4707 8.43944C12.6251 8.49134 12.721 8.33161 12.8049 8.2255C13.0996 7.85243 13.3118 7.43524 13.4588 6.98646C13.4806 6.92026 13.4981 6.85277 13.5185 6.7861C13.6909 6.22247 13.8176 6.13467 14.4462 6.14848C14.0149 6.9378 13.8841 7.80967 13.6387 8.72571C13.9768 8.57059 14.1907 8.38204 14.3959 8.18163C14.6115 7.971 14.8164 7.74785 15.0868 7.59999C15.166 7.55664 15.2532 7.50196 15.343 7.55777C15.4407 7.61853 15.4461 7.72423 15.4313 7.8252C15.3945 8.07681 15.2825 8.30032 15.1378 8.50658C14.5823 9.29826 13.9214 9.99865 13.1801 10.6251C12.5933 11.1211 11.8746 11.2929 11.1267 11.3711C9.91522 11.4977 8.69626 11.5745 7.51677 11.9061C6.70711 12.1338 5.94651 12.4503 5.34197 13.0529C5.01089 13.3829 4.78621 13.7749 4.63032 14.25C3.78107 13.04 2.65136 12.3932 1.1875 12.3161C1.22196 12.1986 1.33874 12.196 1.42287 12.1581C2.73344 11.569 4.12488 11.3135 5.55181 11.2006C7.12226 11.0764 8.70109 11.1147 10.2698 10.9652C10.795 10.9152 11.3209 10.855 11.8402 10.7648C12.6541 10.6232 13.2994 10.1832 13.8446 9.5938C14.1104 9.30647 14.3654 9.00933 14.6199 8.71231C14.6909 8.62946 14.7511 8.5351 14.801 8.43849C14.8305 8.38133 14.8876 8.30162 14.8272 8.24581C14.7442 8.16923 14.6782 8.2643 14.62 8.30504C14.29 8.53616 13.9888 8.80773 13.6208 8.98559C13.5035 9.04228 13.4993 9.16333 13.4559 9.26005C13.1745 9.88722 12.6554 10.2521 12.0574 10.2346C11.8111 10.2274 11.588 10.1724 11.495 9.91255C11.398 9.64158 11.5469 9.44789 11.7371 9.28828C11.927 9.1289 12.17 9.08072 12.4119 9.03472C13.0033 8.92211 13.0026 8.91875 13.1162 8.31325C13.0095 8.30209 13.0001 8.40377 12.9491 8.45255C12.8404 8.55636 12.7501 8.68101 12.6328 8.77331C12.1918 9.12022 11.8887 8.97656 11.7279 8.31343C11.5982 8.49129 11.4966 8.65527 11.3702 8.79817C11.1653 9.02964 10.9629 9.3005 10.5861 9.18748C10.3607 9.11987 10.2879 8.83938 10.379 8.38824C10.4655 7.95972 10.577 7.53604 10.6782 7.11041C10.7005 7.0164 10.7638 6.91011 10.6474 6.84279C10.5521 6.7877 10.4493 6.82968 10.3583 6.87863C10.1712 6.97926 10.0664 7.14979 9.96791 7.32541C9.67961 7.83955 9.54914 8.40436 9.4644 8.9739C9.42053 9.26868 9.25981 9.26578 9.03223 9.29419C8.77882 9.32584 8.75504 9.19014 8.75281 8.97266C8.46596 9.22646 8.28334 9.61483 7.86475 9.50547C7.54731 9.42256 7.6228 9.09277 7.57404 8.79758C7.42129 9.01252 7.30572 9.19368 7.1703 9.3592C7.07609 9.47429 6.96673 9.5856 6.84283 9.66785C6.51374 9.88634 6.20909 9.74881 6.16292 9.36215C6.12339 9.03118 6.20523 8.709 6.28266 8.39007C6.33897 8.15824 6.417 7.93155 6.47838 7.70084C6.50547 7.59904 6.56896 7.46837 6.45593 7.39963C6.34838 7.33426 6.24524 7.43671 6.15761 7.4986C5.91168 7.67226 5.75115 7.90888 5.63818 8.18305C5.45061 8.6382 5.37873 9.12217 5.25646 9.59357C5.20987 9.77308 4.80697 9.93381 4.64782 9.83449C4.55313 9.77544 4.60835 9.68704 4.62718 9.61843C4.90383 8.61086 5.11542 7.58729 5.42339 6.58711C5.58531 6.06115 5.80342 5.56808 6.13872 5.12769C6.28206 4.93944 6.46371 4.79654 6.70898 4.75875C6.98224 4.71664 7.11447 4.82618 7.12111 5.09527C7.12745 5.3506 7.0362 5.58267 6.93137 5.81048C6.73185 6.24497 6.49238 6.65791 6.20541 7.05732ZM5.85019 7.00866C5.96956 7.03683 5.99829 6.96632 6.03498 6.90899C6.27204 6.53892 6.50203 6.16431 6.67023 5.75875C6.74615 5.5757 6.79896 5.38302 6.85394 5.19247C6.87222 5.12917 6.89365 5.0426 6.82014 5.00256C6.72618 4.95143 6.67452 5.0374 6.62298 5.09509C6.59003 5.132 6.56389 5.17582 6.53993 5.21928C6.22804 5.78497 6.05689 6.40057 5.85019 7.00866ZM12.8546 9.20821C12.5745 9.27293 12.3474 9.31668 12.1259 9.37975C11.9891 9.41872 11.8598 9.48173 11.8527 9.6577C11.8472 9.79014 11.8929 9.88882 12.0098 9.95655C12.1518 10.0388 12.2897 10.006 12.4104 9.92312C12.6439 9.76275 12.7765 9.5347 12.8546 9.20821Z" fill="white"/>
<path d="M3.11077 10.6875C2.7744 10.6826 2.54483 10.5808 2.42424 10.229C2.31531 9.91125 2.39998 9.63989 2.55254 9.38975C2.58088 9.3433 2.61027 9.28098 2.66034 9.29153C2.72624 9.30543 2.72614 9.39011 2.73476 9.45759C2.76007 9.65601 2.77095 9.85839 2.84982 10.0391C3.00619 10.3975 3.25068 10.5684 3.46618 10.4658C3.71353 10.348 3.91525 9.84982 3.86369 9.4981C3.82097 9.20697 3.68419 8.98949 3.54945 8.77021C3.38582 8.50389 3.21108 8.24823 3.08623 7.94463C2.85721 7.38778 2.9544 6.69968 3.32133 6.25945C3.65897 5.85433 4.17498 5.8291 4.57144 6.1976C4.68291 6.30122 4.78545 6.42629 4.73819 6.62034C4.68808 6.82619 4.57869 6.98896 4.42686 7.08215C4.35162 7.12835 4.31457 7.04966 4.29879 6.96457C4.28065 6.86682 4.26763 6.76728 4.25561 6.6678C4.22981 6.45451 4.14808 6.31572 3.97688 6.29163C3.79893 6.26658 3.6426 6.30038 3.54627 6.53554C3.38029 6.94083 3.40437 7.27919 3.64568 7.61479C3.83552 7.87877 4.01716 8.15001 4.17266 8.45091C4.63556 9.34654 4.34455 10.3506 3.5431 10.6053C3.38092 10.6569 3.21158 10.6691 3.11077 10.6875Z" fill="white"/>
</svg>
