<svg width="36" height="41" viewBox="0 0 36 41" fill="none" xmlns="http://www.w3.org/2000/svg">
<path d="M0.00999108 20.4905C0.00999108 17.2477 0.017933 14.005 3.21372e-05 10.7623C-0.00223699 10.3503 0.115253 10.1236 0.480835 9.91444C6.15189 6.66883 11.8145 3.40875 17.4734 0.141994C17.7825 -0.0364858 18.0135 -0.0541072 18.3347 0.131421C24.0109 3.41051 29.6931 6.6794 35.3818 9.93659C35.7287 10.1352 35.8234 10.3627 35.8227 10.7431C35.8114 17.2498 35.8111 23.7567 35.8232 30.2634C35.824 30.6503 35.7098 30.8668 35.3692 31.0617C29.6807 34.3197 23.9991 37.5892 18.3216 40.8662C18.0308 41.0339 17.821 41.0514 17.5176 40.8761C11.8231 37.5864 6.12264 34.307 0.41503 31.0398C0.0846201 30.8507 0.00230126 30.6335 0.00356189 30.2825C0.0144033 27.0185 0.00999108 23.7545 0.00999108 20.4905ZM34.4109 20.557C34.4109 17.5897 34.4058 14.6224 34.4174 11.6552C34.4189 11.2787 34.3262 11.0449 33.9714 10.8437C32.5196 10.0204 31.0653 9.20153 29.6149 8.37609C25.886 6.25372 22.1858 4.08113 18.4841 1.91156C18.0587 1.66222 17.7204 1.68613 17.3133 1.92729C15.9667 2.72516 14.6049 3.49711 13.2492 4.27975C9.45611 6.4692 5.66654 8.6647 1.86513 10.8396C1.51656 11.0389 1.40664 11.2606 1.40727 11.6432C1.4171 17.5779 1.41773 23.5124 1.40639 29.447C1.40563 29.8574 1.51606 30.1012 1.90131 30.2919C2.62112 30.6483 3.31371 31.061 4.00996 31.4633C8.51657 34.0668 13.0214 36.6733 17.5251 39.282C17.7621 39.4193 17.9745 39.4707 18.2347 39.3198C20.4857 38.0138 22.7416 36.7162 24.9962 35.4166C27.9475 33.7155 30.8927 32.004 33.8573 30.3263C34.2655 30.0953 34.4239 29.8608 34.4209 29.3953C34.4012 26.4492 34.4109 23.503 34.4109 20.557Z" fill="#2D2D2D"/>
<path d="M13.6061 15.9034C13.9164 16.0275 14.098 15.8741 14.2966 15.8167C14.6706 15.7086 15.058 15.5875 15.3814 15.8962C15.7211 16.2204 15.6395 16.6301 15.5261 17.03C15.3696 17.5814 15.212 18.1325 15.0626 18.6857C14.9908 18.9519 14.9048 19.2201 14.8832 19.4921C14.8596 19.7894 14.6694 20.2161 15.0346 20.347C15.3599 20.4636 15.5833 20.0808 15.7638 19.829C16.2373 19.1684 16.5591 18.4285 16.8259 17.6635C16.9867 17.2027 17.1346 16.7353 17.3307 16.2894C17.7247 15.3938 18.0202 15.2411 19.0583 15.3464C18.6203 16.4306 18.1302 17.4889 17.892 18.6311C17.8091 19.0289 17.5456 19.6031 17.9751 19.7814C18.3791 19.9492 18.6794 19.4011 18.8894 19.0441C19.5486 17.9237 20.1214 16.7669 20.2173 15.4343C20.2317 15.234 20.0639 14.9099 20.4289 14.8637C20.7938 14.8174 21.2378 14.6883 21.4618 15.1073C21.6415 15.4435 21.7673 15.3717 21.9767 15.1733C22.2762 14.8894 22.6508 14.7661 23.0492 14.6761C24.0346 14.4532 24.4785 14.8676 24.2642 15.8626C24.0722 16.7539 23.7318 17.6096 23.6155 18.5203C23.5862 18.7491 23.4762 19.0243 23.7458 19.1448C23.9693 19.2447 24.1354 19.0243 24.2768 18.8714C24.9262 18.1703 25.294 17.3128 25.5941 16.425C25.7505 15.962 25.9164 15.5071 26.1161 15.0594C26.4618 14.2846 27.0792 14.1324 27.8193 14.1929C27.9089 14.3853 27.7838 14.4903 27.7044 14.611C27.0115 15.6617 26.6549 16.8324 26.5027 18.0678C26.4687 18.3439 26.373 18.7379 26.7162 18.8557C27.0393 18.9666 27.2401 18.6254 27.4155 18.3987C28.0322 17.6018 28.4761 16.7107 28.7839 15.752C28.8293 15.6106 28.866 15.4665 28.9087 15.324C29.2694 14.1201 29.5345 13.9325 30.8499 13.962C29.9475 15.6481 29.6737 17.5105 29.1603 19.4672C29.8676 19.1359 30.3153 18.7331 30.7447 18.305C31.1959 17.8551 31.6246 17.3784 32.1904 17.0626C32.3562 16.97 32.5387 16.8532 32.7265 16.9724C32.9309 17.1022 32.9423 17.328 32.9113 17.5437C32.8342 18.0811 32.5999 18.5586 32.2971 18.9992C31.1348 20.6903 29.7518 22.1864 28.2007 23.5245C26.9727 24.584 25.4689 24.951 23.9039 25.118C21.3689 25.3886 18.8182 25.5526 16.3501 26.2609C14.6559 26.7473 13.0643 27.4234 11.7993 28.7105C11.1065 29.4154 10.6364 30.2528 10.3102 31.2677C8.53313 28.6829 6.16922 27.3014 3.10608 27.1366C3.17819 26.8857 3.42255 26.88 3.59859 26.7992C6.34097 25.5407 9.25257 24.995 12.2384 24.7539C15.5246 24.4885 18.8283 24.5705 22.1108 24.2511C23.2098 24.1441 24.3103 24.0157 25.3968 23.8229C27.1 23.5205 28.4504 22.5805 29.5912 21.3216C30.1474 20.7078 30.6808 20.0731 31.2135 19.4386C31.3621 19.2616 31.488 19.0601 31.5924 18.8537C31.6542 18.7316 31.7736 18.5613 31.6471 18.4421C31.4736 18.2785 31.3354 18.4816 31.2137 18.5686C30.5231 19.0623 29.8928 19.6424 29.1228 20.0224C28.8775 20.1435 28.8685 20.402 28.7778 20.6086C28.1888 21.9483 27.1027 22.7277 25.8513 22.6904C25.3361 22.675 24.8692 22.5575 24.6746 22.0025C24.4717 21.4236 24.7832 21.0099 25.1811 20.6689C25.5785 20.3285 26.087 20.2256 26.5932 20.1273C27.8307 19.8868 27.8293 19.8796 28.0668 18.5862C27.8436 18.5623 27.824 18.7795 27.7173 18.8837C27.4899 19.1055 27.3009 19.3718 27.0554 19.5689C26.1327 20.31 25.4984 20.0031 25.1618 18.5866C24.8904 18.9665 24.678 19.3168 24.4133 19.622C23.9847 20.1165 23.5612 20.6951 22.7728 20.4536C22.301 20.3092 22.1487 19.7101 22.3392 18.7464C22.5203 17.831 22.7536 16.926 22.9654 16.0168C23.0121 15.816 23.1444 15.5889 22.9009 15.4451C22.7015 15.3275 22.4865 15.4171 22.296 15.5217C21.9044 15.7366 21.6852 16.1009 21.4791 16.476C20.8759 17.5743 20.6028 18.7808 20.4255 19.9974C20.3337 20.6271 19.9974 20.6209 19.5212 20.6816C18.9909 20.7492 18.9412 20.4593 18.9365 19.9947C18.3363 20.5369 17.9542 21.3665 17.0783 21.1329C16.414 20.9558 16.572 20.2513 16.4699 19.6208C16.1503 20.0799 15.9085 20.4669 15.6251 20.8204C15.428 21.0663 15.1991 21.304 14.9399 21.4797C14.2513 21.9464 13.6138 21.6527 13.5172 20.8267C13.4345 20.1197 13.6057 19.4315 13.7677 18.7503C13.8855 18.2551 14.0488 17.7708 14.1773 17.278C14.234 17.0606 14.3668 16.7814 14.1303 16.6346C13.9052 16.495 13.6894 16.7138 13.5061 16.846C12.9915 17.217 12.6555 17.7224 12.4191 18.3081C12.0266 19.2803 11.8762 20.3141 11.6204 21.3211C11.5229 21.7045 10.6798 22.0479 10.3468 21.8357C10.1487 21.7096 10.2642 21.5207 10.3036 21.3742C10.8825 19.2219 11.3253 17.0355 11.9697 14.899C12.3085 13.7755 12.7649 12.7222 13.4665 11.7815C13.7665 11.3794 14.1466 11.0741 14.6598 10.9934C15.2316 10.9035 15.5083 11.1375 15.5222 11.7123C15.5354 12.2577 15.3445 12.7534 15.1251 13.24C14.7077 14.1681 14.2066 15.0502 13.6061 15.9034ZM12.8628 15.7995C13.1126 15.8596 13.1727 15.709 13.2495 15.5865C13.7455 14.796 14.2268 13.9958 14.5787 13.1295C14.7376 12.7385 14.8481 12.3269 14.9631 11.9199C15.0014 11.7847 15.0462 11.5998 14.8924 11.5142C14.6958 11.405 14.5877 11.5887 14.4798 11.7119C14.4109 11.7907 14.3562 11.8843 14.3061 11.9772C13.6534 13.1855 13.2953 14.5005 12.8628 15.7995ZM27.5195 20.4979C26.9334 20.6361 26.4581 20.7296 25.9948 20.8643C25.7085 20.9476 25.438 21.0822 25.423 21.4581C25.4116 21.741 25.5072 21.9517 25.7518 22.0964C26.049 22.2721 26.3374 22.202 26.59 22.025C27.0785 21.6824 27.3561 21.1953 27.5195 20.4979Z" fill="#2D2D2D"/>
<path d="M6.54419 22.1566C5.63504 22.1464 5.01456 21.9332 4.68863 21.1972C4.39421 20.5322 4.62306 19.9644 5.0354 19.441C5.11201 19.3438 5.19144 19.2134 5.32676 19.2355C5.50487 19.2646 5.50462 19.4418 5.52791 19.583C5.59631 19.9982 5.62573 20.4216 5.83889 20.7998C6.26153 21.5497 6.92233 21.9073 7.50481 21.6926C8.17334 21.4462 8.71856 20.4037 8.57919 19.6677C8.46373 19.0585 8.09404 18.6035 7.72986 18.1446C7.28761 17.5873 6.81533 17.0524 6.47787 16.4171C5.85887 15.2519 6.12155 13.812 7.11331 12.8908C8.02588 12.0431 9.42055 11.9903 10.4921 12.7614C10.7934 12.9782 11.0705 13.24 10.9428 13.646C10.8074 14.0768 10.5117 14.4173 10.1013 14.6123C9.89799 14.709 9.79784 14.5444 9.75519 14.3663C9.70616 14.1618 9.67098 13.9535 9.63849 13.7453C9.56875 13.299 9.34787 13.0086 8.88514 12.9582C8.40415 12.9058 7.98164 12.9765 7.72128 13.4686C7.27266 14.3166 7.33774 15.0247 7.98997 15.7269C8.50307 16.2793 8.99399 16.8468 9.4143 17.4765C10.6654 19.3506 9.87886 21.4517 7.7127 21.9846C7.27437 22.0926 6.81667 22.1181 6.54419 22.1566Z" fill="#2D2D2D"/>
</svg>
