<svg width="38" height="37" viewBox="0 0 38 37" fill="none" xmlns="http://www.w3.org/2000/svg">
<path d="M17.795 24.9536H19.8315V19.4012H24.9535V17.427H19.8315V11.8745H17.795V17.4269H12.7349V19.4011H17.7952V24.9536H17.795Z" fill="#2D2D2D"/>
<path d="M8.24486 33.042H9.99712V28.0828H14.628V26.533H9.99712V21.5117H8.24486V26.533H3.61401V28.0828H8.24486V33.042Z" fill="#2D2D2D"/>
<path d="M27.493 15.1442H29.2353V10.1583H33.9023V8.66251H29.2353V3.61401H27.493V8.66236H22.8883V10.1581H27.493V15.1442Z" fill="#2D2D2D"/>
<path d="M18.0699 36.9999H19.5568V33.4395H22.7164V32.1278H19.5568V28.5674H18.0699V32.1278H14.9722V33.4395H18.0699V36.9999Z" fill="#2D2D2D"/>
<path d="M8.3075 15.1442H9.93448V10.0959H14.628V8.66236H9.93448V3.61401H8.3075V8.66236H3.61401V10.0959H8.3075V15.1442Z" fill="#2D2D2D"/>
<path d="M32.8698 22.5442H34.3567V19.0919H37.5164V17.7358H34.3568V14.2837H32.87V17.7358H29.7722V19.0919H32.87V22.5442H32.8698Z" fill="#2D2D2D"/>
<path fill-rule="evenodd" clip-rule="evenodd" d="M27.493 33.042H29.2353V28.0828H33.9023V26.533H29.2353V21.5117H27.493V26.533H22.8883V28.0828H27.493V33.042Z" fill="#2D2D2D"/>
<path d="M22.5442 4.48692V3.42753H19.4217V0H18.2975V3.42753H15.175V4.48692H18.2975V7.91446H19.4217V4.48692H22.5442ZM3.12252 22.3721H4.24665V18.9446H7.36917V17.8852H4.24665V14.52H3.12252V17.8852H0V19.0069L3.12252 18.9446V22.3721Z" fill="#2D2D2D"/>
</svg>
