<svg width="17" height="18" viewBox="0 0 17 18" fill="none" xmlns="http://www.w3.org/2000/svg">
<path d="M8.06363 12.2799H8.98645V9.76389H11.3074V8.86931H8.98645V6.35327H8.06363V8.86925H5.77069V9.76383H8.0637V12.2799H8.06363Z" fill="white"/>
<path d="M3.73604 15.945H4.53005V13.6978H6.62845V12.9955H4.53005V10.7202H3.73604V12.9955H1.63763V13.6978H3.73604V15.945Z" fill="white"/>
<path d="M12.4581 7.83499H13.2476V5.57567H15.3623V4.89788H13.2476V2.61023H12.4581V4.89782H10.3715V5.57561H12.4581V7.83499Z" fill="white"/>
<path d="M8.18812 17.7386H8.86186V16.1252H10.2936V15.5308H8.86186V13.9175H8.18812V15.5308H6.78442V16.1252H8.18812V17.7386Z" fill="white"/>
<path d="M3.76442 7.83499H4.50167V5.5474H6.62845V4.89782H4.50167V2.61023H3.76442V4.89782H1.63763V5.5474H3.76442V7.83499Z" fill="white"/>
<path d="M14.8945 11.1881H15.5682V9.62374H17V9.0092H15.5683V7.44495H14.8945V9.0092H13.4908V9.62374H14.8945V11.1881H14.8945Z" fill="white"/>
<path fill-rule="evenodd" clip-rule="evenodd" d="M12.4581 15.945H13.2476V13.6978H15.3623V12.9955H13.2476V10.7202H12.4581V12.9955H10.3715V13.6978H12.4581V15.945Z" fill="white"/>
<path d="M10.2156 3.00572V2.52567H8.80065V0.972534H8.29127V2.52567H6.87634V3.00572H8.29127V4.55886H8.80065V3.00572H10.2156ZM1.41492 11.1101H1.92431V9.55699H3.33924V9.07695H1.92431V7.55207H1.41492V9.07695H0V9.58526L1.41492 9.55699V11.1101Z" fill="white"/>
</svg>
